<svg id="Layer_1" data-name="Layer 1" xmlns="http://www.w3.org/2000/svg" viewBox="0 0 500 500"><title>Icon_Scissors_Black</title><rect x="250.51" y="153.18" width="162.65" height="25" transform="translate(-19.96 283.16) rotate(-45)"/><path d="M201.83,150.67a50,50,0,1,0-50,50A49.35,49.35,0,0,0,174,195.28l55.61,55L173.83,306a49.36,49.36,0,0,0-22-5.33,50.19,50.19,0,1,0,41.07,21.61l54.43-54.43L380.54,399.57l17.58-17.77L193,179A49.72,49.72,0,0,0,201.83,150.67Zm-50,225a25,25,0,0,1,0-50,24.7,24.7,0,0,1,16.61,6.62l1.77,1.76a24.72,24.72,0,0,1,6.62,16.62A25,25,0,0,1,151.83,375.67Zm-25-225a25,25,0,0,1,50,0,24.7,24.7,0,0,1-6.54,16.5l-1.9,1.92a24.72,24.72,0,0,1-16.56,6.58A25,25,0,0,1,126.83,150.67Z"/></svg>