<svg id="Icons" xmlns="http://www.w3.org/2000/svg" viewBox="0 0 500 500"><title>Icon_Document csv_SVG_Black</title><path d="M149.69,364.19c0-24.54,16.89-38.5,35.35-38.5a32.25,32.25,0,0,1,22.73,9.68l-10.13,12.38c-3.6-3.15-7.2-5.4-12.15-5.4-8.56,0-16,7.88-16,21.16,0,13.74,6.31,21.39,15.76,21.39,5.63,0,10.13-2.93,13.28-6.3l10.14,12.15a30.87,30.87,0,0,1-24.09,10.81C165.9,401.56,149.69,389.18,149.69,364.19Z"/><path d="M217.68,391.09l11-13.28c5.18,4.16,11.71,7.09,17.11,7.09,5.85,0,8.33-1.91,8.33-5.18,0-3.49-3.71-4.61-9.91-7.09l-9.11-3.83c-7.88-3.15-14.75-9.79-14.75-20.37,0-12.5,11.26-22.74,27.24-22.74a35.2,35.2,0,0,1,24.32,9.79l-9.68,12.16c-5-3.49-9.23-5.29-14.64-5.29-4.73,0-7.65,1.69-7.65,4.95,0,3.49,4.16,4.73,10.8,7.32l8.9,3.49c9.11,3.6,14.29,9.91,14.29,20,0,12.38-10.35,23.41-28.59,23.41A42.38,42.38,0,0,1,217.68,391.09Z"/><path d="M283.19,327h20.49l7.65,32c2,7.77,3.38,15.31,5.41,23.19h.45c2-7.88,3.49-15.42,5.4-23.19L330,327h19.81l-21.61,73.17H304.8Z"/><path d="M361.36,447.85H138.86a39.32,39.32,0,0,1-25.37-9.62,33.86,33.86,0,0,1-12.13-25.38V85.35c0-19.95,16.12-35,37.5-35H291.54L398.86,157.67V412.85C398.86,432.8,382.74,447.85,361.36,447.85ZM138.86,75.35c-7.48,0-12.5,4-12.5,10v327.5c0,4.95,6.31,10,12.5,10h222.5c7.48,0,12.5-4,12.5-10V168L281.18,75.35Z"/><polygon points="376.36 175.35 276.36 175.35 276.36 75.35 301.36 75.35 301.36 150.35 376.36 150.35 376.36 175.35"/></svg>