<svg xmlns="http://www.w3.org/2000/svg" viewBox="0 0 500 500"><title>Icon_Powerpoint document_SVG_Black</title><g id="Guides_and_type" data-name="Guides and type"><path d="M187.2,322.25H160.55v72.8h19.26V372h7.84c15.23,0,29.12-7.73,29.12-25.53C216.77,328.08,203.11,322.25,187.2,322.25Zm-.44,34.5h-6.95V337.49h6.5c7.39,0,11.65,2.46,11.65,9S194.37,356.75,186.76,356.75Z"/><path d="M253.06,322.25H226.4v72.8h19.27V372h7.84c15.23,0,29.12-7.73,29.12-25.53C282.63,328.08,269,322.25,253.06,322.25Zm-.45,34.5h-6.94V337.49h6.49c7.4,0,11.65,2.46,11.65,9S260.23,356.75,252.61,356.75Z"/><polygon points="285.77 338.38 305.03 338.38 305.03 395.05 324.29 395.05 324.29 338.38 343.56 338.38 343.56 322.25 285.77 322.25 285.77 338.38"/><path d="M294,46.92H142c-21.27,0-37.31,15-37.31,34.82V407.61a33.7,33.7,0,0,0,12.07,25.26A39.14,39.14,0,0,0,142,442.44h221.4c21.27,0,37.31-15,37.31-34.83V153.71Zm9.78,45,54.54,54.55H303.73Zm59.7,325.69H142c-6.16,0-12.43-5-12.43-9.95V81.74c0-5.95,5-9.95,12.43-9.95H278.85V171.3h97V407.61C375.86,413.57,370.87,417.56,363.43,417.56Z"/></g></svg>