<svg id="Layer_1" data-name="Layer 1" xmlns="http://www.w3.org/2000/svg" viewBox="0 0 500 500"><title>Icon_Microphone_Black</title><path d="M366.76,265h-25a91.76,91.76,0,0,1-183.52,0h-25c0,60.11,45.84,109.16,104.27,115.49V425H196.74v25H301.26V425H262.51V380.47C320.93,374.12,366.74,325.08,366.76,265Z"/><path d="M250,337.5a68.81,68.81,0,0,0,68.75-68.75v-150a68.75,68.75,0,0,0-137.5,0v150A68.82,68.82,0,0,0,250,337.5ZM250,75a43.8,43.8,0,0,1,43.75,43.75v150a43.75,43.75,0,0,1-87.5,0V250H271V225H206.26V200H271V175H206.26V150H271V125H206.26v-6.25A43.8,43.8,0,0,1,250,75Z"/></svg>