<svg id="Layer_1" data-name="Layer 1" xmlns="http://www.w3.org/2000/svg" viewBox="0 0 500 500"><title>Icon_Cellphone_Arrow_Forward_Black</title><circle cx="211.31" cy="387.5" r="12.5"/><polygon points="332.79 296.19 413.69 212.5 332.79 128.81 314.82 146.19 366.84 200 136.31 200 136.31 225 366.84 225 314.82 278.81 332.79 296.19"/><path d="M311.31,325h-200V87.5A12.54,12.54,0,0,1,123.81,75h172.5a12.54,12.54,0,0,1,12.5,12.5V100h25V87.5A37.54,37.54,0,0,0,296.31,50H123.81a37.54,37.54,0,0,0-37.5,37.5v325a37.54,37.54,0,0,0,37.5,37.5h175a37.54,37.54,0,0,0,37.5-37.5V325h-25Zm-12.5,100h-175a12.52,12.52,0,0,1-12.5-12.5V350h200v62.5A12.54,12.54,0,0,1,298.81,425Z"/></svg>