<svg id="Layer_1" data-name="Layer 1" xmlns="http://www.w3.org/2000/svg" viewBox="0 0 500 500"><title>Icon_Stopwatch_Black</title><path d="M395.54,158.15l13-13,4.91,4.91,17.67-17.68L403.6,104.92,385.93,122.6l4.9,4.9L378,140.35A174.05,174.05,0,0,0,274.74,96.89V78.75h25v-25h-75v25h25V97.24c-37,2.38-70.75,14.62-97.9,36.85l15.82,19.34c22.69-18.55,51-28.89,82.08-31.2v31.52h25V121.89A150.07,150.07,0,0,1,411.61,258.75H372.25v25h39.36A150.08,150.08,0,0,1,274.74,420.62V378.75h-25v41.87c-76.87-6.39-137.5-70.87-137.5-149.37a147.55,147.55,0,0,1,19-72.71l17,40.07,23.05-9.72-32.21-76.14L62.76,182.09l9,23.34,35-13.45a172.63,172.63,0,0,0-19.48,79.27c0,96.49,78.52,175,175,175s175-78.51,175-175A174.1,174.1,0,0,0,395.54,158.15Z"/><path d="M348.55,169.79,276.74,239.5a34.66,34.66,0,0,0-14.5-3.23,35,35,0,1,0,35,35,34.6,34.6,0,0,0-2.95-14L366,187.71ZM262.24,281.26a10,10,0,1,1,10-10A10,10,0,0,1,262.24,281.26Z"/></svg>