<svg id="Layer_1" data-name="Layer 1" xmlns="http://www.w3.org/2000/svg" viewBox="0 0 500 500"><title>Icon_Book_Clipboard_Black</title><path d="M362.5,75H350v25h12.5c8.06,0,12.5,4.44,12.5,12.5v300c0,8.06-4.44,12.5-12.5,12.5h-225c-8.06,0-12.5-4.44-12.5-12.5v-300c0-8.06,4.44-12.5,12.5-12.5h40v25h150V50h-150V75h-40C115.42,75,100,90.43,100,112.5v300c0,21.73,15.77,37.5,37.5,37.5h225c21.73,0,37.5-15.77,37.5-37.5v-300C400,90.43,384.58,75,362.5,75Zm-160,0h100v25h-100Z"/><rect x="152.5" y="277.49" width="100" height="25"/><rect x="152.5" y="227.49" width="175" height="25"/><rect x="152.5" y="177.49" width="125" height="25"/></svg>