<svg id="Layer_1" data-name="Layer 1" xmlns="http://www.w3.org/2000/svg" viewBox="0 0 500 500"><title>Icon_Calendar_Rand_History_Money_Black</title><rect x="172.51" y="72.5" width="150" height="25"/><path d="M75,410V175H422.51v62.5h25V72.5H375v-25H350V125h25V97.5h47.51V150H75V97.5h50V125h25V47.5H125v25H50V410a37.54,37.54,0,0,0,37.5,37.5h150v-25H87.5A12.54,12.54,0,0,1,75,410Z"/><path d="M200,300V200H100V300Zm-75-75h50v50H125Z"/><path d="M337.5,227.5c-4.28,0-8.34.8-12.5,1.27V200H225V300h7.69A111.42,111.42,0,0,0,225,340,112.5,112.5,0,1,0,337.5,227.5ZM250,225h50v9.42a112.31,112.31,0,0,0-50,35.75ZM337.5,427.5A87.5,87.5,0,1,1,425,340,87.61,87.61,0,0,1,337.5,427.5Z"/><path d="M372.63,339c2.39-3.86,3.62-8.76,3.62-14.67a27.89,27.89,0,0,0-2.67-12.84,21.89,21.89,0,0,0-7.15-8.16,29.52,29.52,0,0,0-10.5-4.29,61.8,61.8,0,0,0-12.57-1.27H312.23V380H334V352.43h8.35L356.49,380h24.3L363,348.11A25.28,25.28,0,0,0,372.63,339Zm-30.81-3.78H334V315h7.84c4.32,0,7.57.68,9.82,2s3.34,3.79,3.34,7.33C355,331.58,350.61,335.22,341.82,335.22Z"/></svg>