<svg id="Icons" xmlns="http://www.w3.org/2000/svg" viewBox="0 0 500 500"><title>Icon_Document flat surface_SVG_Black</title><path d="M410.11,449.1h-325a12.5,12.5,0,0,1-12.5-12.5V61.6a12.5,12.5,0,0,1,12.5-12.5h325a12.5,12.5,0,0,1,12.5,12.5v375A12.5,12.5,0,0,1,410.11,449.1Zm-312.5-25h300V74.1h-300Z"/><path d="M350.11,374.1h-200v-250H297.79l52.32,52.32Zm-175-25h150V186.78L287.43,149.1H175.11Z"/><rect x="212.61" y="249.1" width="75" height="25"/><rect x="200.11" y="299.1" width="100" height="25"/></svg>