<svg id="Layer_1" data-name="Layer 1" xmlns="http://www.w3.org/2000/svg" viewBox="0 0 500 500"><title>Icon_Podcast_Black</title><path d="M249.19,174.15a52.46,52.46,0,0,0-52.4,52.39V333a52.51,52.51,0,0,0,39.9,50.9V425H206.86v25h83.07V425H261.69V383.86A52.51,52.51,0,0,0,301.6,333V226.54A52.46,52.46,0,0,0,249.19,174.15ZM276.6,333a27.41,27.41,0,1,1-54.81,0V226.54a27.41,27.41,0,0,1,54.81,0Z"/><path d="M251.21,105.15c-68.31,0-121.82,51.73-121.82,117.77,0,17.66,5.27,37.09,16.11,59.43L168,271.41c-9.14-18.82-13.59-34.69-13.59-48.49,0-52.88,41.63-92.77,96.82-92.77C304.1,130.15,344,171.78,344,227c0,16.16-2.74,29.42-8.91,43l22.78,10.3C365.44,263.55,369,246.61,369,227,369,158.67,317.25,105.15,251.21,105.15Z"/><path d="M253,50C153.89,50,76.23,125,76.23,220.7c0,25.56,7.72,53.88,23.57,86.55l22.49-10.94c-14.17-29.17-21.06-53.9-21.06-75.61C101.23,137.62,166.49,75,253,75c83.08,0,145.73,65.25,145.73,151.8,0,25.25-4.3,46-14,67.29l22.78,10.3c11-24.34,16.18-49,16.18-77.59C423.77,127.64,348.78,50,253,50Z"/></svg>