<svg id="Layer_1" data-name="Layer 1" xmlns="http://www.w3.org/2000/svg" viewBox="0 0 500 500"><title>Icon_Stopwatch_Speed_Black</title><rect x="100" y="348.74" width="100" height="25"/><rect x="75" y="298.74" width="125" height="25"/><rect x="75" y="198.74" width="125" height="25"/><rect x="100" y="148.74" width="100" height="25"/><rect x="50" y="248.74" width="150" height="25"/><path d="M404.58,147.34l6.8-7,4.78,4.78,17.68-17.68L406.35,99.91l-17.68,17.68,5,5-6.9,7.13C356.77,104.07,318,88.28,275,86.61V73.74h25v-25H225v25h25V87.37c-15.28,1.09-30.18,3.08-43.43,6.88l-12,3.42,6.86,24,12-3.45c11.1-3.16,23.64-4.89,36.55-5.91v36.38h25V111.61c77.94,3.51,139.38,61.05,148.65,137.13H375v25h49.76c-2.47,82.53-65.46,147.1-147.25,152v-52h-25v52c-14.53-1.11-26.92-3.9-37.57-8.46l-11.5-4.91-9.84,23,11.48,4.94c17.33,7.39,37.74,11,62.42,11,102.35,0,182.5-80.15,182.5-182.5C450,221.66,432.88,179.39,404.58,147.34Z"/><path d="M349.17,167l-70.59,63.39a34.54,34.54,0,0,0-16.08-4.09A35.38,35.38,0,1,0,295.19,249l70.68-63.47ZM262.5,271.25a10,10,0,1,1,10-10A10,10,0,0,1,262.5,271.25Z"/></svg>