<svg id="Icons" xmlns="http://www.w3.org/2000/svg" viewBox="0 0 500 500"><title>Icon_Document txt_SVG_Black</title><path d="M167.7,343.26H148.34V327.05h58.09v16.21H187.07v56.95H167.7Z"/><path d="M234.57,362.62l-18.69-35.57h21.61l5,11.93c1.57,3.38,3.15,7.43,5.17,12.16h.46c1.57-4.73,3.15-8.78,4.5-12.16l4.28-11.93h20.71l-18.69,36.47,19.81,36.69H257.08l-5.85-13c-1.8-3.83-3.38-7.66-5.18-12.16h-.45c-1.58,4.5-3.15,8.33-4.73,12.16l-5.4,13H214.76Z"/><path d="M306.38,343.26H287V327.05h58.09v16.21H325.74v56.95H306.38Z"/><path d="M361.36,447.85H138.86a39.36,39.36,0,0,1-25.37-9.61c-7.71-6.68-12.13-15.93-12.13-25.39V85.35c0-19.95,16.12-35,37.5-35H291.54L398.86,157.68V412.85C398.86,432.81,382.74,447.85,361.36,447.85ZM138.86,75.35c-7.48,0-12.5,4-12.5,10v327.5c0,5,6.31,10,12.5,10h222.5c7.48,0,12.5-4,12.5-10V168L281.18,75.35Z"/><polygon points="376.36 175.35 276.36 175.35 276.36 75.35 301.36 75.35 301.36 150.35 376.36 150.35 376.36 175.35"/></svg>