<svg id="Layer_1" data-name="Layer 1" xmlns="http://www.w3.org/2000/svg" viewBox="0 0 500 500"><title>Icon_Printer_Black</title><path d="M412.5,151.26H350V48.74H150V151.26H87.5A37.54,37.54,0,0,0,50,188.76v125a37.54,37.54,0,0,0,37.5,37.5H150v100H350v-100h62.5c22.07,0,37.5-15.43,37.5-37.5v-125C450,166.69,434.57,151.26,412.5,151.26ZM175,73.74H325v75H175ZM325,426.26H175v-125H325Zm100-112.5c0,8.05-4.44,12.5-12.5,12.5H350v-50H150v50H87.5A12.54,12.54,0,0,1,75,313.76v-125a12.53,12.53,0,0,1,12.5-12.5h325c8.06,0,12.5,4.44,12.5,12.5Z"/><circle cx="387.5" cy="213.75" r="12.5"/><rect x="200" y="326.26" width="100" height="25"/><rect x="200" y="376.26" width="75" height="25"/></svg>