<svg id="Icons" xmlns="http://www.w3.org/2000/svg" viewBox="0 0 500 500"><title>Icon_Play_SVG_Black</title><path d="M250.11,450.8c-110.28,0-200-89.72-200-200s89.72-200,200-200,200,89.72,200,200S360.39,450.8,250.11,450.8Zm0-375c-96.5,0-175,78.51-175,175s78.5,175,175,175,175-78.5,175-175S346.6,75.8,250.11,75.8Z"/><path d="M200.25,328.43a12.5,12.5,0,0,1-12.5-12.5V185.67a12.5,12.5,0,0,1,18.13-11.16l124.86,63a12.5,12.5,0,0,1,.3,22.16l-124.86,67.3A12.52,12.52,0,0,1,200.25,328.43ZM212.75,206v89l85.33-46Z"/></svg>