<svg id="Icons" xmlns="http://www.w3.org/2000/svg" viewBox="0 0 500 500"><title>Icon_Location marker place pin_SVG_Black</title><path d="M250.11,439.1a12.5,12.5,0,0,1-10.43-5.6L132.18,271c-.15-.23-.29-.46-.42-.7-12.35-21.6-19.15-46-19.15-68.7,0-37.19,14.17-71.85,39.91-97.59s60.4-39.91,97.59-39.91S322,78.27,347.7,104s39.91,60.4,39.91,97.59c0,26.83-9.51,49.48-18.82,68.09A13.12,13.12,0,0,1,368,271L260.53,433.5A12.47,12.47,0,0,1,250.11,439.1ZM153.27,257.55l96.84,146.39,96.65-146.1c7.9-15.87,15.85-34.91,15.85-56.24,0-63.08-49.42-112.5-112.5-112.5s-112.5,49.42-112.5,112.5C137.61,219.63,143.31,240,153.27,257.55Zm204.34,6.55h0Z"/><path d="M250.11,264.1a62.5,62.5,0,1,1,62.5-62.5A62.57,62.57,0,0,1,250.11,264.1Zm0-100a37.5,37.5,0,1,0,37.5,37.5A37.54,37.54,0,0,0,250.11,164.1Z"/></svg>