<svg id="Icons" xmlns="http://www.w3.org/2000/svg" viewBox="0 0 500 500"><title>Icon_Document doc_SVG_Black</title><path d="M149,327.05h21.62c22.28,0,37.59,10.36,37.59,36.25s-15.31,36.92-36.47,36.92H149Zm20.49,57.63c10.58,0,18.91-4.27,18.91-21.38s-8.33-20.71-18.91-20.71h-1.13v42.09Z"/><path d="M215.89,363.3c0-24.09,13.73-37.6,34-37.6s34,13.62,34,37.6-13.73,38.27-34,38.27S215.89,387.39,215.89,363.3Zm48.17,0c0-13.28-5.4-20.94-14.18-20.94S235.7,350,235.7,363.3s5.4,21.61,14.18,21.61S264.06,376.58,264.06,363.3Z"/><path d="M291.53,364.2c0-24.54,16.88-38.5,35.34-38.5a32.29,32.29,0,0,1,22.74,9.68l-10.13,12.38c-3.6-3.15-7.2-5.4-12.16-5.4-8.55,0-16,7.88-16,21.16,0,13.74,6.3,21.39,15.76,21.39,5.63,0,10.13-2.93,13.28-6.3l10.13,12.15a30.84,30.84,0,0,1-24.09,10.81C307.74,401.57,291.53,389.19,291.53,364.2Z"/><path d="M361.36,447.85H138.86a39.32,39.32,0,0,1-25.37-9.62,33.86,33.86,0,0,1-12.13-25.38V85.35c0-19.95,16.12-35,37.5-35H291.54L398.86,157.67V412.85C398.86,432.8,382.74,447.85,361.36,447.85ZM138.86,75.35c-7.48,0-12.5,4-12.5,10v327.5c0,4.95,6.31,10,12.5,10h222.5c7.48,0,12.5-4,12.5-10V168L281.18,75.35Z"/><polygon points="376.36 175.35 276.36 175.35 276.36 75.35 301.36 75.35 301.36 150.35 376.36 150.35 376.36 175.35"/></svg>