<svg id="Layer_1" data-name="Layer 1" xmlns="http://www.w3.org/2000/svg" viewBox="0 0 500 500"><title>Icon_Lighting_Electricity_Black</title><path d="M373.65,156.84A12.52,12.52,0,0,0,362.5,150h-57l31.17-83.11A12.49,12.49,0,0,0,325,50H225a12.53,12.53,0,0,0-11.18,6.91l-87.5,175A12.5,12.5,0,0,0,137.5,250h59L150.38,434.47a12.5,12.5,0,0,0,22.23,10.38l200-275A12.5,12.5,0,0,0,373.65,156.84ZM190.24,378.13l34.38-137.6A12.5,12.5,0,0,0,212.5,225H157.73l75-150H307l-31.17,83.11A12.49,12.49,0,0,0,287.5,175H338Z"/></svg>