<svg id="Icons" xmlns="http://www.w3.org/2000/svg" viewBox="0 0 500 500"><title>Icon_Silent_SVG_Black</title><path d="M258.53,209.68a62,62,0,0,0-34.27-16.41V122.8a12.49,12.49,0,0,0-18.46-11L53.93,194.25a12.5,12.5,0,0,0-6.54,11v91.12a12.5,12.5,0,0,0,6.54,11L205.8,389.79a12.49,12.49,0,0,0,18.46-11V308.22c12.71-2,25.08-8.67,34.82-19,11.12-11.82,17.5-26.6,17.5-40.57S270,220.44,258.53,209.68ZM199.26,357.8,72.39,288.93V212.68L199.26,143.8Zm25-75.23V218.64c15.88,3.64,27.32,17.67,27.32,30C251.58,264.2,237.84,278.33,224.26,282.57Z"/><polygon points="446.57 199.92 428.89 182.25 378.02 233.12 327.14 182.25 309.46 199.92 360.34 250.8 309.46 301.68 327.14 319.35 378.02 268.48 428.89 319.35 446.57 301.68 395.69 250.8 446.57 199.92"/></svg>