<svg id="Layer_1" data-name="Layer 1" xmlns="http://www.w3.org/2000/svg" viewBox="0 0 500 500"><title>Icon_General_Waste_Black</title><path d="M414.72,109.34H318V95.62A41,41,0,0,0,277.09,54.7H222.91A41,41,0,0,0,182,95.62v13.72H85.28v25h23.81L126.4,406.6a42.29,42.29,0,0,0,42.33,38.7H331.27a42.35,42.35,0,0,0,42.35-39l17.29-271.92h23.81ZM207,95.62A15.94,15.94,0,0,1,222.91,79.7h54.18A15.94,15.94,0,0,1,293,95.62v13.72H207Zm141.7,308.74a17.41,17.41,0,0,1-17.42,15.94H168.73a17.35,17.35,0,0,1-17.4-15.6L134.14,134.34H365.86Z"/></svg>