<svg id="Icons" xmlns="http://www.w3.org/2000/svg" viewBox="0 0 500 500"><title>Icon_No touching_SVG_Black</title><path d="M397.61,381.6c-37.5,42.5-90,67.5-150,67.5-110,0-200-90-200-200,0-42.5,12.5-80,35-112.5l17.5,17.5c-17.5,30-27.5,62.5-27.5,97.5,0,97.5,77.5,175,175,175,42.5,0,82.5-17.5,115-42.5l-45.47-45.78,17.5-17.5Z"/><path d="M447.61,251.6c0,42.5-12.5,80-35,112.5l-17.5-17.5a176,176,0,0,0,27.5-95c0-97.5-80-175-175-175-42.5-2.5-82.5,15-112.5,42.5l64.68,63.75-17.5,17.5L117.61,136.6l-17.5-17.5h0c35-42.5,90-70,150-70C360.11,49.1,447.61,139.1,447.61,251.6Z"/><path d="M312.61,164.1a30.4,30.4,0,0,0-5,.41V156.6a29.68,29.68,0,0,0-30-30,31,31,0,0,0-8.3,1.13A30.12,30.12,0,0,0,214,132.27a31.58,31.58,0,0,0-6.43-.67,29.68,29.68,0,0,0-30,30v50.53c-6.83-4-15.79-5.09-25.53-2.66-16.37,4.1-25.85,20.64-21.6,37.66l.19.73,32.76,85.7,1-.37c16.27,34.45,47.53,53.41,88.21,53.41,50.47,0,90-30.75,90-70V194.1A29.68,29.68,0,0,0,312.61,164.1Zm5,42.5v110c0,24.81-29.16,45-65,45-39.56,0-57.79-21.84-66.12-40.17l-.79.36-31.09-81.3a7,7,0,0,1,.57-4.53,4.34,4.34,0,0,1,3-2.23c3.1-.78,5.41-.59,6.54-.15.47.18.6.23.8,1l.18.69L184,284.1h8.66c21.62,0,35,18.17,35,35h25a60.08,60.08,0,0,0-50-59.15V161.6a5,5,0,0,1,10,0v77.5h25V141.6a5,5,0,0,1,10,0v95h25v-80a5,5,0,0,1,10,0v82.5h25v-45a5,5,0,0,1,10,0v12.5Z"/></svg>