<svg id="Icons" xmlns="http://www.w3.org/2000/svg" viewBox="0 0 500 500"><title>Icon_List_SVG_Black</title><path d="M250.27,454.27c-1.1,0-2.19,0-3.29,0A202,202,0,0,1,48.24,249.1C50,138.84,140.25,50.34,250.13,50.34c1.09,0,2.17,0,3.25,0h0c111.35,1.76,200.51,93.79,198.74,205.14A202,202,0,0,1,250.27,454.27Zm-.13-378.69C154,75.58,75,153,73.48,249.5a176.72,176.72,0,0,0,353.4,5.61c1.54-97.43-76.47-178-173.9-179.5C252,75.59,251.08,75.58,250.14,75.58Z"/><rect x="195.44" y="176.7" width="166.01" height="25"/><circle cx="152.87" cy="189.2" r="17.58"/><rect x="195.44" y="237.1" width="166.01" height="25"/><path d="M152.87,232a17.58,17.58,0,1,1-17.58,17.58A17.58,17.58,0,0,1,152.87,232Z"/><rect x="195.44" y="297.5" width="166.01" height="25"/><circle cx="152.87" cy="310" r="17.58"/></svg>