<svg id="Layer_1" data-name="Layer 1" xmlns="http://www.w3.org/2000/svg" viewBox="0 0 500 500"><title>Icon_Document_Card_History_Black</title><path d="M323.75,413.76c0,6-5,10-12.5,10H88.75c-6.19,0-12.5-5-12.5-10V86.24c0-6,5-10,12.5-10h222.5c8.06,0,12.5,4.44,12.5,12.5v50h25v-50c0-22.07-15.42-37.5-37.5-37.5H88.75c-21.37,0-37.5,15-37.5,35V413.76c0,18.63,17.53,35,37.5,35h222.5c21.37,0,37.5-15,37.5-35v-15h-25Z"/><rect x="101.25" y="316.25" width="50" height="25"/><rect x="101.25" y="266.25" width="47.5" height="25"/><rect x="101.25" y="216.25" width="50" height="25"/><rect x="101.25" y="103.75" width="200" height="25"/><path d="M421.25,166.25H203.74c-14.39,0-27.49,13.11-27.49,27.49V351.26c0,14.38,13.1,27.49,27.49,27.49H421.25c16.2,0,27.5-12.33,27.5-30v-155C448.75,179.36,435.64,166.25,421.25,166.25Zm2.5,182.49c0,5-1.44,5-2.5,5H203.86a4.64,4.64,0,0,1-2.61-2.49v-110H398.75v-25H201.24V193.86a4.65,4.65,0,0,1,2.5-2.61h217.4a4.63,4.63,0,0,1,2.61,2.49Z"/><rect x="226.25" y="303.75" width="64.99" height="25"/></svg>