<svg xmlns="http://www.w3.org/2000/svg" viewBox="0 0 500 500"><title>Icon_Excel document_SVG_Black</title><g id="Guides_and_type" data-name="Guides and type"><path d="M179.92,357.66l-18.59-35.39h21.51l4.92,11.87c1.57,3.36,3.14,7.39,5.16,12.1h.44c1.57-4.71,3.14-8.74,4.48-12.1l4.26-11.87h20.61l-18.59,36.29,19.71,36.51H202.32l-5.82-13c-1.79-3.81-3.36-7.62-5.15-12.1h-.45c-1.57,4.48-3.14,8.29-4.7,12.1l-5.38,13H160.21Z"/><path d="M230.77,322.27H250v56.67h27.55v16.13H230.77Z"/><path d="M280.06,386l11-13.22c5.15,4.15,11.65,7.06,17,7.06,5.82,0,8.28-1.91,8.28-5.15,0-3.47-3.69-4.59-9.85-7.06l-9.07-3.81c-7.84-3.13-14.68-9.74-14.68-20.27,0-12.43,11.2-22.62,27.11-22.62A35,35,0,0,1,334,330.67l-9.63,12.1c-4.93-3.47-9.19-5.27-14.56-5.27-4.71,0-7.62,1.68-7.62,4.93,0,3.47,4.15,4.71,10.75,7.28l8.85,3.47c9.07,3.59,14.23,9.86,14.23,19.94,0,12.32-10.31,23.29-28.45,23.29A42.12,42.12,0,0,1,280.06,386Z"/><path d="M363.43,442.44H142a39.13,39.13,0,0,1-25.24-9.56c-7.67-6.65-12.07-15.86-12.07-25.26V81.75c0-19.86,16-34.83,37.31-34.83H294L400.74,153.71V407.62C400.74,427.47,384.7,442.44,363.43,442.44ZM142,71.8c-7.44,0-12.43,4-12.43,10V407.62c0,4.93,6.27,9.95,12.43,9.95h221.4c7.44,0,12.43-4,12.43-9.95V164L283.65,71.8Z"/><polygon points="378.35 171.3 278.85 171.3 278.85 71.8 303.73 71.8 303.73 146.43 378.35 146.43 378.35 171.3"/></g></svg>