<svg id="Layer_1" data-name="Layer 1" xmlns="http://www.w3.org/2000/svg" viewBox="0 0 500 500"><title>Icon_Document_Bill_Statement_Black</title><path d="M373.66,339.55q3.6-5.79,3.6-14.67A27.77,27.77,0,0,0,374.61,312a21.89,21.89,0,0,0-7.15-8.16,29.71,29.71,0,0,0-10.5-4.3,62,62,0,0,0-12.59-1.26H313.26v82.22H335V353h8.35l14.17,27.56h24.28L364,348.66A25.38,25.38,0,0,0,373.66,339.55Zm-30.8-3.78H335V315.53h7.85c4.3,0,7.57.68,9.8,2s3.35,3.79,3.35,7.33Q356,335.76,342.86,335.77Z"/><path d="M75,411.25V83.74c0-6,5-10,12.5-10H225v102.5H325v37.5h25V158.47L237.59,48.75H87.5c-21.37,0-37.5,15-37.5,35V411.25c0,18.63,17.53,35,37.5,35H250v-25H87.5C81.31,421.24,75,416.21,75,411.25ZM250,95.81l56.79,55.44H250Z"/><rect x="100" y="301.25" width="100" height="25"/><rect x="100" y="251.25" width="125" height="25"/><rect x="100" y="201.25" width="175" height="25"/><path d="M342.49,236.25A107.5,107.5,0,1,0,450,343.75,107.61,107.61,0,0,0,342.49,236.25Zm0,190A82.5,82.5,0,1,1,425,343.75,82.6,82.6,0,0,1,342.49,426.25Z"/></svg>