<svg id="Layer_1" data-name="Layer 1" xmlns="http://www.w3.org/2000/svg" viewBox="0 0 500 500"><title>Icon_Climate_Change_B_Black</title><path d="M321.69,121.3A162.07,162.07,0,0,0,210.26,77.16c-89.73,0-162.73,73-162.73,162.74s73,162.72,162.73,162.72a162.19,162.19,0,0,0,84-23.31l-12.94-21.39a137.23,137.23,0,0,1-71,19.7c-75.94,0-137.73-61.79-137.73-137.72a137.27,137.27,0,0,1,4.2-33.14c9,1.46,18.83.05,30-4.7.84-.36,2.17-.9,1.07-.39,2.33,2.27,6.47,6.25,12.78,7.16a32.75,32.75,0,0,0-.29,5.78c.43,8.89,5.31,15.63,8.87,20.56l1.8,2.51c4.41,6.42,6.22,13.16,4.95,18.46A36.65,36.65,0,0,1,134.7,260c-1.23,3.59-2.77,8.05-2.76,13.38,0,5.73,1.9,10.71,3.28,14.35l3.23,8.4c5.45,14.18,10.6,27.56,13.86,39.4A18,18,0,0,0,161,349.77a24.79,24.79,0,0,0,12.79,3c11.28,0,23.6-4.89,28.14-6.89,6.94-3,16.27-8.54,21.29-17.58a54.05,54.05,0,0,0,3.19-7.25c.58-1.56,1.46-3.9,2.87-4.91,2.62-1.31,7.46-3.78,10.06-9.54a18.08,18.08,0,0,0,.38-13.55c.51-.27,1-.51,1.55-.76a54.07,54.07,0,0,0,5.15-2.76,34,34,0,0,0,15.65-29.51,51.89,51.89,0,0,0-2.89-14.11,34.85,34.85,0,0,1-1.78-7.33c-.21-3.15,1.16-7,3.83-10.74,3-4.15,7-7.91,11.17-11.92,6.37-6,13.6-12.89,18.49-22.41l2-3.56c3.26-5.5,7.73-13,7.3-21.58-.36-6.91-3.43-10.92-6-13.07s-6.77-4.41-13.26-3.71c-4.22.47-7.54,2.49-11,4.67a25.38,25.38,0,0,1-3.24.88c-3-5.47-7.19-9.53-10.93-13.19l-3.23-3.2c-4.85-5.12-9.09-11.74-13.36-20.82-.87-1.86-1.64-3.71-2.42-5.57a102.57,102.57,0,0,0-4.73-10.17,136.8,136.8,0,0,1,72.49,35.29Zm-83.34,40.58c3.07,3,6,5.83,7.15,8.71a18.79,18.79,0,0,0,4.31,7c3.55,3.56,8.31,4.9,14.27,5,1.51-.05,3-.19,4.55-.39-2.94,5.71-8,10.52-13.4,15.62-4.89,4.62-9.95,9.43-14.33,15.56-6.09,8.54-9,17.84-8.44,26.85a55.73,55.73,0,0,0,2.86,13.14,33.47,33.47,0,0,1,1.8,7.57,8.83,8.83,0,0,1-4,7.44,24.24,24.24,0,0,1-2.77,1.44,48.27,48.27,0,0,0-5.9,3.25c-6.71,4.47-10.53,11.11-10.48,18.21a20.66,20.66,0,0,0,.57,4.54s0,0,0,0c-7.09,4.64-9.75,11.74-11.52,16.45a27,27,0,0,1-1.62,3.88c-1.24,2.23-4.78,4.79-9.47,6.84a68.33,68.33,0,0,1-16,4.69c-3.91-14-9.09-27.49-14.12-40.55l-3.17-8.28c-.74-1.95-1.66-4.37-1.66-5.57a22.18,22.18,0,0,1,1.39-5.17,60.26,60.26,0,0,0,1.89-6.23c2.93-12.3-.14-25.95-8.66-38.35l-2.16-3.05c-1.73-2.37-4.08-5.64-4.15-7.11a21.69,21.69,0,0,1,.34-2.86,40.48,40.48,0,0,0,.66-7.25c-.19-10.76-8-19.53-17.84-19.94a29.33,29.33,0,0,0-3.38.24c-2.55-2.46-7.19-6.83-14.6-7.44-5.72-.2-10.45,1.61-14.27,3.24a37.35,37.35,0,0,1-10.67,2.56A138,138,0,0,1,185,104.59c2.54.63,5.06,1.31,7.62,1.79,6.56,1.22,10.72,2.1,13.71,4.77,3.26,2.9,5.09,7.29,7.41,12.84.91,2.22,1.84,4.42,2.87,6.59C222,142.15,227.7,150.84,234.47,158Z"/><path d="M427.68,295.76V148.13a47.85,47.85,0,0,0-95.7,0V295.76a72.64,72.64,0,1,0,95.7,0ZM379.83,397.84a47.69,47.69,0,0,1-47.65-47.63,47.18,47.18,0,0,1,19.67-38.38l5.13-3.74v-160a22.85,22.85,0,0,1,45.7,0v9.47H388.76v25h13.92v17.75H388.76v25h13.92v82.74l5.13,3.74a47.17,47.17,0,0,1,19.66,38.38A47.68,47.68,0,0,1,379.83,397.84Z"/><path d="M392.33,320.51V243.15h-25v77.36a33.12,33.12,0,1,0,25,0Zm-12.5,38.68a8.11,8.11,0,1,1,8.12-8.1A8.12,8.12,0,0,1,379.83,359.19Z"/></svg>