<svg xmlns="http://www.w3.org/2000/svg" viewBox="0 0 500 500"><title>Icon_Foreign terms_SVG_Black</title><g id="Guides_and_type" data-name="Guides and type"><path d="M254.58,452.82l-3.23,0A201,201,0,0,1,114.7,107.53a199.57,199.57,0,0,1,143-56.6c110.8,1.75,199.51,93.32,197.75,204.12C453.73,364.76,363.92,452.82,254.58,452.82ZM254.46,76a175.84,175.84,0,0,0-2.71,351.66c96.93,1.51,177.07-76.08,178.6-173S354.27,77.58,257.32,76Z"/><path d="M239.58,216.56a233.16,233.16,0,0,1-52.67-5.81L193,186.63c.62.16,62.23,15.25,112.57-7.89L316,201.34C290.2,213.2,262.61,216.56,239.58,216.56Z"/><path d="M233.94,310.51c-32.64-59.73-6.2-141.14-5.06-144.58l23.61,7.84-11.81-3.92,11.81,3.91c-.24.74-24.13,74.66,3.28,124.82Z"/><path d="M262.35,342.56l-1.59-24.83c20.7-1.32,34.76-6.7,40.66-15.54C306.19,295,305.59,284,300,275.9A35,35,0,0,0,284.65,264c-9.17,19.78-19.87,37.89-34.46,52.43-7.1,7.08-14.11,12-21.42,14.95-10.12,4.12-20.75,4.47-29.94,1-15.46-5.86-25.27-23.2-22.34-39.47,1.42-7.89,5.48-15.42,12.39-23,9.77-10.74,22.77-19.46,38.63-25.92,14.8-6,29-8.8,42.3-8.21,1.93-4.73,3.83-9.53,5.72-14.36l23.17,9q-2.1,5.38-4.24,10.72a59.22,59.22,0,0,1,26,20.62c11.37,16.39,12.06,38.7,1.68,54.26C311.6,331.75,291.49,340.69,262.35,342.56ZM258.47,261A86.48,86.48,0,0,0,236.89,267c-12.39,5.05-22.35,11.65-29.6,19.61-3.63,4-5.75,7.61-6.31,10.72a11.35,11.35,0,0,0,6.68,11.81c3.24,1.23,7.52.95,11.73-.76s8.52-4.82,13.24-9.53C243,288.53,251.22,275.52,258.47,261Z"/></g></svg>