<svg id="Icons" xmlns="http://www.w3.org/2000/svg" viewBox="0 0 500 500"><title>Icon_Hyphens and dashes_SVG_Black</title><path d="M250.27,453.75c-1.1,0-2.19,0-3.29,0C135.7,452,46.6,360,48.36,248.71a201.86,201.86,0,0,1,205-198.62c111.28,1.76,200.38,93.73,198.62,205A201.85,201.85,0,0,1,250.27,453.75ZM250.1,75.06a176.84,176.84,0,0,0-176.74,174c-1.54,97.5,76.52,178.08,174,179.63A176.84,176.84,0,0,0,427,254.71c1.55-97.5-76.52-178.08-174-179.62h0Q251.54,75.06,250.1,75.06Z"/><rect x="146.29" y="236.7" width="51.22" height="25"/><rect x="222.47" y="236.7" width="51.22" height="25"/><rect x="297.76" y="236.7" width="51.22" height="25"/></svg>