<svg id="Icons" xmlns="http://www.w3.org/2000/svg" viewBox="0 0 500 500"><title>Icon_Sound mute_SVG_Black</title><path d="M225.11,211.93V176.6a12.5,12.5,0,0,0-18.46-11l-87.5,47.5a12.49,12.49,0,0,0-6.54,11v52.5a12.51,12.51,0,0,0,6.54,11l87.5,47.5a12.51,12.51,0,0,0,18.46-11V288.73c20.06-2.87,35-22.53,35-39.63C260.11,230.71,244.26,214.4,225.11,211.93Zm-25,91.16-62.5-33.93V231.54l62.5-33.93Zm25-40.2V237.54c5.24,1.9,10,6.45,10,11.56C235.11,253.52,230.81,260.19,225.11,262.89Z"/><polygon points="381.45 210.44 363.77 192.76 322.61 233.92 281.45 192.76 263.77 210.44 304.93 251.6 263.77 292.76 281.45 310.44 322.61 269.28 363.77 310.44 381.45 292.76 340.29 251.6 381.45 210.44"/></svg>