<svg id="Icons" xmlns="http://www.w3.org/2000/svg" viewBox="0 0 500 500"><title>Icon_Direction marker sign_SVG_Black</title><path d="M410.11,176.6h-265a12.55,12.55,0,0,1-6.63-1.9l-60-37.5a12.51,12.51,0,0,1,0-21.2l60-37.5a12.55,12.55,0,0,1,6.63-1.9h265a12.5,12.5,0,0,1,12.5,12.5v75A12.5,12.5,0,0,1,410.11,176.6Zm-261.42-25H397.61v-50H148.69l-40,25Z"/><rect x="237.61" y="301.6" width="25" height="147.5"/><rect x="237.61" y="49.1" width="25" height="40"/><path d="M317.61,274.1H150.11a12.5,12.5,0,0,1-12.5-12.5v-50a12.5,12.5,0,0,1,12.5-12.5h170a12.51,12.51,0,0,1,8.41,3.25l27.5,25a12.5,12.5,0,0,1-.41,18.86l-30,25A12.49,12.49,0,0,1,317.61,274.1Zm-155-25H313.08l15.5-12.91-13.3-12.09H162.61Z"/></svg>