<svg id="Icons" xmlns="http://www.w3.org/2000/svg" viewBox="0 0 500 500"><title>Icon_Heart of Africa_SVG_Black</title><path d="M247.11,448.91a26.67,26.67,0,0,1-14.5-3.89c-8.88-4.88-13.17-15.65-13.58-24.32-1.92-9.55-6.91-19.31-12.17-29.62-8.25-16.14-16.77-32.84-15.22-51.93.12-6.59,2.25-12.59,4.13-17.91,1.71-4.83,3.33-9.4,3.33-13.83,0-5.58-3.76-10.79-8.12-16.81-4.7-6.5-10-13.86-11.61-23.43l-.17-1v-1c0-2.38.18-4.63.35-6.63.34-4.1.43-6.22-.22-7.86a45.27,45.27,0,0,0-8.8-4.69c-1.35-.61-2.74-1.23-4.07-1.89-10.51-4.58-19.54-2.48-31,.18-7.35,1.71-15,3.48-23.47,3.48-22.08,0-30.26-12.29-36.82-22.17-1.59-2.38-3.09-4.64-4.81-6.84-.85-.84-1.69-1.64-2.52-2.43-6.93-6.59-15.55-14.79-15.55-30.75v-2l.64-1.91c2.23-6.69,4.34-13,4.34-18.46a8.18,8.18,0,0,0-.61-2.28,31.37,31.37,0,0,1-1.87-9.34c-1.92-18.34,11-30.39,20.44-39.23,4.38-4.1,8.92-8.33,10.71-11.92l.46-.84c1.26-2.09,2.46-4.31,3.74-6.67,6.26-11.55,14.06-25.91,32-29,11.8-2.37,20.92-4.65,32.47-9.27l.78-.31,2.22-.56c12-3,34.31-8.67,46.39,7.44l.68.9.5,1a45.15,45.15,0,0,1,3.12,9.19,32.08,32.08,0,0,0,3,8.46c3.92,3.91,9.75,9.5,14,10.93l.68.26a10.06,10.06,0,0,0,1.22.4c.71-.48,1.91-1.54,2.83-2.35a48.11,48.11,0,0,1,10.65-7.58l.94-.42c12.42-5,25.83-.74,37.67,3a108.57,108.57,0,0,0,13.77,3.74l.4.07c18.55,3.71,23.56,16.31,28.42,28.49l.9,2.26.2.82c2.29,9.16,4.46,17.81,8.24,23.48l.63.95.45,1.05c6.34,14.79,15.12,28.71,27.61,43.76,1.69,1.68,2.83,2.62,7.18,4.06l.84.28.79.4c2,1,5.58-.27,11.21-2.48a82.07,82.07,0,0,1,10.06-3.44l15.45-3.86v15.93c0,22.07-14.41,39.47-28.51,53.57-2.86,2.85-6,5.65-9.05,8.35-4.81,4.28-9.79,8.71-13.5,13.26l-19.29-15.71c5-6.11,11-11.44,16.27-16.14,2.9-2.58,5.64-5,8-7.35,5.26-5.26,10.58-11,14.58-17.1A28.32,28.32,0,0,1,358.58,217c-8.93-3.09-12.92-6.59-16.54-10.2l-.76-.84c-14-16.79-24-32.5-31.3-49.33-5.56-8.82-8.26-19.26-10.81-29.43l-.28-.72c-4.66-11.69-5.39-12.33-10-13.26a128.16,128.16,0,0,1-16.95-4.52c-7.6-2.4-16.18-5.11-20.51-3.78a30.53,30.53,0,0,0-4.82,3.73c-5,4.36-14.14,12.44-29.39,6.5-10.1-3.49-18.7-12.09-24.41-17.81l-.87-.87-.68-1c-4.23-6.34-5.81-12.49-7-17-.25-1-.51-2-.77-2.87-1.59-.74-6.23-1.16-19.73,2.25l-.64.16c-12.95,5.12-23.5,7.74-36.22,10.29l-.39.07c-5.57.93-8.69,5.7-14.47,16.37-1.28,2.36-2.61,4.8-4,7.23-3.81,7.36-9.88,13-15.75,18.52C83.13,139,78.91,143.61,79.6,149.15l.09.77v.78A8.18,8.18,0,0,0,80.3,153a30.48,30.48,0,0,1,1.88,10.15c0,8.62-2.46,16.79-4.88,24.13.43,3.87,2.52,6,7.72,11,1.14,1.08,2.31,2.19,3.47,3.35l.49.49.43.54c2.58,3.23,4.67,6.37,6.51,9.14,5.65,8.5,7.36,11.07,16.11,11.07,5.66,0,11.57-1.38,17.83-2.84,12.78-3,28.7-6.68,46.93,1.42l.51.24c.93.47,2.13,1,3.39,1.57,5,2.23,11.83,5.29,17.25,10.71l.87.87.69,1c6.13,9.2,5.39,18.17,4.84,24.72-.1,1.21-.2,2.36-.24,3.43.94,3.6,3.91,7.71,7,12,5.72,7.91,12.83,17.75,12.83,31.38,0,8.71-2.63,16.15-4.75,22.14-1.4,3.93-2.71,7.64-2.71,10.2v.57l0,.56C215.35,353,222,366,229,379.77c6,11.76,12.22,23.93,14.66,37.36l.2,1.1v1.12a9.31,9.31,0,0,0,1.18,4.1l.1.05.65.43c1.1.47,5.55-.3,8.22-.76a71.55,71.55,0,0,1,12.24-1.33c2.31,0,2.31,0,6.13-3.82,2.76-2.76,5.35-5.55,7.69-8.31L299,425.84c-2.78,3.25-5.82,6.54-9,9.77-5.46,5.46-11.1,11.11-23.72,11.11a51.11,51.11,0,0,0-8,1A65.08,65.08,0,0,1,247.11,448.91Zm-1.89-25.23Z"/><path d="M414.94,393a12.43,12.43,0,0,1-9.62-20.31c12.57-15.36,18.42-28.33,18.42-40.84A29.17,29.17,0,0,0,395,303c-8.48,0-17.19,5.67-22.82,14.82l-3.53,7a12.43,12.43,0,0,1-11.12,6.87h0a12.44,12.44,0,0,1-11.13-6.88l-3.51-7C337.21,308.71,328.5,303,320,303a29.17,29.17,0,0,0-28.78,28.78c0,12.51,5.85,25.48,18.42,40.84a12.44,12.44,0,1,1-19.25,15.75c-10.32-12.61-24-32.2-24-56.59A54,54,0,0,1,320,278.17c14,0,27.42,6.5,37.47,17.82C367.54,284.67,381,278.17,395,278.17a54,54,0,0,1,53.66,53.65c0,24.39-13.72,44-24.05,56.59A12.38,12.38,0,0,1,414.94,393Z"/><path d="M357.49,445.43a12.45,12.45,0,0,1-7.23-2.31c-9.15-6.54-16.94-13-24.46-19.31l-.14-.11c-9.09-7.79-18.13-16.84-26.88-25.58a157.46,157.46,0,0,1-13.62-16.49l20.69-13.8a142.35,142.35,0,0,0,10.48,12.65c8.43,8.44,17.11,17.12,25.46,24.28,5,4.19,10.18,8.48,15.7,12.74,5.52-4.26,10.67-8.55,15.7-12.74,8.35-7.16,17-15.84,25.43-24.24a141.78,141.78,0,0,0,10.51-12.69l20.7,13.8a158.4,158.4,0,0,1-13.58,16.44c-8.79,8.79-17.84,17.84-26.93,25.63l-.13.11c-7.53,6.28-15.32,12.77-24.47,19.31A12.45,12.45,0,0,1,357.49,445.43Z"/></svg>