<svg id="Icons" xmlns="http://www.w3.org/2000/svg" viewBox="0 0 20.1 20.1"><title>Icon_Airplane_SVG_Black</title><path d="M6.56,17.81V14.92l2-1.68-.3-2.77L2.16,12V10.05A1.48,1.48,0,0,1,3.1,8.68L8.66,6.6V4a1.42,1.42,0,0,1,1.5-1.4A1.49,1.49,0,0,1,11.66,4V6.6l5.57,2.08a1.35,1.35,0,0,1,.93,1.37V12l-6.08-1.52-.39,2.68,2,1.67v3l-3.59-1.51Zm3.49-2.6,2.61,1.09v-1l-2-1.73.61-4.32,5.92,1.48v-.66c0-.17-.07-.38-.22-.41L10.66,7.3V4a.49.49,0,0,0-.5-.4c-.3,0-.5.16-.5.4V7.3L3.43,9.62a.53.53,0,0,0-.27.43v.66L9.09,9.23l.5,4.43-2,1.72v.91Z"/></svg>