<svg id="Icons" xmlns="http://www.w3.org/2000/svg" viewBox="0 0 500 500"><title>Icon_Fast forward circle_SVG_Black</title><path d="M250.11,451.6c-110.28,0-200-89.72-200-200s89.72-200,200-200,200,89.72,200,200S360.39,451.6,250.11,451.6Zm0-375c-96.5,0-175,78.51-175,175s78.5,175,175,175,175-78.5,175-175S346.6,76.6,250.11,76.6Z"/><path d="M242.61,339.1a12.49,12.49,0,0,1-12.5-12.5V293.54l-48.63,28.82a12.5,12.5,0,0,1-18.87-10.76v-125A12.5,12.5,0,0,1,181.77,176l48.34,30.43V176.6a12.5,12.5,0,0,1,19.49-10.36l107.5,72.5a12.5,12.5,0,0,1,.32,20.5l-107.5,77.5A12.44,12.44,0,0,1,242.61,339.1Zm0-80a12.5,12.5,0,0,1,12.5,12.5v30.58l73.15-52.73-73.15-49.34v29A12.5,12.5,0,0,1,236,239.68l-48.34-30.43v80.42l48.63-28.82A12.5,12.5,0,0,1,242.61,259.1Z"/></svg>