<svg id="Icons" xmlns="http://www.w3.org/2000/svg" viewBox="0 0 500 500"><title>Icon_Africa continent_SVG_Black</title><path d="M268.36,451.3a26.81,26.81,0,0,1-14.57-3.9c-8.92-4.91-13.24-15.74-13.65-24.45-1.93-9.59-6.94-19.4-12.23-29.76-8.29-16.23-16.85-33-15.29-52.19.12-6.63,2.25-12.66,4.14-18,1.73-4.86,3.35-9.45,3.35-13.9,0-5.61-3.78-10.84-8.16-16.9-4.72-6.53-10.07-13.93-11.67-23.54l-.17-1v-1c0-2.39.19-4.66.36-6.66.34-4.13.43-6.26-.23-7.9-2.3-1.8-5.75-3.34-8.84-4.72-1.36-.61-2.75-1.24-4.09-1.89-10.57-4.61-19.65-2.5-31.12.17-7.38,1.72-15,3.5-23.58,3.5-22.2,0-30.41-12.35-37-22.28-1.59-2.39-3.1-4.66-4.83-6.88-.85-.84-1.7-1.64-2.53-2.44-7-6.62-15.63-14.86-15.63-30.9v-2l.64-1.92c2.24-6.73,4.36-13.08,4.36-18.55a8.32,8.32,0,0,0-.61-2.3,31.24,31.24,0,0,1-1.88-9.38C73.19,134,86.16,121.87,95.66,113c4.41-4.12,9-8.38,10.77-12l.46-.84c1.26-2.1,2.47-4.34,3.76-6.7,6.29-11.61,14.12-26,32.18-29.16,11.87-2.38,21-4.68,32.64-9.32l.79-.31,2.22-.56c12.05-3,34.48-8.72,46.63,7.48l.68.9.5,1a44.6,44.6,0,0,1,3.13,9.24,33.33,33.33,0,0,0,3,8.51c3.95,3.92,9.8,9.54,14.12,11l.69.26a9.52,9.52,0,0,0,1.23.4c.7-.48,1.92-1.55,2.84-2.36A48.33,48.33,0,0,1,262,82.92l1-.42c12.48-5,26-.74,37.85,3a108.47,108.47,0,0,0,13.84,3.76l.4.07c18.64,3.73,23.69,16.39,28.56,28.64l.91,2.27.21.82c2.3,9.2,4.47,17.9,8.27,23.6l.64,1,.45,1.06c6.37,14.86,15.19,28.85,27.75,44,1.7,1.68,2.85,2.63,7.21,4.08l.85.28.79.4c2,1,5.6-.27,11.27-2.49a84,84,0,0,1,10.11-3.46l15.53-3.88v16c0,22.19-14.49,39.67-28.66,53.84-2.87,2.87-6,5.68-9.09,8.4-10.16,9-19.75,17.55-19.75,27.76a87.34,87.34,0,0,0,1.12,10.73,116,116,0,0,1,1.36,12.74c2.88,13.42-.44,27.17-8.64,35.37a45.93,45.93,0,0,1-9.33,6.75c-1.69,1-4.48,2.68-5.23,3.59l-.2.62-.4.79c-1.18,2.36-1.18,2.8-1.18,4.41v.62l-.06.63c-2.54,25.41-14.35,48.34-36.1,70.09-5.49,5.49-11.16,11.16-23.84,11.16a51.54,51.54,0,0,0-8.08,1A64.82,64.82,0,0,1,268.36,451.3Zm-2.06-25.58.1,0,.64.43c1.11.47,5.59-.3,8.26-.76a71.25,71.25,0,0,1,12.31-1.34c2.32,0,2.32,0,6.16-3.84,17.58-17.57,26.75-34.86,28.84-54.34a30.86,30.86,0,0,1,3.47-14.2c3.24-8.53,10.42-12.82,15.72-16a31.45,31.45,0,0,0,4.47-3c1.39-1.39,3.33-6.67,1.71-13.13l-.37-1.49V316.6a87.34,87.34,0,0,0-1.12-10.73,102.8,102.8,0,0,1-1.38-14.27c0-21.44,15.6-35.31,28.14-46.45,2.92-2.59,5.67-5,8-7.39,5.29-5.29,10.64-11.07,14.66-17.18a28.51,28.51,0,0,1-15.54-2.38c-9-3.11-13-6.63-16.62-10.26l-.4-.4-.36-.44c-14.07-16.88-24.09-32.66-31.46-49.58-5.6-8.86-8.31-19.35-10.86-29.57l-.29-.72c-4.68-11.75-5.41-12.39-10.06-13.33a129.27,129.27,0,0,1-17-4.55c-7.64-2.41-16.26-5.13-20.6-3.8a30,30,0,0,0-4.85,3.76c-5,4.37-14.21,12.49-29.54,6.53-10.14-3.52-18.79-12.16-24.53-17.9l-.87-.87-.69-1c-4.25-6.36-5.84-12.54-7-17-.25-1-.52-2-.77-2.88-1.6-.74-6.27-1.17-19.83,2.26l-.65.16c-13,5.14-23.61,7.78-36.4,10.34l-.4.07c-5.59.93-8.72,5.73-14.54,16.46-1.28,2.37-2.61,4.82-4.06,7.26-3.83,7.4-9.93,13.1-15.83,18.61-9.17,8.57-13.41,13.22-12.72,18.79l.1.77v.78a8.32,8.32,0,0,0,.61,2.3,30.67,30.67,0,0,1,1.89,10.2c0,8.66-2.47,16.87-4.91,24.25.44,3.88,2.53,6.06,7.77,11,1.14,1.09,2.31,2.2,3.48,3.37l.49.49.43.54c2.6,3.25,4.7,6.4,6.55,9.19,5.68,8.54,7.39,11.12,16.19,11.12,5.68,0,11.62-1.38,17.91-2.85,12.85-3,28.85-6.71,47.17,1.43l.51.24c.94.47,2.14,1,3.41,1.57,5,2.25,11.89,5.32,17.34,10.77l.87.88.69,1c6.17,9.25,5.42,18.26,4.87,24.84-.1,1.22-.2,2.38-.24,3.45.94,3.62,3.93,7.75,7.07,12.1,5.75,7.95,12.9,17.84,12.9,31.54,0,8.75-2.65,16.23-4.78,22.25-1.4,3.95-2.72,7.68-2.72,10.25v.57l-.05.56c-1.11,12.21,5.56,25.27,12.61,39.09,6,11.82,12.28,24,14.74,37.54l.2,1.11v1.13A9.27,9.27,0,0,0,266.3,425.72Z"/></svg>