<svg id="Layer_1" data-name="Layer 1" xmlns="http://www.w3.org/2000/svg" viewBox="0 0 500 500"><title>Icon_Waterfall_Black</title><path d="M428.88,354.76c-1.73-.72-3.57-1.06-5.34-1.63,3.15-15.22.63-29.93-8.05-42a59.07,59.07,0,0,0-44.59-23.78,55.27,55.27,0,0,0-29.25-33.57V81.25h-.21a11.09,11.09,0,0,1,11-10.23h96.68V46H352.43A36.21,36.21,0,0,0,318.9,68.75H191.83A36.21,36.21,0,0,0,158.3,46H50V71H158.3A11.19,11.19,0,0,1,169.48,82.2v43.43h.08v131.5a55.44,55.44,0,0,0-37,38.55c-32,1.64-52.63,23.09-54.64,57-2,.58-4,1-5.92,1.77-.3.12-.58.24-.87.34a.81.81,0,0,1-.21.1,66.76,66.76,0,0,0-21.37,14.31l17.6,17.72s0,0,0-.05a42.46,42.46,0,0,1,13.55-9,41.76,41.76,0,0,1,45.41,9,66.69,66.69,0,0,0,21.64,14.47,67.63,67.63,0,0,0,51.09,0,66.45,66.45,0,0,0,21.62-14.45,42.31,42.31,0,0,1,13.52-9,41.5,41.5,0,0,1,31.9,0l.56.22a42.38,42.38,0,0,1,13,8.79v0a66.73,66.73,0,0,0,21.6,14.43,66.94,66.94,0,0,0,51.11,0,67,67,0,0,0,21.63-14.45,41.76,41.76,0,0,1,45.43-9,42.27,42.27,0,0,1,13.6,9.05l17.58-17.77A67.55,67.55,0,0,0,428.88,354.76Zm-51.11,0a67.07,67.07,0,0,0-21.58,14.43,41.75,41.75,0,0,1-59.06,0,66.76,66.76,0,0,0-94.29,0,41.75,41.75,0,0,1-59,0,66.91,66.91,0,0,0-21.58-14.41,65.78,65.78,0,0,0-18.64-4.39c2.42-19.49,13.22-29.79,32.95-29.79a38.18,38.18,0,0,1,5,.49L155.33,323l.4-14a30.28,30.28,0,0,1,27.49-29.27l11.34-1.07V93.75H316.25v31.88h.4V272.12l9.29,2.46a30.28,30.28,0,0,1,22.38,27l1,14L363.11,313c11.22-2.19,25.11,3.1,32.1,12.82,5,6.87,6,15.09,3.57,24.32A65.85,65.85,0,0,0,377.77,354.76Z"/><path d="M342.61,425.83a41.74,41.74,0,0,1-45.48-9.08,66.67,66.67,0,0,0-72.7-14.38,66,66,0,0,0-21.56,14.43,41.87,41.87,0,0,1-45.46,9,41.34,41.34,0,0,1-13.55-9.06l-17.7,17.68a66.88,66.88,0,0,0,21.64,14.48,67.82,67.82,0,0,0,51.09,0,67.06,67.06,0,0,0,21.64-14.43,41.54,41.54,0,0,1,45.4-9.06,42.41,42.41,0,0,1,13.57,9,66.9,66.9,0,0,0,21.6,14.45,67,67,0,0,0,51.11,0,67.36,67.36,0,0,0,21.59-14.38l-17.6-17.78A41.67,41.67,0,0,1,342.61,425.83Z"/><rect x="214.16" y="200.68" width="25" height="114.45"/><rect x="268.31" y="121.48" width="25" height="116.11"/></svg>