<svg id="Layer_1" data-name="Layer 1" xmlns="http://www.w3.org/2000/svg" viewBox="0 0 500 500"><title>Icon_Sustainable_Energy_Black</title><path d="M446.93,213.87l-32.25,32.48c-2-89.25-75-161.27-164.73-161.27A165.07,165.07,0,0,0,99,183.47l22.87,10.11A140,140,0,0,1,250,110.08c75.79,0,137.55,60.62,139.71,135.9l-33.22-33-17.6,17.73L402.57,294l62.11-62.53Z"/><path d="M250,389.92c-75.55,0-137.14-60.24-139.67-135.18l33.26,33L161.16,270l-63.74-63.3-62.1,62.55,17.75,17.62,32.2-32.45C87.66,343.33,160.52,414.92,250,414.92a165.19,165.19,0,0,0,150.64-97.73L377.76,307A140.16,140.16,0,0,1,250,389.92Z"/><polygon points="256.98 159.59 192.8 260.62 258.28 260.62 218.51 323.27 239.61 336.65 303.77 235.62 238.31 235.62 278.07 173.02 256.98 159.59"/></svg>