<svg id="Layer_1" data-name="Layer 1" xmlns="http://www.w3.org/2000/svg" viewBox="0 0 500 500"><title>Icon_Document_Card_Statement_Black</title><rect x="100" y="302.49" width="50" height="25"/><rect x="100" y="252.49" width="50" height="25"/><rect x="100" y="202.49" width="175" height="25"/><path d="M422.5,250H350V159.72L237.59,50H87.5C66.13,50,50,65,50,85V412.5c0,18.63,17.53,35,37.5,35H150v-25H87.5c-6.19,0-12.5-5-12.5-10V85c0-6,5-10,12.5-10H225V177.49H325V250H202.49C188.1,250,175,263.11,175,277.49v145c0,14.4,13.1,27.51,27.49,27.51H420c10.73,0,24.57-4.25,29.62-24.49l.38-148C450,263.11,436.89,250,422.5,250ZM250,152.49V97.06l56.79,55.43ZM425,420.85c-1.18,4.15-2.15,4.15-5,4.15H202.61a4.67,4.67,0,0,1-2.61-2.51v-95h50v-25H200V277.61a4.68,4.68,0,0,1,2.5-2.61H325v72.33l-31.16-31.17-17.68,17.68L335,392.68l58.84-58.84-17.68-17.68L350,342.32V275h72.39a4.67,4.67,0,0,1,2.61,2.49Z"/><rect x="225" y="377.49" width="75" height="25"/></svg>