<svg id="Layer_1" data-name="Layer 1" xmlns="http://www.w3.org/2000/svg" viewBox="0 0 500 500"><title>Icon_Weather_Rain_Black</title><path d="M367.43,161.76C365.3,102.09,317.79,55.94,257.51,55.94c-50.61,0-92.51,30.82-107.14,77.64A80,80,0,0,0,155,293.44H357.51c36.58,0,67.49-29.76,67.49-65C425,195.84,399.07,166.88,367.43,161.76Zm-9.92,106.68H155c-30.84,0-55-24.14-55-55a54.42,54.42,0,0,1,55-55h15l2.18-9.79c9.15-41.14,42.64-67.73,85.31-67.73,48.46,0,85,36.55,85,85v20h15c23.92,0,42.49,22.85,42.49,42.5C400,249.77,380.14,268.44,357.51,268.44Z"/><rect x="322.05" y="325.96" width="55.9" height="25" transform="translate(-109.26 500.15) rotate(-63.43)"/><rect x="247.05" y="325.96" width="55.9" height="25" transform="translate(-150.72 433.07) rotate(-63.43)"/><rect x="172.05" y="325.96" width="55.9" height="25" transform="translate(-192.17 365.98) rotate(-63.43)"/><rect x="97.05" y="325.96" width="55.9" height="25" transform="translate(-233.63 298.9) rotate(-63.43)"/><rect x="272.05" y="400.96" width="55.9" height="25" transform="translate(-203.98 496.89) rotate(-63.43)"/><rect x="197.05" y="400.96" width="55.9" height="25" transform="translate(-245.44 429.8) rotate(-63.43)"/><rect x="122.05" y="400.96" width="55.9" height="25" transform="translate(-286.9 362.72) rotate(-63.43)"/></svg>