<svg id="Icons" xmlns="http://www.w3.org/2000/svg" viewBox="0 0 500 500"><title>Icon_Youtube_SVG_Black</title><path d="M248.32,400c-4.9,0-120.45-.09-151.87-7.94q-.47-.12-.93-.27C75.2,385,60,368.28,56.81,349.13l0-.16a623.65,623.65,0,0,1,0-195.46c3.17-22,18.79-39,41.8-45.58l.41-.11c31.41-7.85,147-7.94,151.87-7.94s120.45.09,151.87,7.94l.4.11c23,6.57,38.59,23.57,41.79,45.5,5.75,34.6,7.5,67.65,5.19,98.26a573.49,573.49,0,0,1-7.74,94.92,13.27,13.27,0,0,1-.31,1.39c-6,20.88-21.27,37.25-40.93,43.81q-.45.15-.93.27C368.78,399.93,253.23,400,248.32,400ZM103.05,367.73c24.3,5.8,113,7.07,145.27,7.07s121-1.28,145.28-7.07c11.35-4,20.26-13.62,24-26a549.45,549.45,0,0,0,7.27-90.5c0-.32,0-.64,0-1,2.21-28.75.56-60-4.91-92.8a2.93,2.93,0,0,1-.05-.29c-1.71-12-10.3-21.05-23.57-24.91-23.9-5.86-113.1-7.14-145.54-7.14s-121.66,1.29-145.55,7.14C92,136.1,83.44,145.17,81.73,157.15c0,0,0,.09,0,.13a598.07,598.07,0,0,0,0,187.77C83.35,354.79,91.9,363.84,103.05,367.73Zm326.87-23.2h0ZM210.49,326.88a12.63,12.63,0,0,1-12.61-12.61V188.16a12.61,12.61,0,0,1,19.18-10.77l103.41,63.05a12.62,12.62,0,0,1,0,21.54L217.06,325A12.61,12.61,0,0,1,210.49,326.88ZM223.1,210.62v81.19l66.58-40.6Z"/></svg>