<svg id="Layer_1" data-name="Layer 1" xmlns="http://www.w3.org/2000/svg" viewBox="0 0 500 500"><title>Icon_Clock_Watch_Time_Black</title><path d="M250,426.25c-94.85,0-175-80.16-175-175,0-93.22,75.93-175,162.5-175v-25c-99.88,0-187.5,93.45-187.5,200,0,110.27,89.72,200,200,200,48.27,0,96-18.54,131-50.83L364,382.06C333.62,410.13,292,426.25,250,426.25Z"/><path d="M262.5,48.75v25c88.09,0,162.5,79,162.5,172.49,0,44.78-17.6,92.46-43.82,118.68l17.67,17.67C429.44,352,450,297.22,450,246.24,450,139.18,364.14,48.75,262.5,48.75Z"/><polygon points="237.5 121.24 237.5 253.81 313.52 332.45 331.49 315.06 262.5 243.7 262.5 121.24 237.5 121.24"/></svg>