<svg id="Layer_1" data-name="Layer 1" xmlns="http://www.w3.org/2000/svg" viewBox="0 0 500 500"><title>Icon_Palm_Tree_Black</title><path d="M373.35,164.94a128.42,128.42,0,0,0-25-12.88l5.47-19.46,20.64,5.81,74.87-42L433.36,85c-41-29.4-95.65-32.59-139.34-8.13a129,129,0,0,0-50.38,51.47,119.73,119.73,0,0,0-46.17-52.81c-39.71-24.64-90.85-23.88-130.33,1.83L50.68,88.09,119.85,131l18.81-4.42,4.42,18.82,6.37,3.95a128.77,128.77,0,0,0-36.38,16.34c-41.7,27.71-63.78,77.83-56.27,127.71l2.93,19.44,71.47-47.54,4.24-21,21,4.22,22.28-14.77-13.82-20.85-13.66,9.06-35.37-7.11-7.12,35.35L80.47,269a105.15,105.15,0,0,1,46.45-82.52,104.09,104.09,0,0,1,46.17-16.4c-.05.78-.24,1.52-.24,2.32a36.86,36.86,0,0,0,24.23,34.53A339.18,339.18,0,0,0,169.7,417.46H70.94v25h286.7v-25H264.55a310.51,310.51,0,0,1-6.83-200.55,34.81,34.81,0,0,0,25.17-.44L330,247.81l21-4.25,4.23,21,71.48,47.51,2.93-19.44C437.15,242.78,415.05,192.65,373.35,164.94Zm-67.1-66.26A105.09,105.09,0,0,1,400.88,95l-29.63,16.6-34.73-9.76-9.77,34.69L313.31,144a130,130,0,0,0-36.57,2,35.05,35.05,0,0,0-14,0A104.14,104.14,0,0,1,306.25,98.68Zm-96.5,61.8a11.9,11.9,0,1,1-11.9,11.89A11.89,11.89,0,0,1,209.75,160.48Zm-85.53-56.23L99.37,88.85a96.44,96.44,0,0,1,84.92,7.91,95.09,95.09,0,0,1,36.1,40.47,35.18,35.18,0,0,0-33.14,6.12l-22.2-13.76-7.76-33.08ZM195,417.46a315.33,315.33,0,0,1,31.32-212.29,37.12,37.12,0,0,0,10-7.33c.22.48.51.92.75,1.39a335.36,335.36,0,0,0,1.1,218.23Zm74.6-223.41a11.89,11.89,0,1,1,11.9-11.89A11.9,11.9,0,0,1,269.59,194.05Zm108.1,55.44-7.12-35.38-35.36,7.13-33.11-22a35.54,35.54,0,0,0,1.82-30.38c19.64.41,39,5.86,55.59,16.89A105.12,105.12,0,0,1,406,268.29Z"/></svg>