<svg id="Icons" xmlns="http://www.w3.org/2000/svg" viewBox="0 0 500 500"><title>Icon_Doc_Secret_Black</title><path d="M87.83,425c-6.6,0-12.07-5.15-12.45-11l0-327.26A12.52,12.52,0,0,1,87.85,75H224.62V175h100v37.5h25V158.76L239.26,50H87.83C68,50,51.59,65.47,50.38,86l0,328.75A37.53,37.53,0,0,0,87.81,450H199.62V425H87.83ZM249.62,95.32,305.1,150H249.62Z"/><rect x="99.62" y="300" width="100" height="25"/><rect x="99.62" y="250" width="100" height="25"/><rect x="99.62" y="200" width="50" height="25"/><path d="M423.88,225H250.38a25.78,25.78,0,0,0-25.76,25.74v173.5A25.79,25.79,0,0,0,250.38,450h173.5a25.78,25.78,0,0,0,25.74-25.76V250.74A25.77,25.77,0,0,0,423.88,225Zm0,200-174.26-.76V250.74a.75.75,0,0,1,.76-.74l174.24.74Z"/><rect x="274.38" y="325.5" width="25" height="24.74"/><polygon points="399.62 275.5 274.38 275.5 274.38 307.75 299.38 307.75 299.38 300.5 374.62 300.5 374.62 375 299.38 375 299.38 367.49 274.38 367.49 274.38 400 399.62 400 399.62 275.5"/><circle cx="337.12" cy="337.75" r="12.5"/></svg>