<svg id="Icons" xmlns="http://www.w3.org/2000/svg" viewBox="0 0 500 500"><title>Icon_Capitalisation_SVG_Black</title><path d="M252,454.55l-3.29,0A201.84,201.84,0,0,1,50.1,249.5c1.75-110.19,92-198.64,201.77-198.64,1.08,0,2.17,0,3.25,0h0A201.83,201.83,0,0,1,392.36,397.67,200.45,200.45,0,0,1,252,454.55Zm-.13-378.69c-96.22,0-175.25,77.49-176.78,174a176.84,176.84,0,0,0,174,179.62q1.44,0,2.88,0a176.84,176.84,0,0,0,2.73-353.66h0Z"/><path d="M144.65,208.73h31.2l29.7,97.49h-27.3l-4.8-20.7h-27.3l-4.8,20.7H115Zm6.15,56.84h18l-1.65-6.75c-2.4-9.3-4.8-21.15-7.2-30.9h-.6c-2.1,9.9-4.5,21.6-6.9,30.9Z"/><path d="M214.85,208.73H250c20.4,0,36.9,5.1,36.9,24.29,0,8.4-4.8,18-12.3,21v.6c9.3,2.7,16.8,9.9,16.8,22.8,0,20.1-17.4,28.8-38.4,28.8h-38.1Zm34.5,38.09c8.4,0,12.3-3.9,12.3-9.9s-3.9-8.4-12.3-8.4h-8.7v18.3Zm1.8,39.6c10.2,0,15-3.6,15-10.8s-4.8-9.9-15-9.9h-10.5v20.7Z"/><path d="M302.45,258.22c0-32.69,22.5-51.29,47.1-51.29a43,43,0,0,1,30.3,12.9l-13.5,16.49c-4.8-4.19-9.6-7.19-16.2-7.19-11.4,0-21.3,10.49-21.3,28.19,0,18.3,8.4,28.5,21,28.5,7.5,0,13.5-3.9,17.7-8.4l13.5,16.2c-8.25,9.6-19.5,14.4-32.1,14.4C324.05,308,302.45,291.52,302.45,258.22Z"/></svg>