<svg id="Layer_1" data-name="Layer 1" xmlns="http://www.w3.org/2000/svg" viewBox="0 0 500 500"><title>Icon_Cellphone_Wrong_Incorrect_Black</title><path d="M336.83,325h-200V87.5A12.54,12.54,0,0,1,149.33,75H321.84a12.52,12.52,0,0,1,12.5,12.5V125h25V87.5A37.54,37.54,0,0,0,321.84,50H149.33a37.54,37.54,0,0,0-37.5,37.5v325a37.54,37.54,0,0,0,37.5,37.5h175a37.54,37.54,0,0,0,37.5-37.5v-125h-25Zm-12.5,100h-175a12.52,12.52,0,0,1-12.5-12.5V350h200v62.5A12.54,12.54,0,0,1,324.33,425Z"/><circle cx="236.83" cy="387.5" r="12.5"/><polygon points="388.17 151.34 370.5 133.67 323.08 181.08 275.67 133.67 258 151.34 305.41 198.75 258 246.17 275.67 263.84 323.08 216.43 370.5 263.84 388.17 246.17 340.76 198.75 388.17 151.34"/></svg>