<svg id="Layer_1" data-name="Layer 1" xmlns="http://www.w3.org/2000/svg" viewBox="0 0 500 500"><title>Icon_Alarm_Clock_Black</title><path d="M252.27,393.16c-67.75,0-125-57.25-125-125s51.51-125,112.5-125v-25c-74.54,0-137.5,68.71-137.5,150s68.7,150,150,150c37.74,0,70.19-12.5,93.85-36.15l-17.68-17.68C309.57,383.2,283.23,393.16,252.27,393.16Z"/><path d="M264.77,118.16v25c62,0,112.5,56.08,112.5,125,0,31-10.84,58.18-31.32,78.67l17.67,17.67c25.3-25.29,38.65-58.59,38.65-96.34C402.27,185.45,340.58,118.16,264.77,118.16Z"/><polygon points="239.77 165.67 239.77 273.34 295.95 329.52 313.62 311.84 264.77 262.99 264.77 165.67 239.77 165.67"/><rect x="388.51" y="81.52" width="25.03" height="70.8" transform="translate(25.26 299.38) rotate(-42.15)"/><rect x="63.91" y="104.42" width="74.23" height="25" transform="translate(-53.08 105.68) rotate(-45)"/></svg>