<svg id="Layer_1" data-name="Layer 1" xmlns="http://www.w3.org/2000/svg" viewBox="0 0 500 500"><title>Icon_Cellphone_Download_To_Device_Black</title><path d="M337.5,51.25h-50v25h50A12.52,12.52,0,0,1,350,88.75v237.5H150v-235a12.53,12.53,0,0,1,12.5-12.5h50v-25h-50A37.54,37.54,0,0,0,125,91.26v320a37.54,37.54,0,0,0,37.5,37.5h175a37.54,37.54,0,0,0,37.5-37.5V88.75A37.54,37.54,0,0,0,337.5,51.25Zm0,372.5h-175a12.52,12.52,0,0,1-12.5-12.5v-60H350v60A12.53,12.53,0,0,1,337.5,423.75Z"/><circle cx="250" cy="388.75" r="12.5"/><polygon points="196.34 217.41 178.66 235.08 250 306.42 321.34 235.08 303.66 217.41 262.5 258.57 262.5 51.24 237.5 51.24 237.5 258.57 196.34 217.41"/></svg>