<svg id="Icons" xmlns="http://www.w3.org/2000/svg" viewBox="0 0 500 500"><title>Icon_Facebook workplace_SVG_Black</title><path d="M381.32,152.37l-.05-.09c-24.87-39.41-70.47-66.68-119-71.13l-26.42,0c-45.66,5-88.32,26.26-116.67,58.17-25.83,27.88-42.13,65.72-46,106.54v25.47C77.61,311.61,93.92,348.92,119.1,376,148.19,408.73,191.52,430,238,434.35l27,0c5.71-.92,11.91-2,18.14-3.11l2.29-.41c0-10,0-20.06,0-30.12-42.77,10.68-89.77.92-123.7-26-49.24-36.28-71-104.15-51.76-161.3,20-65.78,91.23-111.22,158.73-101.16,58.54,8,105.56,60,107,118.39,1.33,23.95-5.66,49.62-20.24,74.09L352,310.63l-2.73-6.31c-5.88-13.53-11.46-27.45-16.85-40.92-6.42-16-13-32.53-20.2-48.47-4.57-11-17.49-19.68-29.44-15.2-11.1,3.32-16.49,14.69-20.68,25.07-9.83,24.45-19.66,48.92-29.72,73.28l-3.24,7.86-3.26-7.86q-13.34-32.13-26.49-64.4l-12.65-30.86-32.5,0,14.17,34.55q16.76,40.8,33.3,81.6c4.27,10.21,8.91,19.7,18.3,23.15a22.48,22.48,0,0,0,18.25,0,26.25,26.25,0,0,0,14.43-14.83c6.75-15.33,13-31,19-46.05,4.74-11.87,9.48-23.74,14.47-35.49l3.21-7.59,3.26,7.55c5.05,11.68,9.76,23.51,14.49,35.34C313.55,297.27,320.2,314,327.65,330c3.15,7.18,10,12.19,18.48,13.47,8.65,1.36,16.93-1.47,22.16-7.5C412.79,286.78,418.36,207.87,381.32,152.37Z"/></svg>