<svg id="Icons" xmlns="http://www.w3.org/2000/svg" viewBox="0 0 500 500"><title>Icon_Tax_Black</title><polygon points="208.7 258.7 143.96 258.7 143.96 274.56 166.86 274.56 166.86 342.13 185.8 342.13 185.8 274.56 208.7 274.56 208.7 258.7"/><path d="M230.59,258.7l-26.1,83.43h19.19l5.13-19.84h25.46l5.12,19.84h20l-26.1-83.43Zm2,48.88,2.05-7.68c1.2-4.17,2.32-8.59,3.4-13.24s2.11-9.19,3.12-13.63h.51q1.67,6.53,3.34,13.57c1.11,4.68,2.25,9.13,3.45,13.3l1.92,7.68Z"/><path d="M353.49,258.7H333.4l-6.65,15.74q-1.29,2.94-2.63,6.2t-2.75,7.24h-.51q-1.78-4-3.2-7.24t-2.82-6.2l-7.28-15.74h-21l21.76,40.56-23.17,42.87h20.21l7.81-17q1.41-3.33,2.81-6.59t2.82-7.11h.51q1.8,3.85,3.26,7.11c1,2.17,2,4.37,3,6.59l8.31,17h21l-23-42Z"/><path d="M308.44,128.63l43.28-43.29A20.76,20.76,0,0,0,337,50.12l-172.46.12a20.74,20.74,0,0,0-14.42,32.1,12.89,12.89,0,0,0,1.44,1.78l42,42.89C154.83,154.87,75,223.17,75,312.38c0,137.5,131.71,137.5,175,137.5s175,0,175-137.5C425,227.28,353.21,161.29,308.44,128.63ZM250,424.88c-105.14,0-150-33.64-150-112.5,0-80.7,78.27-144.2,112.1-167.89.45-.32,1.78-1.42,2.26-1.86H262.5v-25H217.84a20.68,20.68,0,0,0-2.9-4.5l-37.19-38H326.6l-38.16,38.21c-.5.43-1.84,1.76-2.27,2.25a20.68,20.68,0,0,0-5,15.08c.42,5.53,2.94,10.56,8.05,14.88C322.55,169.34,400,233.2,400,312.38,400,391.24,355.14,424.88,250,424.88Z"/></svg>