<svg id="Icons" xmlns="http://www.w3.org/2000/svg" viewBox="0 0 500 500"><title>Icon_Linkedin_SVG_Black</title><path d="M276.5,426.28H209a12.5,12.5,0,0,1-12.5-12.5V210.45A12.5,12.5,0,0,1,209,198h67.41a12.51,12.51,0,0,1,12.18,9.65c2.4-1.48,4.79-2.85,7.15-4.15,25.2-13.95,56.22-13.37,83,1.56,27,15.05,43.93,41.55,45.33,70.89,1.51,31.68,1.14,63.93.78,95.12-.16,13.85-.33,28.18-.33,42.33a12.5,12.5,0,0,1-12.5,12.5H344.08a12.5,12.5,0,0,1-12.5-12.5V401.13q0-15.69,0-31.37c0-25.37,0-51.59-.44-77.32-.19-10.05-8.12-18.49-18.46-19.62-10-1.1-19.16,5.05-22.3,14.95-1.12,3.53-1.26,8-1.28,11.1-.11,25.68-.1,51.81-.09,77.07q0,12.87,0,25.72v12.12A12.5,12.5,0,0,1,276.5,426.28Zm-55-25H264q0-12.66,0-25.32c0-25.3,0-51.46.09-77.2a63.24,63.24,0,0,1,2.45-18.55c6.79-21.4,26.88-34.67,48.86-32.24,22.8,2.5,40.31,21.43,40.72,44,.48,26,.46,52.3.45,77.78q0,15.54,0,31.08H399.5c.06-10.14.18-20.25.29-30.12.37-32.24.72-62.7-.76-93.64-1-20.65-13.14-39.43-32.52-50.25-19.16-10.68-41.1-11.25-58.7-1.52-8.62,4.77-15.68,9.42-22.15,16.57a12.5,12.5,0,0,1-21.78-8.38V223H221.47Zm-59.3,25H95.49A12.5,12.5,0,0,1,83,413.78V210.67a12.5,12.5,0,0,1,12.5-12.5h66.68a12.5,12.5,0,0,1,12.5,12.5V413.78A12.5,12.5,0,0,1,162.17,426.28Zm-54.18-25h41.68V223.17H108Zm20.55-217.34a54.06,54.06,0,0,1-53.43-53.23,54.16,54.16,0,0,1,53.44-53.79h.35a54.1,54.1,0,0,1,53.23,52.8h0a53.66,53.66,0,0,1-52.91,54.22Zm0-82a28.29,28.29,0,0,0-19.68,48.75,27.87,27.87,0,0,0,20,8.27A28.62,28.62,0,0,0,157.13,130h0c-.17-15.12-13.19-28-28.41-28.1Z"/><path d="M276.5,426.28H209a12.5,12.5,0,0,1-12.5-12.5V210.45A12.5,12.5,0,0,1,209,198h67.41a12.49,12.49,0,0,1,12.5,12.5v23.06h-25V223H221.47V401.28H264q0-12.66,0-25.32c0-25.3,0-51.46.09-77.2a63.24,63.24,0,0,1,2.45-18.55c6.79-21.4,26.88-34.67,48.86-32.24,22.8,2.5,40.31,21.43,40.72,44,.48,26,.46,52.3.45,77.78q0,15.54,0,31.08H399.5c.06-10.14.18-20.25.29-30.12.37-32.24.72-62.7-.76-93.64-1-20.65-13.14-39.43-32.52-50.25-19.16-10.68-41.1-11.25-58.7-1.52l-12.1-21.87c25.2-13.95,56.22-13.36,83,1.56,27,15.05,43.93,41.55,45.33,70.89,1.51,31.68,1.14,63.93.78,95.12-.16,13.85-.33,28.18-.33,42.33a12.5,12.5,0,0,1-12.5,12.5H344.08a12.5,12.5,0,0,1-12.5-12.5V401.13q0-15.69,0-31.37c0-25.37,0-51.59-.44-77.32-.19-10.05-8.12-18.49-18.46-19.62-10-1.1-19.16,5.05-22.3,14.95-1.12,3.53-1.26,8-1.28,11.1-.11,25.68-.1,51.81-.09,77.07q0,12.87,0,25.72v12.12A12.5,12.5,0,0,1,276.5,426.28Z"/><path d="M162.17,426.28H95.49A12.5,12.5,0,0,1,83,413.78V210.67a12.5,12.5,0,0,1,12.5-12.5h66.68a12.5,12.5,0,0,1,12.5,12.5V413.78A12.5,12.5,0,0,1,162.17,426.28Zm-54.18-25h41.68V223.17H108Z"/><path d="M128.54,183.94a54.06,54.06,0,0,1-53.43-53.23,54.16,54.16,0,0,1,53.44-53.79h.35a54.1,54.1,0,0,1,53.23,52.8h0a53.66,53.66,0,0,1-52.91,54.22Zm0-82a28.29,28.29,0,0,0-19.68,48.75,27.87,27.87,0,0,0,20,8.27A28.62,28.62,0,0,0,157.13,130h0c-.18-15.12-13.19-28-28.41-28.1Z"/></svg>