<svg id="Icons" xmlns="http://www.w3.org/2000/svg" viewBox="0 0 500 500"><title>Icon_Document xls_SVG_Black</title><path d="M176.93,362.62l-18.68-35.57h21.61L184.81,339c1.58,3.38,3.16,7.43,5.18,12.16h.45c1.58-4.73,3.15-8.78,4.5-12.16l4.28-11.93h20.71l-18.68,36.47,19.81,36.7H199.45l-5.86-13.06c-1.8-3.83-3.37-7.65-5.17-12.16H188c-1.58,4.51-3.16,8.33-4.73,12.16l-5.41,13.06H157.12Z"/><path d="M228,327.05H247.4v57h27.69v16.21H228Z"/><path d="M277.57,391.1l11-13.28c5.18,4.16,11.7,7.09,17.11,7.09,5.85,0,8.33-1.91,8.33-5.18,0-3.49-3.72-4.61-9.91-7.09L295,368.81c-7.88-3.15-14.74-9.79-14.74-20.37,0-12.5,11.25-22.74,27.24-22.74a35.16,35.16,0,0,1,24.31,9.79l-9.68,12.16c-4.95-3.49-9.23-5.29-14.63-5.29-4.73,0-7.66,1.69-7.66,4.95,0,3.49,4.17,4.73,10.81,7.32l8.89,3.49c9.12,3.6,14.3,9.91,14.3,20,0,12.38-10.36,23.41-28.59,23.41A42.38,42.38,0,0,1,277.57,391.1Z"/><path d="M361.36,447.85H138.86a39.32,39.32,0,0,1-25.37-9.62,33.86,33.86,0,0,1-12.13-25.38V85.35c0-19.95,16.12-35,37.5-35H291.54L398.86,157.67V412.85C398.86,432.8,382.74,447.85,361.36,447.85ZM138.86,75.35c-7.48,0-12.5,4-12.5,10v327.5c0,4.95,6.31,10,12.5,10h222.5c7.48,0,12.5-4,12.5-10V168L281.18,75.35Z"/><polygon points="376.36 175.35 276.36 175.35 276.36 75.35 301.36 75.35 301.36 150.35 376.36 150.35 376.36 175.35"/></svg>