<svg id="Icons" xmlns="http://www.w3.org/2000/svg" viewBox="0 0 500 500"><title>Icon_Law_Black</title><path d="M227.05,376.25H64.55a12.5,12.5,0,0,0-12.5,12.5v50a12.49,12.49,0,0,0,12.5,12.5h162.5a12.49,12.49,0,0,0,12.5-12.5v-50A12.5,12.5,0,0,0,227.05,376.25Zm-12.5,50H77.05v-25h137.5Z"/><path d="M440.14,243.25,276.35,177.07l21.47-18.93a12.59,12.59,0,0,0,3.5-5.18l12.5-35a12.48,12.48,0,0,0-6.94-15.72l-125-52.49a12.46,12.46,0,0,0-16.32,6.6l-15,35a12.27,12.27,0,0,0-1,6l4.73,54.43L144,176.47l-38,35.67a12.84,12.84,0,0,0-3,4.2l-15,35a12.5,12.5,0,0,0,6.85,16.53l125,50A12.51,12.51,0,0,0,236,311.18l15-35a12.4,12.4,0,0,0,1-6.05l-2.84-31.25,165.68,66.94a12.48,12.48,0,0,0,16.28-6.9L447,259.52A12.49,12.49,0,0,0,440.14,243.25ZM217.87,290.12,116.09,249.41,125,228.59l38.09-35.71a12.3,12.3,0,0,0,3-4.31l12.5-30a12.43,12.43,0,0,0,.91-5.9L174.77,98.3l8.88-20.7L286.3,120.7l-7.44,20.83-40.08,35.36a12.53,12.53,0,0,0-3.27,4.56l-12.5,30a12.6,12.6,0,0,0-.92,5.94l4.73,51.86ZM412.62,278,255,214.28l6.57-16.22,157.62,63.68Z"/></svg>