<svg id="Layer_1" data-name="Layer 1" xmlns="http://www.w3.org/2000/svg" viewBox="0 0 500 500"><title>Icon_Cellphone_Locked_Black</title><path d="M320,200a25,25,0,1,0,25,25A25,25,0,0,0,320,200Zm0,25h0l0-12.5Z"/><circle cx="207.5" cy="387.5" r="12.5"/><path d="M257.5,150H255c-21.73,0-37.5,15.77-37.5,37.5V300h200V187.5c0-21.73-15.77-37.5-37.5-37.5h2.5A62.43,62.43,0,0,0,330,88.51v-1A37.54,37.54,0,0,0,292.5,50H120A37.54,37.54,0,0,0,82.5,87.5v325A37.54,37.54,0,0,0,120,450H295a37.54,37.54,0,0,0,37.5-37.5V325h-225V87.5A12.54,12.54,0,0,1,120,75H292.5A12.54,12.54,0,0,1,305,87.5v2A62.48,62.48,0,0,0,257.5,150Zm50,200v62.5A12.54,12.54,0,0,1,295,425H120a12.52,12.52,0,0,1-12.5-12.5V350Zm85-162.5V275h-150V187.5c0-8.06,4.44-12.5,12.5-12.5H380C388.06,175,392.5,179.44,392.5,187.5Zm-35-37.5h-75a37.5,37.5,0,0,1,75,0Z"/></svg>