<svg id="Icons" xmlns="http://www.w3.org/2000/svg" viewBox="0 0 500 500"><title>Icon_Hold Africa_SVG_Black</title><path d="M220.92,408.15l-1.33-25,83.24-4.45a7,7,0,0,0,4.85-3.85,5.69,5.69,0,0,0,.42-4.24c-.85-1.5-4.32-2.71-6.47-2.93l-62-4.41-37.36-33.56-88.16,1.56-.44-25,98-1.73L250,339l53.56,3.81c1.86.13,18.46,1.69,26.31,15.5,4.42,7.78,4.65,18.11.6,27A32.27,32.27,0,0,1,307,403.43l-.87.17Z"/><path d="M273.09,461.5q-4.41,0-8.84-.31c-59.95-4.26-141.33-49.8-144.77-51.73l12.28-21.78c.92.52,80,44.72,134.26,48.57,52.49,3.72,108-35.9,108.55-36.3l.19-.14c2.8-2,11.35-9.3,13.28-16.35.76-2.76.45-5.63-.73-6.81-1.34-1.33-5.58-2.14-13.13,0l-.93.23-49.88,9.87-4.86-24.53L368,352.4c9.17-2.48,25.7-4.72,37,6.54,7.63,7.6,10.39,19.54,7.2,31.15-4.6,16.74-20.68,28.53-23,30.17C385.64,422.79,331,461.5,273.09,461.5ZM125.62,398.57l6.14-10.89h0Z"/><polygon points="138.57 435.1 79.01 433.7 79.59 408.71 113.77 409.51 114.21 351.6 139.21 351.8 138.57 435.1"/><polygon points="138.67 328.06 113.67 327.86 113.84 304.87 79.28 304.06 79.86 279.07 139.03 280.45 138.67 328.06"/><path d="M347.18,374.59l-21.9-12.06a70.17,70.17,0,0,0,8.53-26.73,29.4,29.4,0,0,1,3.31-13.54c3.14-8.21,10.24-12.45,15-15.29a30.56,30.56,0,0,0,4-2.64c1.15-1.15,2.78-5.83,1.38-11.45l-.38-1.5v-1.53a78.91,78.91,0,0,0-1-9.89,97.76,97.76,0,0,1-1.29-13.43c0-20.38,14.71-33.45,26.54-44,2.71-2.4,5.27-4.68,7.44-6.85a112.46,112.46,0,0,0,12.56-14.42,27,27,0,0,1-13.11-2.45c-8.5-2.95-12.31-6.29-15.76-9.74l-.41-.4-.37-.45c-13.16-15.79-22.53-30.56-29.44-46.39-5.26-8.35-7.8-18.16-10.19-27.71l-.24-.62c-4.34-10.88-4.91-11.15-8.76-11.92a121.5,121.5,0,0,1-16-4.26c-6.61-2.09-14.79-4.67-18.63-3.57a28.58,28.58,0,0,0-4.3,3.35c-4.77,4.2-13.62,12-28.39,6.26-9.64-3.35-17.78-11.49-23.18-16.89l-.88-.88-.69-1a49.62,49.62,0,0,1-6.64-16.17c-.18-.69-.38-1.47-.57-2.16a14.84,14.84,0,0,0-5-.26,77.91,77.91,0,0,0-12.66,2.46l-.54.13a185,185,0,0,1-34,9.67l-.39.07c-4.85.81-7.67,5.16-13,14.92-1.2,2.21-2.44,4.49-3.8,6.78-3.64,7-9.37,12.38-14.92,17.56-7.64,7.14-12.22,11.82-11.6,16.81l.1.77V136a8.75,8.75,0,0,0,.52,1.87,29.34,29.34,0,0,1,1.81,9.79c0,8.14-2.3,15.82-4.57,22.72.38,3,2,4.87,7,9.58,1.07,1,2.17,2.06,3.26,3.16l.49.49.43.54c2.45,3,4.42,6,6.15,8.63,5.24,7.88,6.65,10,14.4,10,5.21,0,10.7-1.28,16.52-2.63,12.11-2.82,27.18-6.33,44.52,1.38l.51.24c.86.43,2,.93,3.14,1.45,4.75,2.12,11.24,5,16.43,10.22l.88.87.69,1c5.91,8.88,5.17,17.81,4.68,23.71-.09,1.08-.18,2.11-.22,3.05.87,3.2,3.58,6.94,6.43,10.89,5.43,7.51,12.19,16.86,12.19,29.91,0,8.3-2.5,15.36-4.51,21-1.28,3.61-2.49,7-2.49,9.28v.57l0,.56c-.81,9,2.82,18.35,8.94,30.59l-22.36,11.18c-6.27-12.53-12.83-27.23-11.52-43.5.12-6.31,2.13-12,3.92-17,1.58-4.47,3.07-8.68,3.07-12.69,0-4.72-2.83-8.88-7.45-15.27-4.45-6.16-9.51-13.15-11-22.31l-.17-1v-1c0-2.27.17-4.4.33-6.28.32-3.77.37-5.52-.07-6.77a43.57,43.57,0,0,0-7.89-4.17c-1.27-.56-2.57-1.14-3.82-1.76-9.6-4.18-17.94-2.24-28.48.22-6.94,1.61-14.11,3.28-22.19,3.28-21.15,0-28.95-11.73-35.21-21.15-1.47-2.2-2.86-4.29-4.44-6.32-.78-.77-1.55-1.5-2.31-2.23-6.61-6.28-14.84-14.11-14.84-29.43v-2l.64-1.92c2.07-6.21,4-12.07,4-17a8.3,8.3,0,0,0-.53-1.88,29.86,29.86,0,0,1-1.79-9c-1.83-17.59,10.43-29,19.42-37.44,4-3.79,8.25-7.71,9.86-10.94l.47-.84c1.16-2,2.29-4,3.48-6.22,5.64-10.41,13.36-24.64,30.61-27.62,11-2.21,19.51-4.34,30.27-8.64l.79-.32,2.12-.53c11.43-2.89,32.71-8.27,44.38,7.28l.68.91.5,1a42.48,42.48,0,0,1,3,8.77,30.24,30.24,0,0,0,2.68,7.63c3.48,3.46,9,8.7,12.76,10l.69.25q.4.17.66.24c.63-.48,1.55-1.28,2.26-1.91a46.73,46.73,0,0,1,10.16-7.23l.95-.43c11.92-4.76,24.65-.74,35.87,2.8A102,102,0,0,0,327.38,77l.39.07c17.84,3.57,22.63,15.59,27.26,27.22l.87,2.17.2.82c2.13,8.51,4.14,16.55,7.6,21.74l.64,1,.45,1.05c5.91,13.78,14.09,26.75,25.73,40.79,1.48,1.46,2.52,2.29,6.38,3.58l.84.28.79.4c1.56.77,5.06-.49,9.82-2.36a78.66,78.66,0,0,1,9.54-3.26l15.53-3.88v16c0,21-13.64,37.47-27,50.81-2.69,2.69-5.65,5.32-8.51,7.86-9.33,8.29-18.14,16.12-18.14,25.27a80.84,80.84,0,0,0,1,9.89,109.46,109.46,0,0,1,1.27,11.9c2.72,12.77-.47,25.86-8.3,33.68a43.7,43.7,0,0,1-8.86,6.43,30.45,30.45,0,0,0-4.57,3.06l-.15.46-.4.8c-1,2-1,2.31-1,3.73v.62l-.06.62A96.07,96.07,0,0,1,347.18,374.59Z"/></svg>