<svg id="Layer_1" data-name="Layer 1" xmlns="http://www.w3.org/2000/svg" viewBox="0 0 500 500"><title>Icon_Hourglass_2_Black</title><rect x="100" y="50" width="300" height="25"/><rect x="100" y="425" width="300" height="25"/><path d="M287.5,237.5a37.68,37.68,0,0,1,15-30l60-45a62.83,62.83,0,0,0,25-50v-25h-25v25a37.71,37.71,0,0,1-15,30l-60,45a62.79,62.79,0,0,0-25,50v25a62.89,62.89,0,0,0,25,50l60,45a37.56,37.56,0,0,1,15,30v25h25v-25a62.73,62.73,0,0,0-25-50l-60-45a37.78,37.78,0,0,1-15-30v-25Z"/><path d="M212.5,262.5a37.71,37.71,0,0,1-15,30l-60,45a62.79,62.79,0,0,0-25,50v25h25v-25a37.68,37.68,0,0,1,15-30l60-45a62.83,62.83,0,0,0,25-50v-25a62.73,62.73,0,0,0-25-50l-60-45a37.78,37.78,0,0,1-15-30v-25h-25v25a62.89,62.89,0,0,0,25,50l60,45a37.56,37.56,0,0,1,15,30v25Z"/><path d="M150,112.5a25.07,25.07,0,0,0,10,20l60,45A75.16,75.16,0,0,1,248.52,225h3A75.16,75.16,0,0,1,280,177.49l60-45a25.07,25.07,0,0,0,10-20v-25H150Z"/><rect x="150" y="400" width="200" height="12.5"/></svg>