<svg id="Icons" xmlns="http://www.w3.org/2000/svg" viewBox="0 0 500 500"><title>Icon_Document download_SVG_Black</title><path d="M325.11,449.1H137.61a39.32,39.32,0,0,1-25.37-9.62,33.86,33.86,0,0,1-12.13-25.38V86.6c0-19.95,16.12-35,37.5-35H290.2L400.11,158.83V226.6h-25V169.37L280,76.6H137.61c-7.48,0-12.5,4-12.5,10V414.1c0,4.95,6.31,10,12.5,10h187.5Z"/><polygon points="375.11 176.6 275.11 176.6 275.11 74.1 300.11 74.1 300.11 151.6 375.11 151.6 375.11 176.6"/><rect x="150.11" y="376.6" width="100" height="25"/><rect x="150.11" y="326.6" width="150" height="25"/><rect x="150.11" y="276.6" width="100" height="25"/><polygon points="387.79 454.46 316.27 382.94 333.95 365.26 387.43 418.74 438.59 365.44 456.63 382.76 387.79 454.46"/><rect x="372.61" y="249.1" width="25" height="175"/></svg>