<svg id="Icons" xmlns="http://www.w3.org/2000/svg" viewBox="0 0 500 500"><title>Icon_Stop circle_SVG_Black</title><path d="M250.11,451.6c-110.28,0-200-89.72-200-200s89.72-200,200-200,200,89.72,200,200S360.39,451.6,250.11,451.6Zm0-375c-96.5,0-175,78.51-175,175s78.5,175,175,175,175-78.5,175-175S346.6,76.6,250.11,76.6Z"/><path d="M147.61,235.35A17.94,17.94,0,0,1,159.23,240l.79.79L174.73,229l-1.43-.95c-7.67-5.11-15.47-7.71-23.19-7.71-16.21,0-26.25,11-26.25,21.25a20.14,20.14,0,0,0,13.35,18.69l7.5,2.5c6.07,2,9.15,4.15,9.15,6.31,0,1.87-2.15,3.75-6.25,3.75-4.52,0-11.7-4.71-14.12-7.13l-1-1L120.93,279.2l.8.79c4.92,4.92,14.6,7.86,25.88,7.86,16.21,0,26.25-11,26.25-21.25a20.16,20.16,0,0,0-13.45-18.71l-9.9-2.47c-6.07-2-9.15-4.15-9.15-6.32C141.36,237.24,143.51,235.35,147.61,235.35Z"/><polygon points="181.36 237.85 198.86 237.85 198.86 287.85 218.86 287.85 218.86 237.85 236.36 237.85 236.36 220.35 181.36 220.35 181.36 237.85"/><path d="M277.61,220.35c-19.86,0-31.25,12.31-31.25,33.75,0,19.62,11.91,33.5,31.07,36.24h.18c19,0,31.25-14.22,31.25-36.25C308.86,233.92,296.3,220.35,277.61,220.35Zm0,17.5c7.46,0,11.25,5.47,11.25,16.25,0,11.57-4.31,18.75-11.25,18.75-6.73,0-11.25-9.69-11.25-18.75C266.36,244.54,271,237.85,277.61,237.85Z"/><path d="M350.11,220.35h-25v2.5h1.25v65h20v-20h6.25a28.78,28.78,0,0,0,18-5.89,22,22,0,0,0,8.28-17.86C378.86,228.34,369.19,220.35,350.11,220.35Zm-3.75,15h3.75c4.21,0,8.75,2,8.75,6.25,0,6.79-2,8.75-8.75,8.75h-3.75Z"/></svg>