<svg id="Layer_1" data-name="Layer 1" xmlns="http://www.w3.org/2000/svg" viewBox="0 0 500 500"><title>Icon_Document_Personal_Records_Black</title><path d="M291.52,51.25H138.75c-21.37,0-37.5,15-37.5,35v327.5c0,18.65,17.53,35,37.5,35h222.5c21.37,0,37.5-15,37.5-35V161.18ZM301.25,97l55.35,56.73H301.25Zm60,326.72H138.75c-6.19,0-12.5-5.05-12.5-10V86.25c0-6,5-10,12.5-10h137.5V178.76h97.5v235C373.75,419.73,368.72,423.75,361.25,423.75Z"/><path d="M266.25,341.26h-80a35,35,0,0,0-35,35v25h25v-25a9.89,9.89,0,0,1,10-10h80a9.89,9.89,0,0,1,10,10v25h25v-25A35,35,0,0,0,266.25,341.26Z"/><path d="M226.25,316.26a50,50,0,1,0-50-50A50.06,50.06,0,0,0,226.25,316.26Zm0-75a25,25,0,1,1-25,25A25,25,0,0,1,226.25,241.26Z"/></svg>