<svg id="Icons" xmlns="http://www.w3.org/2000/svg" viewBox="0 0 500 500"><title>Icon_Bathroom toilet female male_SVG_Black</title><path d="M375.11,124.1a37.5,37.5,0,1,1,37.5-37.5A37.54,37.54,0,0,1,375.11,124.1Zm0-50a12.5,12.5,0,1,0,12.5,12.5A12.52,12.52,0,0,0,375.11,74.1Z"/><polygon points="410.11 449.1 385.11 449.1 385.11 314.1 430.81 314.1 383.14 155.19 407.08 148.01 464.41 339.1 410.11 339.1 410.11 449.1"/><polygon points="362.61 449.1 337.61 449.1 337.61 339.1 280.35 339.1 343.23 147.7 366.99 155.5 314.87 314.1 362.61 314.1 362.61 449.1"/><path d="M137.61,124.1a37.5,37.5,0,1,1,37.5-37.5A37.54,37.54,0,0,1,137.61,124.1Zm0-50a12.5,12.5,0,1,0,12.5,12.5A12.52,12.52,0,0,0,137.61,74.1Z"/><polygon points="175.11 449.1 150.11 449.1 150.11 149.1 184.51 149.1 224.62 288.14 200.6 295.06 175.11 206.7 175.11 449.1"/><polygon points="125.11 449.1 100.11 449.1 100.11 206.7 74.62 295.06 50.6 288.14 90.71 149.1 125.11 149.1 125.11 449.1"/></svg>