<svg xmlns="http://www.w3.org/2000/svg" viewBox="0 0 500 500"><title>Icon_Document pending_SVG_Black</title><g id="Guides_and_type" data-name="Guides and type"><path d="M362.18,446.52H140.79A39.19,39.19,0,0,1,115.54,437a33.71,33.71,0,0,1-12.06-25.26V85.82c0-19.85,16-34.83,37.31-34.83H292.71L399.5,157.78V411.69C399.5,431.54,383.45,446.52,362.18,446.52ZM140.79,75.87c-7.44,0-12.44,4-12.44,9.95V411.69c0,4.93,6.28,9.95,12.44,9.95H362.18c7.44,0,12.44-4,12.44-9.95V168.09L282.4,75.87Z"/><polygon points="377.11 175.37 277.61 175.37 277.61 73.38 302.48 73.38 302.48 150.5 377.11 150.5 377.11 175.37"/><rect x="153.23" y="374.38" width="99.5" height="24.88"/><rect x="153.23" y="324.63" width="174.13" height="24.88"/><circle cx="165.66" cy="287.31" r="12.44"/><circle cx="215.42" cy="287.31" r="12.44"/><circle cx="265.17" cy="287.31" r="12.44"/></g></svg>