<svg id="Icons" xmlns="http://www.w3.org/2000/svg" viewBox="0 0 500 500"><title>Icon_Blog chat_SVG_Black</title><path d="M247.61,451.6c-52.91,0-103-20.94-141-59s-59-88.12-59-141,20.94-103,59-141,88.12-59,141-59,103,20.94,141,59,59,88.12,59,141c0,42.61-12,81-35.77,114.29l24.85,61a12.5,12.5,0,0,1-15.07,16.72l-72.4-21C314,442.36,281.55,451.6,247.61,451.6Zm0-375c-46.24,0-90,18.34-123.35,51.65S72.61,205.37,72.61,251.6,91,341.64,124.26,375s77.11,51.65,123.35,51.65c30.83,0,60.61-9,93.7-28.3a12.5,12.5,0,0,1,9.78-1.2l52.7,15.29L386,368.82a12.52,12.52,0,0,1,1.67-12.34c23.16-30.11,34.91-65.4,34.91-104.88,0-46.23-18.34-90-51.65-123.35S293.84,76.6,247.61,76.6Zm102.5,225h-200v-25h200Zm0-50h-200v-25h200Zm-100-50h-100v-25h100Z"/></svg>