<svg id="Icons" xmlns="http://www.w3.org/2000/svg" viewBox="0 0 500 500"><title>Icon_African exchange_SVG_Black</title><path d="M268.36,448.8a26.81,26.81,0,0,1-14.57-3.9c-8.92-4.91-13.24-15.74-13.65-24.45-1.93-9.59-6.94-19.4-12.23-29.76-8.29-16.23-16.85-33-15.29-52.19.12-6.63,2.25-12.66,4.14-18,1.73-4.86,3.35-9.45,3.35-13.9,0-5.61-3.78-10.84-8.16-16.9-4.72-6.53-10.07-13.93-11.67-23.54l-.17-1v-1c0-2.39.19-4.66.36-6.66.34-4.13.43-6.26-.23-7.9-2.3-1.8-5.75-3.34-8.84-4.73-1.15-.51-2.33-1-3.47-1.59-10.17-3.14-19.4-.82-30.05,1.85-7.91,2-16.09,4-25.27,4-22.2,0-30.41-12.35-37-22.28-1.59-2.39-3.1-4.66-4.83-6.88-.85-.84-1.7-1.64-2.53-2.44-7-6.62-15.63-14.86-15.63-30.9v-2l.64-1.92c2.24-6.73,4.36-13.08,4.36-18.55a8.32,8.32,0,0,0-.61-2.3,31.24,31.24,0,0,1-1.88-9.38c-1.92-18.33,10.56-31,20.61-41.22,4.35-4.42,8.85-9,10.7-12.69l.5-1,.68-.9c1.46-1.94,2.93-4.33,4.49-6.87C118,80.22,126,67.22,142.84,64.31,155.05,61.87,166.59,59.55,178,55l.79-.31.82-.21,2.51-.64c10.87-2.83,31.12-8.1,43,7.77l.68.9.5,1a44.17,44.17,0,0,1,3,8.43c.64,2.33,1.35,5,2.21,5.82l.87.88.69,1c3.11,4.66,8.26,10.59,15.13,12.3l.82.21.79.31a8.51,8.51,0,0,0,1.23.41c.7-.48,1.92-1.55,2.84-2.36a50.3,50.3,0,0,1,9.77-7.14c12.26-8.31,27.14-2.3,38.08,2.13a73.93,73.93,0,0,0,10.89,3.81c18.64,3.73,23.69,16.39,28.56,28.63l.6,1.49-23.22,9.28-.6-1.51c-4.74-11.9-5.43-12.41-10.24-13.37-5.15-1-10.33-3.13-15.35-5.16-4.31-1.74-12.26-5-14.9-4.45l-.7.53-1,.5a26.53,26.53,0,0,0-5.36,4c-4.93,4.33-14,12.33-29.07,6.71-13.64-3.7-22.9-13.54-28.44-21.57-4.82-5.33-6.48-11.43-7.71-16-.22-.82-.46-1.7-.69-2.43-3-1.45-12,.9-16.05,2l-1.92.5c-13.29,5.22-26.3,7.82-38.9,10.34l-.4.07c-5.51.92-8.83,5.89-13.77,13.92-1.61,2.6-3.27,5.29-5.14,7.88-3.65,6.77-9.26,12.48-14.71,18-8.68,8.81-14.31,15.06-13.53,21.31l.1.77v.78a8.32,8.32,0,0,0,.61,2.3,30.67,30.67,0,0,1,1.89,10.2c0,8.66-2.47,16.87-4.91,24.25.44,3.88,2.53,6.06,7.77,11,1.14,1.09,2.31,2.2,3.48,3.37l.49.49.43.54c2.6,3.25,4.7,6.4,6.55,9.19,5.68,8.54,7.39,11.12,16.19,11.12,6.09,0,12.46-1.59,19.19-3.28,12.84-3.22,27.4-6.87,44.76-1.08l.85.28.79.4c.94.47,2.14,1,3.41,1.57,5,2.25,11.89,5.32,17.34,10.77l.87.88.69,1c6.17,9.25,5.42,18.26,4.87,24.84-.1,1.22-.2,2.38-.24,3.45.94,3.62,3.93,7.75,7.07,12.1,5.75,7.95,12.9,17.84,12.9,31.54,0,8.75-2.65,16.23-4.78,22.25-1.4,3.95-2.72,7.68-2.72,10.25v.57l-.05.56c-1.11,12.21,5.56,25.27,12.61,39.09,6,11.82,12.28,24,14.74,37.54l.2,1.11v1.13a9.27,9.27,0,0,0,1.19,4.12l.1,0,.64.43c1.11.47,5.59-.3,8.26-.76a71.25,71.25,0,0,1,12.31-1.34c2.32,0,2.32,0,6.16-3.84,17.58-17.57,26.75-34.86,28.84-54.34a30.83,30.83,0,0,1,3.47-14.2c3.24-8.53,10.42-12.82,15.72-16a31.45,31.45,0,0,0,4.47-3c1.39-1.39,3.33-6.67,1.71-13.13l-.37-1.49V314.1a87.34,87.34,0,0,0-1.12-10.73,102.8,102.8,0,0,1-1.38-14.27c0-21.44,15.6-35.31,28.14-46.45,2.92-2.59,5.67-5,8-7.39a117.34,117.34,0,0,0,14.12-16.37,26.9,26.9,0,0,1-15.34-2.68,43.48,43.48,0,0,1-10.82-7.65c-.55-.5-1.1-1-1.73-1.54-3.5-3-7.51-7.14-10.16-9.88l-.17-.17,18-17.4.16.17c2.19,2.26,5.86,6,8.48,8.29.85.73,1.6,1.41,2.33,2.08a19.11,19.11,0,0,0,5.13,3.74c1.52.76,4.8-.58,9.63-2.72A69.61,69.61,0,0,1,412.08,187l15.53-3.88v16c0,22.19-14.49,39.67-28.66,53.84-2.87,2.87-6,5.68-9.09,8.4-10.16,9-19.75,17.55-19.75,27.76a87.34,87.34,0,0,0,1.12,10.73,115.76,115.76,0,0,1,1.36,12.74c2.88,13.42-.44,27.17-8.64,35.37a45.93,45.93,0,0,1-9.33,6.75c-1.69,1-4.48,2.68-5.23,3.59l-.2.62-.4.79c-1.18,2.36-1.18,2.8-1.18,4.41v.62l-.06.62c-2.54,25.42-14.35,48.35-36.1,70.1-5.49,5.49-11.16,11.16-23.84,11.16a51.54,51.54,0,0,0-8.08,1A65.82,65.82,0,0,1,268.36,448.8Z"/><polygon points="450.11 151.6 425.11 151.6 425.11 74.1 347.61 74.1 347.61 49.1 450.11 49.1 450.11 151.6"/><rect x="265.53" y="125.35" width="189.16" height="25" transform="translate(6.55 291.72) rotate(-44.47)"/></svg>