<svg id="Layer_1" data-name="Layer 1" xmlns="http://www.w3.org/2000/svg" viewBox="0 0 500 500"><title>Icon_Artificial_Intelligence_B_Black</title><path d="M310.63,315.11a34.11,34.11,0,0,0-68.21,0,33.63,33.63,0,0,0,2.22,11.77l-41.85,41.85V452.1h25v-73l33.58-33.58a33.68,33.68,0,0,0,15.15,3.72A34.16,34.16,0,0,0,310.63,315.11Zm-43.21,0a9.11,9.11,0,1,1,9.1,9.11A9.09,9.09,0,0,1,267.42,315.11Z"/><path d="M404,250.12c-5.37-8.3-15.35-23.75-15.35-27.73,6.57-15,9.4-22.63,7.79-44.9C394.1,144.8,380.8,112.43,360,88.7c-22.76-25.93-65.29-41.43-113.75-41.43-44.95,0-87,13.2-112.57,35.35-20.27,17.62-54.45,54.83-55.54,106.2-1.15,55.69,23.24,92.8,44.75,125.54l4.68,7.1c5.94,8.91,12.67,19,13.8,27.54,3.15,23.68-.1,43-9.62,57.32-6.84,10.33-14.23,21.22-21.9,30.74l19.43,15.67c8.33-10.3,16.14-21.75,23.32-32.59,12.94-19.55,17.5-44.58,13.57-74.41-1.09-8.22-4.53-16-8.55-23.22L188,292.16a34.57,34.57,0,1,0-18.69-16.66l-25.33,25.34-.16-.23c-21.41-32.57-41.62-63.35-40.64-111.28.83-39.62,26-69.63,46.92-87.82.7-.6,1.56-1.14,2.29-1.73V154.5a34.09,34.09,0,1,0,25,0V85.29c18.14-7.6,40.16-12.14,63.09-12.82V117a34.08,34.08,0,1,0,25,0V73.29c33,3.21,60.57,14.56,75.76,31.91,10.63,12.12,18.54,27.14,23.79,43.18l-56,56a33.62,33.62,0,0,0-15.36-3.83,34.11,34.11,0,1,0,34.11,34.11,33.52,33.52,0,0,0-2.15-11.53l45.6-45.59c0,.6.23,1.19.27,1.8,1.25,17.06-.24,20.46-6.07,33.86-5.67,14.57,5.64,32,17.62,50.54,4.47,6.91,11.6,17.92,13.38,23.38a33.4,33.4,0,0,1-7.37,3.4,59.94,59.94,0,0,0-11.4,5.22c-11.5,5.57-10.06,17.22-9.38,22.83.51,4.15,1,8.42-.39,13.7A44.93,44.93,0,0,1,363.14,343c-2.46,4.49-5.27,9.59-6.59,16.65s1.22,12.25,2.74,15.33c1.32,2.64,1.9,3.83,1,8.2-.83,4-1.39,6.57-14.4,8.52-10.21,1.59-18.48.44-27.34-.61-6.13-.73-12.46-1.49-19.9-1.68A19,19,0,0,0,281.94,399c-8.2,13.82-1.78,38.63,5.4,51.86l22-12c-4.61-8.48-6.47-18.83-6.27-24.27,4.39.29,8.49.8,12.52,1.27,11,1.32,21.56,2.44,34.08.51,9-1.34,30.11-4.52,35.09-28.05,2.49-11.87-.25-18.85-3.62-24.07.61-3.18,2-5.72,4-9.26a70.47,70.47,0,0,0,7-16.35c2.61-9.79,1.71-17.66,1.08-22.95,1.46-.66,3-1.22,4.66-1.86,5.25-1.95,11.77-4.39,18-10.5C429.94,290.14,416.76,269.8,404,250.12Zm-204.41,1a9.11,9.11,0,1,1-9.11,9.11A9.11,9.11,0,0,1,199.6,251.12Zm-34.75-55.88a9.1,9.1,0,1,1,9.09-9.08A9.1,9.1,0,0,1,164.85,195.24Zm88.09-37.5a9.1,9.1,0,1,1,9.08-9.08A9.11,9.11,0,0,1,252.94,157.74Zm40.72,86a9.11,9.11,0,1,1,9.11-9.11A9.11,9.11,0,0,1,293.66,243.73Z"/></svg>