<svg id="Icons" xmlns="http://www.w3.org/2000/svg" viewBox="0 0 500 500"><title>Icon_Assesment_Black</title><path d="M363.75,74.5h-12.5v26h12.5c7.85,0,12,4.15,12,12v300c0,7.85-4.15,12-12,12H136.25c-7.85,0-12-4.15-12-12v-300c0-7.85,4.15-12,12-12h39.5v25h151v-76h-151v25h-39.5c-22,0-38,16-38,38v300c0,22,16,38,38,38h227.5c22,0,38-16,38-38v-300C401.75,90.48,385.77,74.5,363.75,74.5Zm-162,1h99v24h-99Z"/><rect x="148.84" y="164.79" width="97.17" height="26"/><polygon points="289.62 164.75 271.24 183.14 303.49 215.39 351.11 167.76 332.73 149.38 303.49 178.62 289.62 164.75"/><rect x="148.84" y="348.02" width="97.17" height="26"/><polygon points="303.49 398.62 351.11 350.99 332.73 332.61 303.49 361.85 289.62 347.98 271.24 366.37 303.49 398.62"/><rect x="148.87" y="256.4" width="97.17" height="26"/><polygon points="295.76 303.17 311.14 287.79 326.52 303.17 344.91 284.78 329.53 269.4 344.91 254.02 326.52 235.64 311.14 251.02 295.76 235.64 277.38 254.02 292.76 269.4 277.38 284.78 295.76 303.17"/></svg>