<svg id="Layer_1" data-name="Layer 1" xmlns="http://www.w3.org/2000/svg" viewBox="0 0 500 500"><title>Icon_Home_Cellphone_Device_Black</title><path d="M422.77,198.08h-105c-14.41,0-27.52,13.11-27.52,27.52V423.08c0,14.41,13.11,27.52,27.52,27.52h105c14.4,0,27.51-13.11,27.51-27.52V225.6C450.28,211.19,437.17,198.08,422.77,198.08Zm-105,25H422.64a4.71,4.71,0,0,1,2.64,2.52v140h-110V225.72A4.71,4.71,0,0,1,317.79,223.08Zm105,202.52H317.88a4.59,4.59,0,0,1-2.61-2.52V390.59h110V423A4.69,4.69,0,0,1,422.77,425.6Z"/><path d="M367.78,395.59a10,10,0,1,0,10,10A10,10,0,0,0,367.78,395.59Z"/><polygon points="100.28 208.56 100.28 400.6 125.28 400.6 125.28 188.1 124.53 188.1 250.5 81.78 379.97 185.36 395.59 165.83 250.06 49.4 49.72 218.54 65.83 237.63 100.28 208.56"/><polygon points="175.28 425.6 50.28 425.6 50.28 450.6 250.28 450.6 250.28 425.6 200.28 425.6 200.28 275.6 262.78 275.6 262.78 250.6 175.28 250.6 175.28 425.6"/></svg>