<svg id="Icons" xmlns="http://www.w3.org/2000/svg" viewBox="0 0 500 500"><title>Icon_No elastic bands or paperclips_SVG_Black</title><path d="M331.73,245H331a61.1,61.1,0,0,1-43.78-19.28l-.89-.6-1-1.44c-23-27.07-21.51-69.2,3.51-94.34l.12-.11a63.75,63.75,0,0,1,25.54-15.34l.48-.14c6.43-1.73,11.58-7.2,13.45-14.31a66.33,66.33,0,0,1,16.13-29.6c.2-.22.4-.44.61-.65a61,61,0,0,1,44.58-19.51h.45A61.09,61.09,0,0,1,435.13,70l.49.55c23.52,27.12,22.06,69.73-3.25,95l-.1.1a61.84,61.84,0,0,1-25.73,15.13l-.26.07c-6.36,1.71-11.46,7.13-13.34,14.16a68,68,0,0,1-16.68,30.68A61.11,61.11,0,0,1,331.73,245Zm-26.57-36.57a36,36,0,0,0,53.09,0,43,43,0,0,0,10.55-19.54l.06-.21c4.1-15.63,15.9-27.84,30.81-31.91a37,37,0,0,0,15.18-9c16.21-16.22,17.1-43.58,2-61l-.11-.13A36.4,36.4,0,0,0,390.1,74.59h-.26a36.41,36.41,0,0,0-26.56,11.76l-.56.59a41.64,41.64,0,0,0-10.09,18.61l0,.14c-4.09,15.68-15.89,27.93-30.82,32A38.92,38.92,0,0,0,306.5,147c-16.06,16.19-16.95,43.33-2,60.73Z"/><path d="M146.32,450.79c-24,0-46.16-9-62.48-25.3S58.54,387,58.54,363V111.87a62.67,62.67,0,1,1,125.33,0V363c0,22.12-15.44,37.56-37.55,37.56A37.59,37.59,0,0,1,108.77,363V101.83h24.87V363a12.71,12.71,0,0,0,12.68,12.68c8.17,0,12.67-4.5,12.67-12.68V111.87a37.79,37.79,0,1,0-75.58,0V363c0,35.87,27.05,62.91,62.91,62.91s62.9-27,62.9-62.91V101.83H234.1V363c0,24-9,46.16-25.31,62.48S170.29,450.79,146.32,450.79Z"/><rect x="339.67" y="312.86" width="24.88" height="89.5" transform="translate(-149.74 353.72) rotate(-45)"/><rect x="307.36" y="345.17" width="89.5" height="24.88" transform="translate(-149.74 353.72) rotate(-45)"/><path d="M352.24,443.86a88.06,88.06,0,1,1,88.06-88.05A88.15,88.15,0,0,1,352.24,443.86Zm0-151.23a63.18,63.18,0,1,0,63.18,63.18A63.25,63.25,0,0,0,352.24,292.63Z"/></svg>