<svg id="Layer_1" data-name="Layer 1" xmlns="http://www.w3.org/2000/svg" viewBox="0 0 500 500"><title>Icon_Clipboard_Tick_Black</title><path d="M351.27,111.27v125h25v-125c0-21.73-15.77-37.5-37.5-37.5h-12.5v25h12.5C346.83,98.77,351.27,103.21,351.27,111.27Z"/><path d="M98.77,411.27v-300c0-8.06,4.44-12.5,12.5-12.5h40v25h150v-75h-150v25h-40c-21.73,0-37.5,15.77-37.5,37.5v300c0,21.73,15.77,37.5,37.5,37.5h112.5v-25H111.27C103.21,423.77,98.77,419.32,98.77,411.27Zm77.5-337.5h100v25h-100Z"/><rect x="126.27" y="276.26" width="100" height="25"/><rect x="126.27" y="226.26" width="150" height="25"/><rect x="126.27" y="176.26" width="125" height="25"/><path d="M326.27,251.28a100,100,0,1,0,100,100A100.08,100.08,0,0,0,326.27,251.28Zm0,175a75,75,0,1,1,75-75A75.11,75.11,0,0,1,326.27,426.28Z"/><polygon points="364.93 314.93 311.27 368.59 282.61 339.93 264.93 357.61 311.27 403.94 382.61 332.61 364.93 314.93"/></svg>