<svg id="Layer_1" data-name="Layer 1" xmlns="http://www.w3.org/2000/svg" viewBox="0 0 500 500"><title>Icon_Document_Passport_B_Black</title><path d="M362.5,50H100V450H362.5c21.73,0,37.5-15.77,37.5-37.5V87.5C400,65.43,384.58,50,362.5,50ZM125,75h25V425H125ZM375,412.5c0,8.06-4.44,12.5-12.5,12.5H175V75H362.5c8.06,0,12.5,4.44,12.5,12.5Z"/><path d="M284.16,165.48a12.51,12.51,0,0,0-11.66-8h-.12a12.51,12.51,0,0,0-11.63,8.2L203.26,323.19A12.51,12.51,0,0,0,220,339l52.86-23,55.26,20.72a12.49,12.49,0,0,0,16-16.21ZM260,240.69v53.6l-23.27,10.13Zm25,53.14V236.92l25.77,66.57Z"/></svg>