<svg xmlns="http://www.w3.org/2000/svg" viewBox="0 0 500 500"><title>Icon_Stationary_SVG_Black</title><g id="Guides_and_type" data-name="Guides and type"><path d="M397,110.25a200.84,200.84,0,0,0-288.5,279.49,199.54,199.54,0,0,0,141.07,61.07c1.08,0,2.15,0,3.23,0,109.27,0,199-88,200.76-197.66A199.51,199.51,0,0,0,397,110.25Zm31.69,142.54C427.15,348.86,348.51,426,252.77,426c-.94,0-1.89,0-2.83,0A176,176,0,0,1,252.66,74c1,0,1.91,0,2.86,0A176,176,0,0,1,428.67,252.79Z"/><path d="M161.76,195.52l.56,141.33,40.3,53.72,40.32-53.76-.56-141.29Zm40.86,153.59-15.45-20.6-.43-108.12H217.6L218,328.56Z"/><path d="M242.92,148.74c0-20.37-12.8-31-25.44-31H187.75c-14,0-25.44,13.91-25.44,31v31h80.61Zm-24.87,6.14H187.18v-6.14a10.93,10.93,0,0,1,1.81-6.15h27.73c.49.76,1.33,2.7,1.33,6.15Z"/><path d="M259.45,369.54h83.69V129.64H259.45Zm58.81-215V344.67H284.33V317h17V292.15h-17V260.6h17V235.72h-17V204.16h17V179.29h-17V154.52Z"/></g></svg>