<svg id="Icons" xmlns="http://www.w3.org/2000/svg" viewBox="0 0 500 500"><title>Icon_Pause_SVG_Black</title><path d="M224.69,177H175.2a12.5,12.5,0,0,0-12.5,12.5V312.08a12.5,12.5,0,0,0,12.5,12.5h49.49a12.5,12.5,0,0,0,12.5-12.5V189.52A12.5,12.5,0,0,0,224.69,177Zm-12.5,122.56H187.7V202h24.49v97.56Z"/><path d="M325,177H275.53a12.5,12.5,0,0,0-12.5,12.5V312.08a12.5,12.5,0,0,0,12.5,12.5H325a12.5,12.5,0,0,0,12.5-12.5V189.52A12.5,12.5,0,0,0,325,177Zm-12.5,122.56H288V202h24.49v97.56Z"/><path d="M250.11,50.8c-110.28,0-200,89.72-200,200s89.72,200,200,200,200-89.72,200-200S360.39,50.8,250.11,50.8Zm0,375c-96.5,0-175-78.5-175-175s78.5-175,175-175,175,78.51,175,175S346.6,425.8,250.11,425.8Z"/></svg>