<svg id="Layer_1" data-name="Layer 1" xmlns="http://www.w3.org/2000/svg" viewBox="0 0 500 500"><title>Icon_Calendar_Blocks_Black</title><path d="M100,302.49H200v-100H100Zm25-75h50v50H125Z"/><path d="M225,302.49H325v-100H225Zm25-75h50v50H250Z"/><path d="M375,75V50H350v77.49h25V100h50v52.49H75V100h50v27.49h25V50H125V75H50V412.5A37.54,37.54,0,0,0,87.5,450h325A37.54,37.54,0,0,0,450,412.5V75Zm37.5,350H87.5A12.54,12.54,0,0,1,75,412.5v-235H425v235A12.54,12.54,0,0,1,412.5,425Z"/><rect x="172.49" y="75" width="150" height="25"/></svg>