<svg id="Layer_1" data-name="Layer 1" xmlns="http://www.w3.org/2000/svg" viewBox="0 0 500 500"><title>Icon_Stamp_Black</title><rect x="127.31" y="425" width="250" height="25"/><path d="M399.56,362.45c1.77-8.86-.22-17.36-5.6-23.92a31.37,31.37,0,0,0-24.15-11h-67.5V199.61c29.88-19,47.5-50.1,47.5-84.62,0-20.21-6.41-39.65-19.6-59.42A12.51,12.51,0,0,0,319.81,50H182.31a12.49,12.49,0,0,0-10.4,5.57c-13.19,19.75-19.6,39.18-19.6,59.42,0,34.52,17.61,65.65,47.5,84.62V327.49h-67.5c-17,0-32.5,15.48-32.5,32.5v30a12.49,12.49,0,0,0,12.5,12.5h275a12.49,12.49,0,0,0,12.5-12.5ZM374.81,360v17.5h-250V360c0-3.08,4.42-7.5,7.5-7.5h80a12.49,12.49,0,0,0,12.5-12.5V192.48a12.57,12.57,0,0,0-6.52-11c-26-14.18-41-38.42-41-66.5,0-13.31,3.91-26.44,11.9-40H312.92c8,13.55,11.89,26.68,11.89,40,0,28.08-14.94,52.32-41,66.5a12.55,12.55,0,0,0-6.52,11V340a12.49,12.49,0,0,0,12.5,12.5h80a6.48,6.48,0,0,1,4.81,1.88C374.88,354.69,375.48,355.42,374.81,360Z"/></svg>