<svg id="Icons" xmlns="http://www.w3.org/2000/svg" viewBox="0 0 500 500"><title>Icon_Fraud_Black</title><path d="M362.5,369.73V276.17H350v-75h75v-25H350V109.5L306.25,51.17H193.75L150,109.5v66.67H75v25h75v75H137.5v93.42L50,429.6v19.08H430l.24.15,19.76-.15V432.23ZM175,117.83l31.25-41.66h87.5L325,117.83v58.34H175Zm146.3,95.84c-4.53,7.3-12.66,12.5-21.3,12.5s-16.77-5.2-21.3-12.5Zm-100,0c-4.53,7.3-12.66,12.5-21.3,12.5s-16.77-5.2-21.3-12.5ZM175,244.23a48.89,48.89,0,0,0,25,6.94c27.1,0,50-22.9,50-50,0,27.1,22.9,50,50,50a48.89,48.89,0,0,0,25-6.94v31.94H294l-44,55-44-55H175ZM102.83,423.68l59.67-40.93V301.17H194l56,70,56-70H337.5V382.6L395,423.68Z"/></svg>