<svg id="Icons" xmlns="http://www.w3.org/2000/svg" viewBox="0 0 500 500"><title>Icon_Flag2_SVG_Black</title><path d="M125.11,449.1h-25V49.1h25V68.63c29.91-10,92.38-26,142.14-6.14,56.87,22.75,139.61-12,140.44-12.38l17.41-7.43v191L419,237.32c-2.05,1.23-39.08,22.92-95.87,22.92a232.26,232.26,0,0,1-64-9.12c-33.41-9.55-66.82-8.68-99.3,2.57a159.41,159.41,0,0,0-34.77,16.88Zm0-353.94V241.52A188.06,188.06,0,0,1,266,227.08c66.24,18.93,117.13-.16,134.07-8.09V79.57c-29.92,10-92.38,26-142.14,6.14C211.2,67,146.92,87.2,125.11,95.16Z"/></svg>