<svg id="Layer_1" data-name="Layer 1" xmlns="http://www.w3.org/2000/svg" viewBox="0 0 500 500"><title>Icon_Paper_Black</title><path d="M140.45,50.65v109.2H63.26V389.2c0,21.82,5,37.37,15.2,47.53,8.42,8.37,20,12.62,34.44,12.62,1.42-.07,3.11-.05,4.61-.12H373a63.84,63.84,0,0,0,63.77-63.77V50.65Zm0,338.55c0,27.66-7.18,34.1-23.15,35h-5.59v.1c-7.07-.17-12.19-1.91-15.63-5.32-5.19-5.16-7.82-15.19-7.82-29.81V184.85h52.19Zm271.29-3.74A38.81,38.81,0,0,1,373,424.23H159.45c6-12.69,6-27.07,6-35V75.65H411.74Z"/><rect x="223.91" y="135.66" width="130.04" height="25"/><rect x="191.93" y="227.16" width="193.9" height="25"/><rect x="191.93" y="279.77" width="193.9" height="25"/><rect x="191.93" y="332.39" width="118.23" height="25"/><rect x="347.38" y="332.39" width="39.56" height="25"/></svg>