<svg id="Icons" xmlns="http://www.w3.org/2000/svg" viewBox="0 0 500 500"><title>Icon_Document pdf_SVG_Black</title><path d="M154.31,327.05H181.1c16,0,29.72,5.85,29.72,24.32,0,17.89-14,25.66-29.27,25.66h-7.88v23.19H154.31Zm26.34,34.67c7.65,0,11.26-3.83,11.26-10.35s-4.28-9-11.71-9h-6.53v19.36Z"/><path d="M222.75,327.05h21.61c22.29,0,37.6,10.36,37.6,36.25s-15.31,36.92-36.47,36.92H222.75Zm20.48,57.63c10.59,0,18.91-4.27,18.91-21.38s-8.32-20.72-18.91-20.72h-1.12v42.1Z"/><path d="M295,327.05h47.73v16.21H314.37v14h24.32v16.21H314.37v26.79H295Z"/><path d="M361.36,447.85H138.86a39.32,39.32,0,0,1-25.37-9.62,33.86,33.86,0,0,1-12.13-25.38V85.35c0-19.95,16.12-35,37.5-35H291.54L398.86,157.67V412.85C398.86,432.8,382.74,447.85,361.36,447.85ZM138.86,75.35c-7.48,0-12.5,4-12.5,10v327.5c0,4.95,6.31,10,12.5,10h222.5c7.48,0,12.5-4,12.5-10V168L281.18,75.35Z"/><polygon points="376.36 175.35 276.36 175.35 276.36 75.35 301.36 75.35 301.36 150.35 376.36 150.35 376.36 175.35"/></svg>