<svg id="Layer_1" data-name="Layer 1" xmlns="http://www.w3.org/2000/svg" viewBox="0 0 500 500"><title>Icon_Document_Passport_Black</title><path d="M362.5,50H100V450H362.5c21.73,0,37.5-15.77,37.5-37.5V87.5C400,65.43,384.58,50,362.5,50ZM125,75h25V425H125ZM375,412.5c0,8.06-4.44,12.5-12.5,12.5H175V75H362.5c8.06,0,12.5,4.44,12.5,12.5Z"/><path d="M324.46,160.82a12.48,12.48,0,0,0-13.77,3.32l-110,122.51A12.49,12.49,0,0,0,210,307.5h57.52l43.88,41.57A12.51,12.51,0,0,0,332.5,340V172.49A12.5,12.5,0,0,0,324.46,160.82Zm-41,71L263.93,282.5H238Zm3.69,59.82L307.5,239.1v71.84Z"/></svg>