<svg id="Icons" xmlns="http://www.w3.org/2000/svg" viewBox="0 0 500 500"><title>Icon_Location marker place pin add_SVG_Black</title><path d="M187.61,431.6h-.11a12.53,12.53,0,0,1-10.32-5.6L69.68,263.5c-.15-.23-.29-.46-.42-.7-12.35-21.6-19.15-46-19.15-68.7,0-37.19,14.17-71.85,39.91-97.59s60.4-39.91,97.59-39.91,71.85,14.17,97.59,39.91,39.91,60.4,39.91,97.59h-25c0-63.08-49.42-112.5-112.5-112.5S75.11,131,75.11,194.1c0,18,5.7,38.4,15.66,56l97,146.7,17-24.73,20.6,14.16-27.5,40A12.49,12.49,0,0,1,187.61,431.6Z"/><path d="M325.11,419.06a100,100,0,1,1,100-100A100.07,100.07,0,0,1,325.11,419.06Zm0-175a75,75,0,1,0,75,75A75.13,75.13,0,0,0,325.11,244.06Z"/><rect x="312.61" y="269.1" width="25" height="100"/><rect x="275.11" y="306.6" width="100" height="25"/><path d="M187.61,256.6a62.5,62.5,0,1,1,62.5-62.5A62.57,62.57,0,0,1,187.61,256.6Zm0-100a37.5,37.5,0,1,0,37.5,37.5A37.54,37.54,0,0,0,187.61,156.6Z"/></svg>