<svg id="Icons" xmlns="http://www.w3.org/2000/svg" viewBox="0 0 500 500"><defs><style>.cls-1{isolation:isolate;}</style></defs><title>Icon_Quotation marks_SVG_Black</title><path d="M250.23,454.67l-3.25,0c-111.35-1.77-200.5-93.8-198.74-205.15S142,49,253.38,50.77s200.51,93.79,198.74,205.14C450.37,366.17,360.11,454.67,250.23,454.67ZM250.14,76C154,76,75,153.42,73.48,249.9c-1.54,97.44,76.47,178,173.9,179.5l2.84,0c96.16,0,175.13-77.44,176.66-173.92,1.54-97.44-76.47-178-173.9-179.5C252,76,251.08,76,250.14,76Z"/><g class="cls-1"><path d="M138,201.67c0-20,10-35.59,31.2-45.59l7.2,14.8c-12.8,5.6-19.2,13.6-19.2,25.39a6.8,6.8,0,0,1,2-.2c9.6,0,17.2,6.41,17.2,16.4,0,11.2-7.2,18.4-17.2,18.4C145.2,230.87,138,220.07,138,201.67Zm52,0c0-20,10-35.59,31.2-45.59l7.2,14.8c-12.8,5.6-19.2,13.6-19.2,25.39a6.8,6.8,0,0,1,2-.2c9.6,0,17.2,6.41,17.2,16.4,0,11.2-7.2,18.4-17.2,18.4C197.2,230.87,190,220.07,190,201.67Z"/></g><g class="cls-1"><path d="M302.65,288.86c0,20-10,35.6-31.2,45.6l-7.2-14.8c12.8-5.6,19.2-13.6,19.2-25.4a6.8,6.8,0,0,1-2,.2c-9.6,0-17.2-6.4-17.2-16.4,0-11.2,7.2-18.4,17.2-18.4C295.45,259.66,302.65,270.46,302.65,288.86Zm52,0c0,20-10,35.6-31.2,45.6l-7.2-14.8c12.8-5.6,19.2-13.6,19.2-25.4a6.8,6.8,0,0,1-2,.2c-9.6,0-17.2-6.4-17.2-16.4,0-11.2,7.2-18.4,17.2-18.4C347.45,259.66,354.65,270.46,354.65,288.86Z"/></g></svg>