<svg id="Layer_1" data-name="Layer 1" xmlns="http://www.w3.org/2000/svg" viewBox="0 0 500 500"><title>Icon_Document_Page_Pen_Black</title><path d="M113.75,51.25c-21.37,0-37.5,15-37.5,35v327.5c0,18.65,17.53,35,37.5,35h222.5c21.37,0,37.5-15,37.5-35V158.57L266.42,51.25Zm162.5,45.17,54.82,54.83H276.25Zm60,327.33H113.75c-6.19,0-12.5-5.05-12.5-10V86.25c0-6,5-10,12.5-10h137.5v100h97.5v237.5C348.75,419.73,343.72,423.75,336.25,423.75Z"/><rect x="126.25" y="376.25" width="100" height="25"/><rect x="126.25" y="326.25" width="175" height="25"/><rect x="126.25" y="276.25" width="125" height="25"/><polygon points="398.75 176.25 398.75 201.25 398.75 201.25 398.75 201.25 398.75 201.25 398.75 398.75 423.75 398.75 423.75 201.25 423.75 176.25 398.75 176.25"/><rect x="398.75" y="423.75" width="25" height="25"/></svg>