<svg id="Icons" xmlns="http://www.w3.org/2000/svg" viewBox="0 0 500 500"><title>Icon_Salutations and signoffs_SVG_Black</title><path d="M250.2,451.84l-3.29,0a201.86,201.86,0,0,1-198.62-205C50.06,135.52,142,46.41,253.31,48.18h0c111.28,1.77,200.38,93.74,198.62,205A201.85,201.85,0,0,1,250.2,451.84Zm-.13-378.68c-96.22,0-175.25,77.48-176.78,174a176.84,176.84,0,0,0,353.64,5.6c1.55-97.5-76.52-178.08-174-179.62C252,73.16,251,73.16,250.07,73.16Z"/><path d="M261,273l-37.8-2V232.54L332.46,123.3l39.15,39.15Zm-12.8-25.71,3,.16,85-85-3.8-3.8L248.22,242.9Z"/><path d="M163.33,348.93h-.65c-7.5-.24-14.44-4.94-18.55-12.59s-4.72-15.69-4.85-22c-.22-11,1-21.66,2.25-32,1.08-9.21,2.11-17.91,2.1-26.55a42.34,42.34,0,0,0-.39-6.33c-2.08,3.6-5.06,11.18-7.38,25.19a236.89,236.89,0,0,0-2.79,27l-25-.86a262.93,262.93,0,0,1,3-29.46c3.8-23.41,9.91-37.55,19.24-44.49A22.72,22.72,0,0,1,150,223c12.36,3.25,18.63,14.29,18.64,32.81,0,10.11-1.15,20-2.27,29.49-1.17,9.92-2.27,19.29-2.08,28.55,0,1.39.09,2.92.25,4.43,3.19-5.81,6-11.94,8.94-18.36a243.28,243.28,0,0,1,12.7-25.09c1.16-1.92,3.88-6.41,9.32-8.66,3.31-1.36,10.1-2.84,18.21,2.7a60.41,60.41,0,0,1,10.74,10,47.79,47.79,0,0,0,5.72,5.7c4.57,3.49,11.75,5,22,4.67,28.85-1,90.79-.72,124.07-.57l8.46,0-.1,25-8.47,0c-33.11-.14-94.74-.4-123.1.57-16.21.56-28.65-2.65-38-9.79a67.29,67.29,0,0,1-9.09-8.81c-.58-.64-1.15-1.27-1.71-1.87-2.8,5.28-5.34,10.81-8,16.58a249.19,249.19,0,0,1-12.39,24.57C178.25,344.22,171.36,348.93,163.33,348.93Z"/></svg>