<svg id="Layer_1" data-name="Layer 1" xmlns="http://www.w3.org/2000/svg" viewBox="0 0 500 500"><title>Icon_Stapler_Black</title><path d="M193.62,312.5v25H425.37v25h-350v-37a62,62,0,0,0,36.78,12.22h.28a62.61,62.61,0,0,0,61.45-52.88L449.63,213.7l0-25.32.15-3.83a71,71,0,0,0-70.19-72.05,106.64,106.64,0,0,0-34.94,6.08l-256,98.75-.25.1a62.29,62.29,0,0,0-38.74,58.11,60.43,60.43,0,0,0,.74,7V387.5h400v-75ZM97.76,240.6,353.24,142a81.13,81.13,0,0,1,26.2-4.54,46,46,0,0,1,45.31,46.66l-.12,10.15-275,71,0,9.72a37.54,37.54,0,0,1-37.32,37.69h-.16a37.55,37.55,0,0,1-36.78-30.26V275h-.68A37.34,37.34,0,0,1,97.76,240.6Z"/><path d="M111.87,293.75A18.75,18.75,0,1,0,93.12,275,18.78,18.78,0,0,0,111.87,293.75Zm0-25a6.27,6.27,0,0,1,6.25,6.25c0,6.88-12.5,6.88-12.5,0A6.27,6.27,0,0,1,111.87,268.75Z"/></svg>