<svg id="Icons" xmlns="http://www.w3.org/2000/svg" viewBox="0 0 500 500"><title>Icon_Facebook_SVG_Black</title><path d="M355.11,451.6h-90v-130h-40v-90h42.5v-25c0-15.38,0-34.53,5.64-51.45l.37-1c7.76-18.11,23.17-33.65,43.4-43.76l.67-.31c16.53-7.08,32.86-6.62,47.28-6.2,3.5.1,6.82.19,10.14.19h47.5v87.57l-57.51-.07c-5.35,0-7.14,1.88-8.27,3.92a15.66,15.66,0,0,0-1.72,6.2V231.6h70.05L394,321.6h-38.9Zm-65-25h40v-130h46.1l13.84-40H330.11v-55c0-14.07,9.32-35,35-35l32.5,0V129.1h-22.5c-3.68,0-7.33-.1-10.86-.2-12.86-.37-25-.72-36.39,4-8.63,4.37-23.74,14-31.06,30.6-4.19,13-4.19,28.95-4.19,43v50h-42.5v40h40Z"/></svg>