<svg id="Icons" xmlns="http://www.w3.org/2000/svg" viewBox="0 0 500 500"><title>Icon_Folder add plus_SVG_Black</title><path d="M237.61,376.6H60.11a12.5,12.5,0,0,1-12.5-12.5V86.6a12.5,12.5,0,0,1,12.5-12.5h152.5a12.5,12.5,0,0,1,12.5,12.5v40h210a12.5,12.5,0,0,1,12.5,12.5v100h-25V151.6h-210a12.5,12.5,0,0,1-12.5-12.5v-40H72.61V351.6h165Z"/><rect x="100.11" y="201.6" width="175" height="25"/><path d="M350.11,426.6a100,100,0,1,1,100-100A100.11,100.11,0,0,1,350.11,426.6Zm0-175a75,75,0,1,0,75,75A75.09,75.09,0,0,0,350.11,251.6Z"/><rect x="300.11" y="314.1" width="97.5" height="25"/><rect x="337.61" y="276.6" width="25" height="100"/></svg>