<svg id="Icons" xmlns="http://www.w3.org/2000/svg" viewBox="0 0 500 500"><title>Icon_Fast forward speed_SVG_Black</title><path d="M62.61,401.6a12.5,12.5,0,0,1-12.5-12.5v-275A12.49,12.49,0,0,1,70,104l47.5,35-14.83,20.12L75.11,138.84V363.31l27.25-21.52,15.5,19.62-47.5,37.5A12.48,12.48,0,0,1,62.61,401.6Z"/><path d="M150.11,426.6a12.51,12.51,0,0,1-12.5-12.5V86.6a12.5,12.5,0,0,1,20.95-9.21l60,55-16.9,18.43-39-35.8V385.69l39-35.8,16.9,18.43-60,55A12.53,12.53,0,0,1,150.11,426.6Z"/><path d="M250.11,449.1a12.5,12.5,0,0,1-12.5-12.5V64.1A12.51,12.51,0,0,1,259,55.32l185,187.5a12.51,12.51,0,0,1-.06,17.62l-185,185A12.5,12.5,0,0,1,250.11,449.1Zm12.5-354.53V406.42L417.49,251.54Z"/></svg>