<svg id="Layer_1" data-name="Layer 1" xmlns="http://www.w3.org/2000/svg" viewBox="0 0 500 500"><title>Icon_Leopard_Paw_And_Game_Reserve_Black</title><path d="M348.24,305.74c-4.38-2.62-8.78-5.23-12.85-8.21-7.41-6-12.46-15.4-17.81-25.36-4.37-8.16-8.9-16.58-14.89-23.81-13-17-32.66-27.12-54.9-27.9-28.32,1-54,17.33-66.72,41.77a216.84,216.84,0,0,1-24.49,32.89,348.88,348.88,0,0,0-31.5,23.34,64.18,64.18,0,0,0-18.31,45.38c1.91,37.67,33.3,67.19,70.16,67.19,1,0,2,0,3.08-.07,7.14,0,16.65-3.67,32.82-10.11,12-4.81,28.54-11.4,35.18-11.4s23.65,6.93,34.88,11.55c15.53,6.34,24.67,10,31,9.93h0c38.79,2.08,71.81-28.39,73.8-67.72C387.76,329.3,365.85,316.24,348.24,305.74ZM314.72,406c-3.24-.27-14.3-4.81-22.37-8.11-16.1-6.59-32.75-13.4-44.34-13.4-11.44,0-28.22,6.69-44.46,13.18-8.06,3.22-20.27,8.08-24.09,8.35-25.34,1-46.45-18.38-47.71-42.72,0-10.28,4-20,10.18-26.39a328.37,328.37,0,0,1,29.63-21.66l2.43-2.08a241.42,241.42,0,0,0,28.86-38.67c8.94-17.18,26.51-28.29,45-29a46.23,46.23,0,0,1,35.32,18.48c4.7,5.66,8.45,12.65,12.43,20,6.33,11.82,12.89,24,24.4,33.23l.38.29c4.77,3.52,9.94,6.62,15.1,9.7,17.44,10.4,27.32,17.21,27.33,35.37C361.51,387.62,339.69,407.76,314.72,406Z"/><path d="M116.15,277.49c11.21-3.15,19.72-9.89,24.62-19.46,9.42-18.41,2.63-41.28.8-46.7-3.43-15.65-16.27-39.8-33.91-43.78-9.38-2.14-18.58,1.66-25.65,11.11a42.73,42.73,0,0,0-6.53,17.48c-2.83,15-6,57.79,13,75.3a27.13,27.13,0,0,0,18.75,7.3A33.93,33.93,0,0,0,116.15,277.49Zm-10.73-24.44c-7-6.44-8.8-34.13-5.26-53a78.94,78.94,0,0,1,2-8.1c3.92,1.1,12.89,14,15.14,25.22l.5,1.81c1.6,4.46,5.16,19.16.75,27.73-1.09,2.1-3.21,5.08-9.07,6.71C106.64,254.17,106,253.52,105.42,253.05Z"/><path d="M424.32,195.07A46.8,46.8,0,0,0,417,176.86c-6.62-8.67-15.82-12.31-25.1-10.23-17.46,4-30.26,28.51-33.68,44.33-1.69,5.2-8.06,27.91,1.68,46.22,5.18,9.74,14.07,16.53,25.7,19.6a31.91,31.91,0,0,0,8.29,1.13,26.63,26.63,0,0,0,18.52-7.35C431,253.05,427.09,208.84,424.32,195.07Zm-29.09,57.27c-.46.44-1,.86-3.27.27-6.46-1.71-8.8-4.88-10-7.1-4.56-8.5-1.36-22.88.13-27.25l.43-1.61c2.28-11.38,11.14-24.51,14-25.37a22,22,0,0,1,3.21,8.38C403.42,218,402.07,245.92,395.23,252.34Z"/><path d="M193.63,207c.9,0,1.81-.05,2.71-.1,14.8-1,27.08-7,35.53-17.48,16.33-20.16,13.66-49.83,12.87-56.15-.46-20.87-17-51.83-38.12-61.33-12-5.3-24.53-3.42-35,5.94A55.91,55.91,0,0,0,159,97.27c-9.54,22.19-12.59,69.77,4.36,93.77C170.72,201.42,181.37,207,193.63,207ZM182.18,106.66A32.33,32.33,0,0,1,188.82,96c1.58-1.39,2.89-2,4.37-2a7.6,7.6,0,0,1,3.2.83c11.6,5.18,23.36,27.29,23.36,39.4l.13,1.76c.94,6.81,1.44,26.88-7.48,37.82-4.07,5-9.87,7.69-17.71,8.2-4.8.37-8-1.27-10.9-5.37C173.11,161.5,175.09,123.19,182.18,106.66Z"/><path d="M305.19,206.93c.9,0,1.81.1,2.7.1,12.24,0,22.91-5.61,30.25-16,16.95-24,13.9-71.58,4.54-93.31a57.32,57.32,0,0,0-13.36-20.36c-9.88-8.84-22.47-10.82-34.42-5.4-21.18,9.5-37.67,40.46-38.13,61.33-.8,6.32-3.45,36,12.87,56.15C278.1,199.9,290.38,205.93,305.19,206.93Zm-23.56-71,.12-1.74c0-12.11,11.78-34.2,23.38-39.4a8.11,8.11,0,0,1,3.34-.88,5.39,5.39,0,0,1,3.65,1.56,33.07,33.07,0,0,1,7.4,11.65c6.91,16.06,8.88,54.37-1.81,69.48-2.86,4.08-6,5.76-10.87,5.37-7.85-.51-13.65-3.2-17.73-8.2C280.2,162.84,280.69,142.75,281.63,135.94Z"/></svg>