<svg id="Icons" xmlns="http://www.w3.org/2000/svg" viewBox="0 0 500 500"><title>Icon_Image picture_SVG_Black</title><path d="M387.61,424.1H110.11c-20,0-35-16.12-35-37.5V74.1h347.5V386.6C422.61,408,407.56,424.1,387.61,424.1Zm-287.5-325V386.6c0,7.48,4,12.5,10,12.5h277.5c6,0,10-5,10-12.5V99.1Z"/><polygon points="94.08 327.81 76.14 310.39 170.21 213.56 226.67 272.99 208.55 290.21 170.01 249.64 94.08 327.81"/><polygon points="146.4 420.49 128.82 402.71 350.16 183.97 418.95 252.76 401.27 270.44 350.06 219.23 146.4 420.49"/></svg>