<svg id="Icons" xmlns="http://www.w3.org/2000/svg" viewBox="0 0 500 500"><title>Icon_No cellphones_SVG_Black</title><path d="M397.55,381.65c-37.5,42.5-90,67.5-150,67.5-110,0-200-90-200-200,0-42.5,12.5-80,35-112.5l17.5,17.5c-17.5,30-27.5,62.5-27.5,97.5,0,97.5,77.5,175,175,175,42.5,0,82.5-17.5,115-42.5l-85-85,17.5-17.5Z"/><path d="M100.05,119.15c35-42.5,90-70,150-70,110,0,197.5,90,197.5,202.5,0,42.5-12.5,80-35,112.5l-17.5-17.5a176,176,0,0,0,27.5-95c0-97.5-80-175-175-175-42.5-2.5-82.5,15-112.5,42.5l54.17,54.17-17.5,17.5-71.67-71.67"/><path d="M295.05,389.15h-92.5a35,35,0,0,1-35-35v-205a35,35,0,0,1,35-35h90c21.38,0,37.5,15,37.5,35v205A35,35,0,0,1,295.05,389.15Zm-92.5-250a9.89,9.89,0,0,0-10,10v205a9.89,9.89,0,0,0,10,10h92.5a9.89,9.89,0,0,0,10-10v-205c0-6-5-10-12.5-10Z"/><rect x="180.05" y="276.65" width="137.5" height="25"/><circle cx="247.55" cy="329.15" r="17.5"/></svg>