<svg id="Layer_1" data-name="Layer 1" xmlns="http://www.w3.org/2000/svg" viewBox="0 0 500 500"><title>Icon_Air_Conditioner_Black</title><path d="M408.58,49.68H91.42a52.85,52.85,0,0,0-52.78,52.79V252.34a52.85,52.85,0,0,0,52.78,52.79H408.58a52.85,52.85,0,0,0,52.78-52.79V102.47A52.85,52.85,0,0,0,408.58,49.68Zm-317.16,25H408.58a27.83,27.83,0,0,1,27.78,27.79V190H63.64V102.47A27.83,27.83,0,0,1,91.42,74.68ZM408.58,280.13H91.42a27.81,27.81,0,0,1-27.78-27.79V215H436.36v37.33A27.81,27.81,0,0,1,408.58,280.13Z"/><path d="M273.21,346.56l-9.38-23.2c-31.44,12.75-22.12,44.12-15.94,64.9,8.18,27.46,7.54,34.37-3.62,38.91l9.43,23.15c34.57-14.07,24.68-47.24,18.16-69.19C264,354.74,265.15,349.8,273.21,346.56Z"/><path d="M207.26,346.56l-9.37-23.2c-31.45,12.75-22.1,44.12-15.9,64.87,8.18,27.47,7.55,34.38-3.66,38.94l9.43,23.15c34.64-14.07,24.73-47.27,18.18-69.24C198.08,354.74,199.23,349.8,207.26,346.56Z"/><path d="M139.69,346.56l-9.38-23.2c-31.45,12.75-22.12,44.12-15.94,64.9,8.18,27.46,7.54,34.37-3.62,38.91l9.43,23.15c34.57-14.07,24.68-47.24,18.16-69.19C130.48,354.74,131.63,349.8,139.69,346.56Z"/><rect x="103.36" y="233.94" width="197.29" height="25"/><rect x="323.45" y="233.94" width="32.13" height="25"/><rect x="376.72" y="233.94" width="32.1" height="25"/><polygon points="394.69 355.1 376.36 369.04 376.36 346.02 351.36 346.02 351.36 368.67 333.48 354.76 318.1 374.49 343.35 394.14 317.88 413.5 333.02 433.42 351.36 419.48 351.36 442.5 376.36 442.5 376.36 419.83 394.25 433.76 409.63 414.04 384.38 394.38 409.83 375.02 394.69 355.1"/></svg>