<svg id="Icons" xmlns="http://www.w3.org/2000/svg" viewBox="0 0 500 500"><title>Icon_Ampersand_SVG_Black</title><path d="M250.23,454.55l-3.25,0c-111.28-1.76-200.38-93.73-198.62-205s93.75-200.39,205-198.62h0c111.28,1.76,200.38,93.74,198.62,205C450.25,366.1,360,454.55,250.23,454.55Zm-.09-378.69c-96.22,0-175.25,77.49-176.78,174-1.54,97.5,76.52,178.08,174,179.63l2.84,0c96.22,0,175.25-77.49,176.78-174C428.55,158,350.48,77.43,253,75.88Z"/><path d="M183.71,281.48c0-18.2,10.6-28.6,23-36.2-5-9-7.8-18-7.8-25.8,0-18.8,14.4-35.2,37.6-35.2,20.8,0,34.4,12,34.4,30.8,0,17-12.8,27.6-26,36.2a153.48,153.48,0,0,0,22.8,19.4,84.09,84.09,0,0,0,14-28.8h31.2a137.11,137.11,0,0,1-21.2,42.6,72.77,72.77,0,0,0,21.6,7l-8,27.6c-11.4-2-23.2-6.4-34.8-12.6-11.4,7.8-25.4,12.6-42,12.6C198.31,319.08,183.71,301.08,183.71,281.48Zm62,8.4a169.38,169.38,0,0,1-23.6-22.6c-3.6,3.8-6,7.6-6,12.2,0,8,6.4,13.6,16.8,13.6A31,31,0,0,0,245.71,289.88Zm-15-57.4c8.2-4.8,14.2-9.8,14.2-17.4,0-5.6-2.6-8.4-7.6-8.4-5.4,0-10.2,4.4-10.2,12.8A28.45,28.45,0,0,0,230.71,232.48Z"/></svg>