<svg id="Icons" xmlns="http://www.w3.org/2000/svg" viewBox="0 0 500 500"><title>Icon_Document tax_SVG_Black</title><path d="M169.17,343.26H149.8V327.05h58.09v16.21H188.53v57H169.17Z"/><path d="M227.25,327.05h23.41L273,400.22H252.46l-3.6-15.53H228.37l-3.6,15.53H205Zm4.61,42.67h13.51l-1.24-5.07c-1.8-7-3.6-15.87-5.4-23.19h-.45c-1.58,7.43-3.38,16.21-5.18,23.19Z"/><path d="M301.09,362.62,282.4,327.05H304L309,339c1.57,3.37,3.15,7.43,5.18,12.15h.45c1.57-4.72,3.15-8.78,4.5-12.15l4.28-11.94h20.71L325.4,363.52l19.81,36.7H323.6l-5.85-13.06c-1.8-3.82-3.38-7.65-5.18-12.15h-.45c-1.58,4.5-3.15,8.33-4.73,12.15L302,400.22H281.28Z"/><path d="M361.36,447.85H138.86a39.32,39.32,0,0,1-25.37-9.62,33.86,33.86,0,0,1-12.13-25.38V85.35c0-19.95,16.12-35,37.5-35H291.54L398.86,157.67V412.85C398.86,432.8,382.74,447.85,361.36,447.85ZM138.86,75.35c-7.48,0-12.5,4-12.5,10v327.5c0,4.95,6.31,10,12.5,10h222.5c7.48,0,12.5-4,12.5-10V168L281.18,75.35Z"/><polygon points="376.36 175.35 276.36 175.35 276.36 75.35 301.36 75.35 301.36 150.35 376.36 150.35 376.36 175.35"/></svg>