<svg id="Icons" xmlns="http://www.w3.org/2000/svg" viewBox="0 0 500 500"><title>Icon_Word document_SVG_Black</title><path d="M164.82,322.6H143.21v73.17H166c21.16,0,36.47-11,36.47-36.92S187.11,322.6,164.82,322.6Zm-1.13,57.64h-1.12v-42.1h1.12c10.59,0,18.92,3.6,18.92,20.71S174.28,380.24,163.69,380.24Z"/><path d="M244.07,321.25c-20.27,0-34,13.51-34,37.6s13.73,38.27,34,38.27,34-14.18,34-38.27S264.33,321.25,244.07,321.25Zm0,59.21c-8.79,0-14.19-8.33-14.19-21.61s5.4-20.94,14.19-20.94,14.18,7.66,14.18,20.94S252.84,380.46,244.07,380.46Z"/><path d="M321.28,380.46c-9.45,0-15.76-7.65-15.76-21.39,0-13.28,7.43-21.16,16-21.16,4.95,0,8.55,2.25,12.15,5.41l10.14-12.39a32.33,32.33,0,0,0-22.74-9.68c-18.46,0-35.35,14-35.35,38.5,0,25,16.21,37.37,34.9,37.37a30.89,30.89,0,0,0,24.09-10.8l-10.13-12.16C331.41,377.53,326.91,380.46,321.28,380.46Z"/><path d="M285.74,45.9H133.06c-21.37,0-37.5,15.05-37.5,35V408.4c0,9.46,4.42,18.71,12.13,25.39a39.36,39.36,0,0,0,25.37,9.61h222.5c21.38,0,37.5-15,37.5-35V153.22Zm9.82,45.18,54.83,54.82H295.56Zm60,327.32H133.06c-6.19,0-12.5-5-12.5-10V80.9c0-6,5-10,12.5-10h137.5v100h97.5V408.4C368.06,414.38,363,418.4,355.56,418.4Z"/></svg>