<svg id="Icons" xmlns="http://www.w3.org/2000/svg" viewBox="0 0 500 500"><title>Icon_Sars_SVG_Black</title><g id="f7f17cdc-86bd-4484-afd7-b741113e6f50"><path d="M343,450.6c-32.22,0-56.22-5.32-73.38-16.27-21.81-13.92-32.87-36.79-32.87-68,0-47.65,37.8-85.21,65.16-106.16l-18.75-18.75a12.64,12.64,0,0,1-1.69-2.1A17.25,17.25,0,0,1,293.27,213a12,12,0,0,1,2-.16h98c.31,0,.62,0,.93,0a17.24,17.24,0,0,1,12.74,27.22,12.49,12.49,0,0,1-1.37,1.62l-20.28,20.09c22.14,16.42,64.23,54.27,64.23,104.53,0,31.18-11.11,54.06-33,68C399.28,445.28,375.24,450.6,343,450.6ZM325.51,248.44a17,17,0,0,1,1.88,23.35,17.17,17.17,0,0,1-2.48,2.49c-.23.18-.45.36-.69.52-54.35,38.49-62.47,73.88-62.47,91.55,0,22.72,6.77,37.62,21.32,46.9,13,8.31,32.62,12.35,59.93,12.35s47-4,60.07-12.36c14.62-9.29,21.43-24.19,21.43-46.89,0-17.1-6.83-34.59-20.29-52C390,296,372.34,282.91,363.09,276.77c-.33-.22-.64-.45-.94-.69a17,17,0,0,1-2.54-23.92,17.27,17.27,0,0,1,1.91-2l12.42-12.3h-59Zm-16.37,18.88h0Z"/><polygon points="74.75 451.6 49.75 451.6 49.75 51.6 299.75 51.6 299.75 189.1 274.75 189.1 274.75 76.6 74.75 76.6 74.75 451.6"/><polygon points="199.75 451.6 174.75 451.6 174.75 351.6 124.75 351.6 124.75 451.6 99.75 451.6 99.75 326.6 199.75 326.6 199.75 451.6"/><rect x="99.75" y="101.6" width="25" height="50"/><rect x="149.75" y="101.6" width="25" height="50"/><rect x="199.75" y="101.6" width="25" height="50"/><rect x="99.75" y="176.6" width="25" height="50"/><rect x="149.75" y="176.6" width="25" height="50"/><rect x="199.75" y="176.6" width="25" height="50"/><rect x="99.75" y="251.6" width="25" height="50"/><rect x="149.75" y="251.6" width="25" height="50"/><rect x="199.75" y="251.6" width="25" height="50"/><rect x="292.26" y="344.6" width="107.48" height="25" transform="translate(-151.17 349.25) rotate(-45)"/><circle cx="384" cy="384.85" r="18.75"/><circle cx="315.5" cy="326.35" r="18.75"/></g></svg>