<svg id="Layer_1" data-name="Layer 1" xmlns="http://www.w3.org/2000/svg" viewBox="0 0 500 500"><title>Icon_ID_Document_Card_Black</title><path d="M413.75,93.75H86.25a35,35,0,0,0-35,35v242.5a35,35,0,0,0,35,35h327.5c19.95,0,35-16.11,35-37.5v-240A35,35,0,0,0,413.75,93.75Zm10,275c0,7.47-4,12.5-10,12.5H86.25a9.89,9.89,0,0,1-10-10V168.75h322.5v-25H76.25v-15a9.9,9.9,0,0,1,10-10h327.5a9.9,9.9,0,0,1,10,10Z"/><path d="M161.25,293.75a50,50,0,1,0-50-50A50.06,50.06,0,0,0,161.25,293.75Zm0-75a25,25,0,1,1-25,25A25,25,0,0,1,161.25,218.75Z"/><path d="M198.75,306.25h-72.5c-14.39,0-27.5,13.11-27.5,27.51v22.49h25V333.89a4.73,4.73,0,0,1,2.51-2.64h72.38a4.69,4.69,0,0,1,2.62,2.51v22.49h25V333.76C226.25,319.36,213.14,306.25,198.75,306.25Z"/><rect x="273.75" y="193.75" width="127.5" height="25"/><rect x="273.75" y="243.75" width="125" height="25"/><rect x="273.75" y="293.75" width="75" height="25"/></svg>