<svg id="Layer_1" data-name="Layer 1" xmlns="http://www.w3.org/2000/svg" viewBox="0 0 500 500"><title>Icon_Writing_Blog_Black</title><path d="M199.32,301.71l65.6-9.35L412.3,145,356.07,88.75,208.7,236.13Zm32.94-53.81L356.07,124.1,377,145,253.13,268.77l-24.34,3.5Z"/><path d="M450.81,70.78,430.24,50.22c-9.81-9.84-27.54-8.08-39.51,3.86L364.09,80.71l56.23,56.23L447,110.3C459.51,97.75,461.14,81.13,450.81,70.78ZM429.28,92.63l-9,9L399.44,80.71l8.95-9c2.28-2.27,5.05-3,4.19-3.85l20,19.41C432.57,87.72,432.05,89.87,429.28,92.63Z"/><path d="M402.42,354c0,7.52-4,11.5-11.5,11.5H318.43V395.8l-30.34-30.32H78.91c-7.52,0-11.5-4-11.5-11.5V114c0-7.52,4-11.5,11.5-11.5H321.43v-25H78.91c-21.15,0-36.5,15.35-36.5,36.5V354c0,21.14,15.35,36.5,36.5,36.5H277.74l65.69,65.67V390.48h47.49c21.16,0,36.5-15.36,36.5-36.5V180.66h-25Z"/></svg>