<svg id="Layer_1" data-name="Layer 1" xmlns="http://www.w3.org/2000/svg" viewBox="0 0 500 500"><title>Icon_Spiderweb_Black</title><path d="M448.68,262.72l0-25-24.21,0c-28.09-16.81-40.26-75.64-43.07-101.16l18.06-18-17.65-17.68L362.11,120.5c-57.7-10.17-91.35-36.84-99.4-44l0-25.12-25-.05,0,26.73c-68.06,47.54-103.63,36.88-105.29,36.34l-.14-.06-13.76-13.79-17.7,17.68,13.86,13.89C111,193.32,83.53,227.49,74.13,237.31l-22.81,0,0,25,23.25,0c24.88,17.82,40.3,71.32,46,99.24l-20,19.94,17.65,17.68,18.35-18.31c48.64,4.7,86.06,28.63,100.79,39.56l0,28.24,25,0,0-23.55c50.11-36.47,87.69-42.84,101-43.85l18.14,18.18,17.7-17.68-16.26-16.29c7.49-61.49,34.66-94,43.21-102.82Zm-59.59-25.07-29,0C347,228.7,339.21,200.32,336.8,181l22.59-22.54C363.39,180.7,371.94,213.66,389.09,237.65ZM262.6,170a156.32,156.32,0,0,0,35,14.87l-35,35ZM237.54,219.8l-35.25-35.33c9.73-2.28,21.52-6.67,35.31-14.52Zm-17.71,17.67-51-.06a130,130,0,0,0,14-37.1Zm0,25-35,34.9a162,162,0,0,0-14.36-35Zm17.65,17.67-.06,49.07a151.74,151.74,0,0,0-35.15-13.93Zm25,.07,35.58,35.66c-9.85,2.9-21.92,8-35.64,16.09Zm17.7-17.68,50.9.06c-5.35,9-10.62,21.32-14.47,36.45Zm0-25,35.07-35c2.5,10.88,6.57,23.72,12.87,35.05Zm60.59-95.74-22.53,22.48c-30.77-6-49.44-19.35-55.61-24.53l0-31.79C278.78,119,304.73,133.09,340.77,141.79ZM237.67,108l0,32.32c-35.52,24.17-55.11,21.75-58.53,20.94L158,140.06C177,137.66,203.67,129.36,237.67,108ZM137.53,155l23.33,23.38c-2.51,32.86-16.3,52.11-22.45,59l-32.48,0C117.77,220.22,131.72,193,137.53,155ZM108.84,262.34l30.25,0c11.91,9.67,21,36.1,25.18,55.51l-22.84,22.79C135.87,318.23,125.66,286.08,108.84,262.34Zm49.74,96.51L181,336.46c26.17,3.09,46.76,15.27,56.36,22.06l0,31.62A235.92,235.92,0,0,0,158.58,358.85Zm103.76,36,0-33.29c26.75-19,47.41-23.8,56.42-24.91l22.76,22.82C322.48,363.77,295,373.63,262.34,394.86ZM361,343.58l-23.24-23.3c4.53-33.17,18.07-51.33,23.87-57.66l32.34,0C382.34,279.26,368.42,305.78,361,343.58Z"/></svg>