<svg id="Icons_Cellphone_Rand_Black" xmlns="http://www.w3.org/2000/svg" viewBox="0 0 500 500"><title>Icons_Envelope_Hand_Black</title><path d="M51.25,51.25v247.5h50c0,84.11,64.79,150,147.5,150,81.3,0,150-68.68,150-150h50V51.25Zm347.5,190.23V181.25l-.95-4.81c-6.37-15.28-19.5-25.27-37-28.14-3.11-.5-6.33-.25-9.51-.28l72.47-58.2v171ZM183.4,175.87,76.25,260.46V89.82ZM99.28,76.25H400.72L263.43,186.49a21.35,21.35,0,0,1-26.83,0Zm.47,197.5L203.4,191.93,221,206a46.28,46.28,0,0,0,58.13,0l11-8.84a107.48,107.48,0,0,0-1.33,16.6l.19,23.26c-12.31,2-37,9.87-51.42,36.74Zm149,150c-68.7,0-122.5-54.9-122.5-125H228.61a129.68,129.68,0,0,0-2.36,25v12.5h25v-12.5c0-60,40.47-62.42,45-62.5,10.84,0,17.51-11.65,17.51-20v-27.5c0-13.81,2.31-23.08,6.9-29.28,7.47-8.52,23.12-13.6,36.11-11.5,8,1.32,13.75,5.05,17,11.06v69.42l-.14.19.14.11v45C373.75,366.52,316.5,423.75,248.75,423.75Zm150-150.68.89.68h-.89Z"/></svg>