<svg id="Icons" xmlns="http://www.w3.org/2000/svg" viewBox="0 0 500 500"><title>Icon_Skip backward_SVG_Black</title><path d="M250.11,51.6c-110.28,0-200,89.72-200,200s89.72,200,200,200,200-89.72,200-200S360.39,51.6,250.11,51.6Zm0,375c-96.5,0-175-78.5-175-175s78.5-175,175-175,175,78.51,175,175S346.61,426.6,250.11,426.6Z"/><path d="M356.24,175.71a12.52,12.52,0,0,0-12.62.21l-51,31V176.6A12.5,12.5,0,0,0,273,166.32l-97.9,67.59V161.6h-25V339.1h25V264.64l97.58,72a12.5,12.5,0,0,0,19.92-10.06V293.14l51.3,29.32a12.5,12.5,0,0,0,18.7-10.86v-125A12.51,12.51,0,0,0,356.24,175.71ZM337.61,290.06l-51.3-29.31a12.5,12.5,0,0,0-18.7,10.85v30.24l-71-52.4,71-49V229.1a12.5,12.5,0,0,0,19,10.69l51-31Z"/></svg>