<svg id="Icons" xmlns="http://www.w3.org/2000/svg" viewBox="0 0 500 500"><title>Icon_Tax_On_Salaries_Black</title><polygon points="75 48.03 75 173.03 100 173.03 100 73.03 400 73.03 400 173.03 425 173.03 425 48.03 75 48.03"/><path d="M125,415.58A33.39,33.39,0,0,0,158.24,448h5.59l29.64-21.63L223.89,452l28.75-25,29.65,24.92,29.5-25L336.88,448l4.47.06c17.79.52,33.21-14.33,33.65-32.75V98H125ZM150,123H350V415a8.24,8.24,0,0,1-4.82,7.3l-33.46-28.11-29.51,25-29.84-25.08-28.75,25-29.08-24.43-38.46,28.08a8.17,8.17,0,0,1-6.08-7.46Z"/><rect x="175" y="291.53" width="100" height="25"/><rect x="175" y="241.53" width="150" height="25"/><polygon points="192.03 210.28 205.29 210.28 205.29 162.99 221.31 162.99 221.31 151.89 175.99 151.89 175.99 162.99 192.03 162.99 192.03 210.28"/><path d="M231.91,210.28l3.58-13.87h17.82l3.59,13.87h14L252.6,151.89H236.74l-18.27,58.39Zm7.7-29.55c.83-2.93,1.63-6,2.37-9.28s1.48-6.43,2.2-9.53h.35c.78,3,1.55,6.2,2.33,9.49s1.59,6.39,2.42,9.32l1.34,5.37H238.17Z"/><path d="M289.14,210.28l5.46-11.91q1-2.33,2-4.61c.66-1.53,1.32-3.18,2-5h.35c.83,1.79,1.6,3.44,2.28,5s1.4,3.06,2.1,4.61l5.83,11.91H323.8L307.68,180.9l15.13-29H308.75l-4.65,11c-.6,1.38-1.22,2.82-1.84,4.34s-1.27,3.21-1.93,5.07H300c-.85-1.86-1.59-3.54-2.24-5.07s-1.32-3-2-4.34l-5.1-11H276l15.24,28.39-16.21,30Z"/></svg>