<svg id="Layer_1" data-name="Layer 1" xmlns="http://www.w3.org/2000/svg" viewBox="0 0 500 500"><title>Icon_Document_Pages_Black</title><path d="M357.57,76.25h-94.9l-25-25H87.5c-21.37,0-37.5,15-37.5,35v327.5c0,18.65,17.53,35,37.5,35H310c21.37,0,37.5-15,37.5-35V161.06l-59.82-59.81h59.76L425,176.54v194.7c0,5.62-1.89,7.5-7.51,7.5H375v25h42.49c19.45,0,32.51-13.07,32.51-32.5V165.94ZM250,98.92l54.82,54.82H250Zm60,324.83H87.5c-6.19,0-12.5-5.05-12.5-10V86.25c0-6,5-10,12.5-10H225V178.74h97.5v235C322.5,419.73,317.47,423.75,310,423.75Z"/><rect x="100" y="378.74" width="100" height="25"/><rect x="100" y="328.74" width="175" height="25"/><rect x="100" y="278.74" width="125" height="25"/></svg>