<svg id="Layer_1" data-name="Layer 1" xmlns="http://www.w3.org/2000/svg" viewBox="0 0 500 500"><title>Icon_Calendar_Global_International_Black</title><rect x="172.49" y="73.74" width="152.51" height="25"/><path d="M75,411.24v-235H422.49v75h25V73.74H375v-25H350v77.52h25V98.74h47.49v52.52H75V98.74h50v27.52h25V48.74H125v25H50v337.5a37.54,37.54,0,0,0,37.5,37.5H250v-25H87.5A12.54,12.54,0,0,1,75,411.24Z"/><path d="M200,301.26v-100H100v100Zm-75-75h50v50H125Z"/><path d="M342.5,236.24A107.44,107.44,0,0,0,325,238V201.26H225v100h18.83a107.45,107.45,0,1,0,98.67-65Zm81.24,95H404.65a310.57,310.57,0,0,0-5.15-46.9A82.09,82.09,0,0,1,423.74,331.26ZM355,425V356.26h24.65c-1.39,34.24-7.92,57.64-10.35,65.15A81.1,81.1,0,0,1,355,425Zm-39.28-3.58c-2.44-7.51-9-30.9-10.36-65.15H330V425A80,80,0,0,1,315.72,421.41Zm-54.47-90.15a82,82,0,0,1,24.26-46.92,310.72,310.72,0,0,0-5.15,46.92Zm54.47-65.17A80,80,0,0,1,330,262.51v68.75H305.36C306.75,297,313.28,273.6,315.72,266.09ZM355,331.26V262.51a81.1,81.1,0,0,1,14.3,3.58c2.43,7.51,9,30.91,10.35,65.17Zm-105-55v-50h50v18.83a107.54,107.54,0,0,0-40.49,31.17Zm11.25,80h19.11a310.42,310.42,0,0,0,5.15,46.9A82,82,0,0,1,261.25,356.26ZM399.5,403.14a310.27,310.27,0,0,0,5.15-46.88h19.09A82.09,82.09,0,0,1,399.5,403.14Z"/></svg>