<svg id="Layer_1" data-name="Layer 1" xmlns="http://www.w3.org/2000/svg" viewBox="0 0 500 500"><title>Icon_Pen_And_Paper_Black</title><path d="M87.87,51.26c-21.38,0-37.5,15-37.5,35V413.76c0,18.63,17.53,35,37.5,35H310.36c21.38,0,37.5-15,37.5-35V158.58L240.54,51.26Zm162.5,45.18,54.82,54.82H250.37Zm60,327.3H87.87c-6.19,0-12.5-5-12.5-10V86.24c0-6,5-10,12.5-10h137.5v100h97.49v237.5C322.86,419.74,317.83,423.74,310.36,423.74Z"/><rect x="100.37" y="376.26" width="100" height="25"/><rect x="100.37" y="326.26" width="175" height="25"/><rect x="100.37" y="276.26" width="125" height="25"/><path d="M374.63,89.51V407.19l37.05,37.06,37.95-34.18V89.51Zm50,309.43-12,10.84-13-12.94V114.51h25Z"/></svg>