<svg id="Icons" xmlns="http://www.w3.org/2000/svg" viewBox="0 0 500 500"><title>Icon_Confidential_Black</title><path d="M87.83,425c-6.6,0-12.07-5.15-12.45-11l0-327.24A12.54,12.54,0,0,1,87.87,75H224.62V175h100v37.5h25V158.76L239.25,50H87.85C68,50,51.59,65.48,50.38,86l0,328.74A37.53,37.53,0,0,0,87.81,450H224.62V425H87.83ZM249.62,95.33,305.1,150H249.62Z"/><rect x="99.62" y="300" width="100" height="25"/><rect x="99.62" y="250" width="125" height="25"/><rect x="99.62" y="200" width="175" height="25"/><path d="M412.12,300a62.58,62.58,0,0,0-62.46-62.46h0A62.59,62.59,0,0,0,287.12,300h0a37.54,37.54,0,0,0-37.5,37.5V450h200V337.5A37.54,37.54,0,0,0,412.12,300Zm-62.49-37.46h0A37.54,37.54,0,0,1,387.12,300h-75A37.55,37.55,0,0,1,349.63,262.54Zm75,162.46h-150V337.5a12.5,12.5,0,0,1,12.5-12.5h125a12.5,12.5,0,0,1,12.5,12.5Z"/><circle cx="349.62" cy="375.01" r="25"/></svg>