<svg xmlns="http://www.w3.org/2000/svg" viewBox="0 0 500 500"><title>Icon_Spacing_SVG_Black</title><g id="Guides_and_type" data-name="Guides and type"><path d="M252.79,455.38l-3.25,0a201.84,201.84,0,0,1-198.61-205C52.69,139.06,144.68,50,255.94,51.72a201.86,201.86,0,0,1,198.62,205C452.81,366.93,362.61,455.38,252.79,455.38ZM252.7,76.7c-96.22,0-175.24,77.48-176.78,174a176.84,176.84,0,0,0,174,179.62c97.51,1.52,178.08-76.52,179.62-174a176.83,176.83,0,0,0-174-179.62C254.6,76.7,253.65,76.7,252.7,76.7Z"/><polygon points="334.02 303.77 316.34 286.09 352.44 250 316.34 213.9 334.02 196.22 387.79 250 334.02 303.77"/><polygon points="171.47 303.77 117.7 250 171.47 196.22 189.15 213.9 153.05 250 189.15 286.09 171.47 303.77"/><rect x="215.88" y="153.96" width="25" height="192.07"/><rect x="266.67" y="153.96" width="25" height="192.07"/></g></svg>