<svg id="Layer_1" data-name="Layer 1" xmlns="http://www.w3.org/2000/svg" viewBox="0 0 500 500"><title>Icon_Document_ID_Book_Black</title><path d="M362.5,50H100V450H362.5c22.08,0,37.5-15.43,37.5-37.5V87.5C400,65.77,384.23,50,362.5,50ZM125,75h25V425H125ZM375,412.5c0,8.06-4.44,12.5-12.5,12.5H175V75H362.5c8.06,0,12.5,4.44,12.5,12.5Z"/><path d="M315,265H235a35,35,0,0,0-35,35v27.51h25V300a9.89,9.89,0,0,1,10-10h80a9.9,9.9,0,0,1,10,10v27.51h25V300A35,35,0,0,0,315,265Z"/><path d="M275,240a50,50,0,1,0-50-50A50.05,50.05,0,0,0,275,240Zm0-75a25,25,0,1,1-25,25A25,25,0,0,1,275,165Z"/></svg>