<svg id="Icons" xmlns="http://www.w3.org/2000/svg" viewBox="0 0 500 500"><title>Icon_Date and time_SVG_Black</title><path d="M250.19,451.84l-3.28,0a201.85,201.85,0,1,1,6.4-403.64A201.84,201.84,0,0,1,390.55,395,200.47,200.47,0,0,1,250.19,451.84ZM250,73.16a176.84,176.84,0,0,0-2.72,353.66c1,0,1.92,0,2.87,0a176.84,176.84,0,0,0,2.73-353.66C252,73.16,251,73.16,250,73.16Z"/><path d="M209.2,313.49H169a30.29,30.29,0,0,1-30.26-30.26V165.88A30.3,30.3,0,0,1,169,135.62H305.4a30.29,30.29,0,0,1,30.26,30.26v74.19h-25V165.88a5.27,5.27,0,0,0-5.26-5.26H169a5.27,5.27,0,0,0-5.26,5.26V283.23a5.27,5.27,0,0,0,5.26,5.26H209.2Z"/><path d="M292.87,387.22A68.18,68.18,0,1,1,361.05,319,68.26,68.26,0,0,1,292.87,387.22Zm0-111.36A43.18,43.18,0,1,0,336.05,319,43.23,43.23,0,0,0,292.87,275.86Z"/><rect x="153.36" y="180.71" width="171.95" height="25"/><rect x="183.84" y="119.31" width="25" height="52.83"/><rect x="269.84" y="119.31" width="25" height="52.83"/><rect x="280.37" y="270.93" width="25" height="55.79"/><rect x="280.92" y="303.25" width="35.02" height="25"/></svg>