<svg id="Layer_1" data-name="Layer 1" xmlns="http://www.w3.org/2000/svg" viewBox="0 0 500 500"><title>Icon_Timeline_Clock_Reversed_Black</title><polygon points="260.07 147.13 257.46 252.67 316.47 308.97 333.7 290.91 282.7 242.22 285.07 147.77 260.07 147.13"/><path d="M273.47,76.33c-91.24,0-166.12,70.79-173,160.31l-29.68-30.7-18,17.39L112,284.48l64-59-16.94-18.36-33.63,31c6.08-76.42,70.1-136.8,148.05-136.8,82,0,148.69,66.7,148.69,148.66s-66.7,148.68-148.69,148.68a148,148,0,0,1-126.09-69.92L126.18,342a172.84,172.84,0,0,0,147.29,81.64c95.78,0,173.69-77.91,173.69-173.68S369.25,76.33,273.47,76.33Z"/></svg>