<svg id="Icons" xmlns="http://www.w3.org/2000/svg" viewBox="0 0 500 500"><title>Icon_Pencil edit_SVG_Black</title><rect x="100.11" y="399.1" width="297.5" height="25"/><path d="M342.79,229.1l-72.68-72.68L133.19,293.34l-9.89,85.71,82.78-13.25Zm-190.87,120L157,304.86,270.11,191.78l37.32,37.32L194.14,342.4Z"/><path d="M384,182.94c15.21-15.21,17.45-37.72,5-50.18l-27.5-27.5c-10.51-10.51-33.24-6.94-47.68,7.5L287.43,139.1l70.18,70.18Zm-52.5-52.5c4.92-4.92,10.92-6.43,13.46-6.36l26.36,26.36c.53.53.93,2.17.56,4.52a19.4,19.4,0,0,1-5.56,10.3l-8.66,8.66L322.79,139.1Z"/></svg>