<svg id="Icons" xmlns="http://www.w3.org/2000/svg" viewBox="0 0 500 500"><title>Icon_Reverse rewind circle_SVG_Black</title><path d="M250.11,451.6c-110.28,0-200-89.72-200-200s89.72-200,200-200,200,89.72,200,200S360.39,451.6,250.11,451.6Zm0-375c-96.5,0-175,78.51-175,175s78.5,175,175,175,175-78.5,175-175S346.61,76.6,250.11,76.6Z"/><path d="M255.11,339.1a12.47,12.47,0,0,1-7.42-2.44l-105-77.5a12.5,12.5,0,0,1,.32-20.35l105-72.5a12.5,12.5,0,0,1,19.6,10.29v30.29l51-31a12.5,12.5,0,0,1,19,10.68v125a12.5,12.5,0,0,1-18.7,10.85l-51.3-29.31V326.6a12.5,12.5,0,0,1-12.5,12.5Zm-83.49-89.66,71,52.4V271.6a12.5,12.5,0,0,1,18.7-10.85l51.3,29.31V208.81l-51,31a12.51,12.51,0,0,1-19-10.69V200.42Z"/></svg>