<svg id="Layer_1" data-name="Layer 1" xmlns="http://www.w3.org/2000/svg" viewBox="0 0 500 500"><title>Icon_Document_Correct_Tick_Black</title><polygon points="229.24 321.08 195.34 285.17 177.16 302.31 228.24 356.43 329.84 260.34 312.65 242.18 229.24 321.08"/><path d="M291.42,51.26H138.75c-21.37,0-37.5,15-37.5,35V413.76c0,18.63,17.53,35,37.5,35h222.5c21.37,0,37.5-15,37.5-35V158.58Zm9.83,45.18,54.82,54.82H301.25Zm60,327.3H138.75c-6.19,0-12.5-5-12.5-10V86.24c0-6,5-10,12.5-10h137.5v100h97.5v237.5C373.75,419.74,368.72,423.74,361.25,423.74Z"/></svg>