<svg id="Layer_1" data-name="Layer 1" xmlns="http://www.w3.org/2000/svg" viewBox="0 0 500 500"><title>Icon_Cellphone_Black</title><path d="M337.5,51.25h-175A37.54,37.54,0,0,0,125,88.75v322.5a37.54,37.54,0,0,0,37.5,37.5h175a37.54,37.54,0,0,0,37.5-37.5V88.75A37.54,37.54,0,0,0,337.5,51.25Zm-175,25h175A12.52,12.52,0,0,1,350,88.75v237.5H150V88.75A12.53,12.53,0,0,1,162.5,76.25Zm175,347.5h-175a12.52,12.52,0,0,1-12.5-12.5v-60H350v60A12.53,12.53,0,0,1,337.5,423.75Z"/><circle cx="250" cy="388.75" r="12.5"/></svg>