<svg id="Icons" xmlns="http://www.w3.org/2000/svg" viewBox="0 0 500 500"><title>Icon_Verified_Black</title><path d="M449.51,428.52,306.66,285.23a143.51,143.51,0,0,0,32.21-90.66c0-79.5-64.69-144.19-144.19-144.19S50.49,115.07,50.49,194.57s64.68,144.19,144.19,144.19a143.46,143.46,0,0,0,90.87-32.37L428.34,449.62ZM80.37,194.57A114.31,114.31,0,1,1,194.68,308.88,114.44,114.44,0,0,1,80.37,194.57Z"/><path d="M200,188c-.66,2.91-1.27,5.72-1.86,8.49-.85,3.92-1.66,7.68-2.58,11.44l-.72-3.33c-1.23-5.68-2.39-11.07-3.89-16.61l-8-33.75-.23-.95H158.52l23,78.84.26.89h26.88l23-78.13.47-1.6H208.45Z"/></svg>