<svg id="Layer_1" data-name="Layer 1" xmlns="http://www.w3.org/2000/svg" viewBox="0 0 500 500"><title>Icon_Fire_Black</title><path d="M404.09,240.66C387.65,137.43,285.5,60,272.47,55.62a12.62,12.62,0,0,0-10.38,1.15C203,92.24,168.26,141.66,158.64,203.91c-7.32-11.69-5.43-20.36-3.93-27.29a42.7,42.7,0,0,0,1.31-9.13,12.51,12.51,0,0,0-22.82-7.08c-36.38,53.07-47.75,104.15-33.77,151.8,25.1,85.58,122.59,127.54,126.73,129.3a12.51,12.51,0,0,0,16-17.11c-38.89-77.76-9.2-109.3,13.54-126.32C315.2,347.86,282.37,426.77,282,427.57a12.5,12.5,0,0,0,18.94,15C381.25,383,416,315.05,404.09,240.66ZM315.25,398.45c5.06-39.51-2.94-91.09-52-126.13a12.61,12.61,0,0,0-14.43-.07c-21.77,15.23-69.49,48.61-42.92,130-28.44-17.9-68.84-50.44-82.52-97.05-8.74-29.81-5.33-61.72,10.11-95.28,4.6,9.81,12.86,20.7,27.11,32.3A12.5,12.5,0,0,0,181,232.94c2.21-64.3,31.7-115,87.68-150.85C291,97.57,372.23,166.8,380.63,254.18,385.57,305.55,363.6,354,315.25,398.45Z"/></svg>