<svg id="Layer_1" data-name="Layer 1" xmlns="http://www.w3.org/2000/svg" viewBox="0 0 500 500"><title>Icon_Hourglass_12_Black</title><rect x="100" y="50" width="300" height="25"/><rect x="100" y="425" width="300" height="25"/><path d="M287.5,237.5a37.68,37.68,0,0,1,15-30l60-45a62.73,62.73,0,0,0,25-50v-25h-25v25a37.56,37.56,0,0,1-15,30l-60,45a62.79,62.79,0,0,0-25,50v25a62.79,62.79,0,0,0,25,50l60,45a37.56,37.56,0,0,1,15,30v25h25v-25a62.73,62.73,0,0,0-25-50l-60-45a37.68,37.68,0,0,1-15-30v-25Z"/><path d="M212.5,262.5a37.56,37.56,0,0,1-15,30l-60,45a62.79,62.79,0,0,0-25,50v25h25v-25a37.68,37.68,0,0,1,15-30l60-45a62.73,62.73,0,0,0,25-50v-25a62.73,62.73,0,0,0-25-50l-60-45a37.68,37.68,0,0,1-15-30v-25h-25v25a62.79,62.79,0,0,0,25,50l60,45a37.56,37.56,0,0,1,15,30v25Z"/><path d="M248.53,275A75.13,75.13,0,0,1,220,322.51l-60,45a25.09,25.09,0,0,0-10,20v25H350v-25a25.1,25.1,0,0,0-10-20l-60-45A75.08,75.08,0,0,1,251.49,275Z"/></svg>