<svg id="Icons" xmlns="http://www.w3.org/2000/svg" viewBox="0 0 500 500"><title>Icon_Scales_Black</title><path d="M449.85,233.4c0-.42.13-.81.13-1.23a12.09,12.09,0,0,0-.7-3.46c-.09-.32,0-.66-.12-1l-47.5-125c0-.06-.08-.08-.11-.14a13,13,0,0,0-5.19-5.92,12.25,12.25,0,0,0-6.08-1.94c-.07,0-.12-.06-.19-.06l0,0-.06,0H265V57.83H240V94.67H115a12.51,12.51,0,0,0-11.53,7.66h0L51,227.33c-.14.32,0,.68-.15,1a12.26,12.26,0,0,0-.78,3.83c0,.25.07.48.08.73s0,.59.09.9a63.58,63.58,0,0,0,127.13-.05c0-.17,0-.33.05-.5,0-.37.11-.71.11-1.08a12.19,12.19,0,0,0-.8-4c-.07-.22,0-.46-.09-.68l-.09-.22h0L133.44,119.67H240v297.5h-87.5v25h200v-25H265V119.67H371.51L328.46,227.3h0l-.09.22c-.09.22,0,.46-.1.68a12.45,12.45,0,0,0-.79,4c0,.37.1.71.1,1.08l.06.5a61.1,61.1,0,0,0,122.16.14A4.28,4.28,0,0,0,449.85,233.4ZM113.76,270.89A38.79,38.79,0,0,1,77.1,244.67h73.3A38.76,38.76,0,0,1,113.76,270.89ZM81.29,219.67l33.41-79.55,31.82,79.55Zm308.4-78.1,29.66,78.1H358.44Zm-1,126.86a36.3,36.3,0,0,1-34-23.76h68.05A36.3,36.3,0,0,1,388.72,268.43Z"/></svg>