<svg id="Layer_1" data-name="Layer 1" xmlns="http://www.w3.org/2000/svg" viewBox="0 0 500 500"><title>Icon_Calendar_Black</title><path d="M188.35,222.56q-24,0-37.91,19.8T136.52,301q0,38.88,13.92,59.39t37.91,20.51q24,0,37.92-20.51T240.19,301q0-38.64-13.92-58.55T188.35,222.56Zm23.52,105.83a68.6,68.6,0,0,1-5.28,18c-2.24,4.64-4.93,8-8,10a19,19,0,0,1-20.41,0c-3.1-2-5.79-5.32-8-10a68.6,68.6,0,0,1-5.28-18A162.49,162.49,0,0,1,162.92,301a158.14,158.14,0,0,1,1.92-27q1.91-10.92,5.28-17.65c2.24-4.47,4.93-7.65,8-9.48a20.31,20.31,0,0,1,20.41,0c3.1,1.83,5.79,5,8,9.48s4,10.37,5.28,17.65a161.28,161.28,0,0,1,1.92,27A165.71,165.71,0,0,1,211.87,328.39Z"/><path d="M355.35,314.94a45.36,45.36,0,0,0-8.38-8.52,79.66,79.66,0,0,0-10.08-6.59v-.95a62.08,62.08,0,0,0,7.3-6.38,49.56,49.56,0,0,0,6.62-8.15,45.07,45.07,0,0,0,4.66-9.59,32.46,32.46,0,0,0,1.81-10.92,43.9,43.9,0,0,0-3.13-16.92,36.26,36.26,0,0,0-9-13,42,42,0,0,0-14.16-8.4,54.34,54.34,0,0,0-18.61-3A57.66,57.66,0,0,0,294,225.44a43.7,43.7,0,0,0-14.62,8.18,37.57,37.57,0,0,0-9.6,12.69,39.29,39.29,0,0,0-3.49,16.8q0,12.27,6.13,20.87a62,62,0,0,0,15,14.9v.95A69.3,69.3,0,0,0,277,306.54a52.8,52.8,0,0,0-8.77,8.65,40.94,40.94,0,0,0-6.13,10.66,36.22,36.22,0,0,0-2.27,13.09,36.63,36.63,0,0,0,4,17,40.87,40.87,0,0,0,10.79,13.19,51.22,51.22,0,0,0,16.33,8.64,66.21,66.21,0,0,0,20.75,3.12,68.32,68.32,0,0,0,21.12-3.12A48.33,48.33,0,0,0,349.12,369a40.09,40.09,0,0,0,10.43-13.18,36.56,36.56,0,0,0,3.73-16.43,40.36,40.36,0,0,0-2.17-13.7A41,41,0,0,0,355.35,314.94Zm-58.3-67.31a21.47,21.47,0,0,1,14.89-5.39c7.18,0,12.74,2.22,16.67,6.61s5.86,9.94,5.86,16.68a30.32,30.32,0,0,1-3.22,13.67,50.33,50.33,0,0,1-9.47,12.72,118.05,118.05,0,0,1-12-5.18,59.22,59.22,0,0,1-9.72-6,24.34,24.34,0,0,1-6.59-7.57,20.26,20.26,0,0,1-2.4-10.08C291.06,256.4,293,251.25,297.05,247.63Zm33.22,107.62q-7.06,6-18.11,6-11.76,0-19.9-6.83c-5.44-4.57-8.15-10.67-8.15-18.36A28.69,28.69,0,0,1,288.77,320a47.25,47.25,0,0,1,11.89-12.48c5.1,2.07,9.91,4.08,14.38,6a63.27,63.27,0,0,1,11.64,6.37,29.06,29.06,0,0,1,7.79,7.91,19.11,19.11,0,0,1,2.88,10.67C337.35,345.65,335,351.27,330.27,355.25Z"/><path d="M375,75V50H350v77.49h25V100h50v52.49H75V100h50v27.49h25V50H125V75H50V412.5A37.54,37.54,0,0,0,87.5,450h325A37.54,37.54,0,0,0,450,412.5V75Zm37.5,350H87.5A12.54,12.54,0,0,1,75,412.5v-235H425v235A12.54,12.54,0,0,1,412.5,425Z"/><rect x="172.51" y="75" width="150" height="25"/></svg>