<svg id="Icons" xmlns="http://www.w3.org/2000/svg" viewBox="0 0 500 500"><title>Icon_Sound on_SVG_Black</title><path d="M242.38,183.93l-14.54,20.34c13.74,9.81,22.27,27.95,22.27,47.33,0,17.73-7.66,34.7-20.5,45.4l16,19.2c18.47-15.39,29.5-39.54,29.5-64.6C275.11,224.28,262.57,198.35,242.38,183.93Z"/><path d="M185.11,211.69V176.6a12.5,12.5,0,0,0-18.46-11l-87.5,47.5a12.49,12.49,0,0,0-6.54,11v52.5a12.47,12.47,0,0,0,6.3,10.85l87.5,50a12.5,12.5,0,0,0,18.7-10.85V289c21.55-1.13,37.5-16.84,37.5-37.43A40,40,0,0,0,185.11,211.69Zm-25,93.37-62.5-35.71V231.54l62.5-33.93Zm25-41.12v-27.1a15.22,15.22,0,0,1,12.5,14.76C197.61,259.2,191.52,263.13,185.11,263.94Z"/><path d="M306.9,140.74l-18.58,16.72c21.15,23.51,34.29,58.62,34.29,91.64,0,34.52-12.18,67.07-34.29,91.64l18.58,16.72c26.25-29.17,40.71-67.65,40.71-108.36C347.61,209.57,332.39,169.06,306.9,140.74Z"/><path d="M356.16,92.48l-17.1,18.24c37.76,35.4,58.55,85.43,58.55,140.88,0,50.55-21,100.79-59.12,141.45l18.24,17.1c42.48-45.32,65.88-101.62,65.88-158.55C422.61,189.16,399,132.65,356.16,92.48Z"/></svg>