<svg id="Layer_1" data-name="Layer 1" xmlns="http://www.w3.org/2000/svg" viewBox="0 0 500 500"><title>Icon_Hourglass_10_Black</title><rect x="100" y="50" width="300" height="25"/><rect x="100" y="425" width="300" height="25"/><path d="M287.5,237.5a37.71,37.71,0,0,1,15-30l60-45a62.82,62.82,0,0,0,25-50v-25h-25v25a37.68,37.68,0,0,1-15,30l-60,45a62.86,62.86,0,0,0-25,50v25a62.91,62.91,0,0,0,25,50l60,45a37.71,37.71,0,0,1,15,30v25h25v-25a62.83,62.83,0,0,0-25-50l-60-45a37.78,37.78,0,0,1-15-30v-25Z"/><path d="M212.5,262.5a37.68,37.68,0,0,1-15,30l-60,45a62.86,62.86,0,0,0-25,50v25h25v-25a37.71,37.71,0,0,1,15-30l60-45a62.82,62.82,0,0,0,25-50v-25a62.83,62.83,0,0,0-25-50l-60-45a37.78,37.78,0,0,1-15-30v-25h-25v25a62.91,62.91,0,0,0,25,50l60,45a37.71,37.71,0,0,1,15,30v25Z"/><path d="M260.49,200h-21a77.69,77.69,0,0,1,9,25h3A77.67,77.67,0,0,1,260.49,200Z"/><path d="M220,322.51l-60,45a25.1,25.1,0,0,0-10,20v25H350v-25a25.11,25.11,0,0,0-10-20l-60-45A72.7,72.7,0,0,1,260.5,300h-21A72.57,72.57,0,0,1,220,322.51Z"/></svg>