<svg id="Icons" xmlns="http://www.w3.org/2000/svg" viewBox="0 0 500 500"><title>Icon_Document jpeg_SVG_Black</title><path d="M148,387.72l13.06-9.8c2.47,4.73,6.07,7,9.23,7,5.17,0,8.1-2.48,8.1-11.71V327h19.36v47.73c0,14.63-7.88,26.79-24.76,26.79C161.07,401.56,153.41,397.06,148,387.72Z"/><path d="M213.52,327h26.79c16,0,29.72,5.86,29.72,24.32,0,17.89-14,25.66-29.27,25.66h-7.88v23.19H213.52Zm26.34,34.67c7.65,0,11.25-3.82,11.25-10.35s-4.27-9-11.7-9h-6.53v19.36Z"/><path d="M278.8,364.19c0-24.54,16.89-38.5,36.47-38.5a33,33,0,0,1,23.87,9.68L329,347.75c-3.6-3.15-7.21-5.4-13.06-5.4-9.91,0-17.34,7.88-17.34,21.16,0,13.74,6.08,21.39,19.14,21.39a11,11,0,0,0,5.63-1.35V373.42H312.57V357.66h27.92v34.9c-5.18,4.95-14.41,9-24.77,9C295.24,401.56,278.8,389.18,278.8,364.19Z"/><path d="M361.36,447.85H138.86a39.32,39.32,0,0,1-25.37-9.62,33.86,33.86,0,0,1-12.13-25.38V85.35c0-19.95,16.12-35,37.5-35H291.54L398.86,157.67V412.85C398.86,432.8,382.74,447.85,361.36,447.85ZM138.86,75.35c-7.48,0-12.5,4-12.5,10v327.5c0,4.95,6.31,10,12.5,10h222.5c7.48,0,12.5-4,12.5-10V168L281.18,75.35Z"/><polygon points="376.36 175.35 276.36 175.35 276.36 75.35 301.36 75.35 301.36 150.35 376.36 150.35 376.36 175.35"/></svg>