<svg id="Icons" xmlns="http://www.w3.org/2000/svg" viewBox="0 0 500 500"><title>Icon_Doc_Unrestricted_Black</title><polygon points="229.52 321.48 193.71 285.66 176.03 303.33 229.21 356.52 330.3 259 312.95 241 229.52 321.48"/><path d="M289.19,50H137.82c-19.8,0-36.24,15.47-37.45,36l0,328.75A37.51,37.51,0,0,0,137.8,450H361.42c19.8,0,36.24-15.47,37.45-36l.76-256.81Zm10.43,45,56.68,55H299.62ZM361.4,425H137.85c-7.29-.33-12.1-5.14-12.48-11l0-327.26A12.51,12.51,0,0,1,137.85,75H274.62V175h100l-.68,238.26A12.52,12.52,0,0,1,361.4,425Z"/></svg>