<svg id="Layer_1" data-name="Layer 1" xmlns="http://www.w3.org/2000/svg" viewBox="0 0 500 500"><title>Icon_Document_Page_Black</title><path d="M291.42,51.25H138.75c-21.37,0-37.5,15-37.5,35v327.5c0,18.65,17.53,35,37.5,35h222.5c21.37,0,37.5-15,37.5-35V158.57Zm9.83,45.17,54.82,54.83H301.25Zm60,327.33H138.75c-6.19,0-12.5-5.05-12.5-10V86.25c0-6,5-10,12.5-10h137.5v100h97.5v237.5C373.75,419.73,368.72,423.75,361.25,423.75Z"/><rect x="151.25" y="376.25" width="100" height="25"/><rect x="151.25" y="326.25" width="175" height="25"/><rect x="151.25" y="276.25" width="125" height="25"/></svg>