<svg id="Layer_1" data-name="Layer 1" xmlns="http://www.w3.org/2000/svg" viewBox="0 0 500 500"><title>Icon_Tree_Black</title><path d="M413.63,188.47c-5.53-35.62-31.08-63.23-63.81-70.43-6.87-41.38-44.26-70.22-83.5-63.89-20.74,3.19-38.81,15.91-49.78,34.3a59.43,59.43,0,0,0-75.71,20.65,66.48,66.48,0,0,0-11.44,39.55,63.88,63.88,0,0,0-32,24.73,71.86,71.86,0,0,0,14.9,96,63.54,63.54,0,0,0,49.24,13.16,55.44,55.44,0,0,0,6.38-1.42,83.92,83.92,0,0,0,40.9,34.62l9-23.34c-14.21-5.47-26.09-17.14-32.58-32l-5.24-12-11.72,5.74a36.56,36.56,0,0,1-10.62,3.61,38.89,38.89,0,0,1-30-8.13,46.87,46.87,0,0,1-9.66-62.23A38.69,38.69,0,0,1,145,170.63l12.52-4.15-2.6-13a42,42,0,0,1,6.58-30.25,35.35,35.35,0,0,1,23.87-15.41c10.08-1.53,20.07,1.44,28.38,8.43l13.84,11.64,6-17.06c6.12-17.41,19.79-29.35,36.58-31.94,26.05-4.07,50.72,15.65,55.11,43.83a55,55,0,0,1,.34,6.61l.36,11.18,11.16.88c25.75,2,47.54,23.46,51.81,51a61.79,61.79,0,0,1-9.73,44.58c-8.56,12.57-21.22,20.73-35.62,23-16.56,2.57-29.68-3.59-37.81-9.13L292,241.33l-5.21,15.82a57.32,57.32,0,0,1-25.05,31.55v-72a54.49,54.49,0,0,0,39.87-52.31h-25c0,10.84-6.14,19.94-14.87,25.09V142h-25v87.8a29.84,29.84,0,0,1-19.11-27.74h-25a55,55,0,0,0,44.11,53.84V446.72h25V316.28a79.59,79.59,0,0,0,42.92-37.6,76,76,0,0,0,42.72,5.91c21.32-3.32,40-15.23,52.46-33.59A86.82,86.82,0,0,0,413.63,188.47Z"/></svg>