<svg id="Layer_1" data-name="Layer 1" xmlns="http://www.w3.org/2000/svg" viewBox="0 0 500 500"><title>Icon_Document_Pages_Correct_Tick_Black</title><path d="M357.57,76.26h-94.9l-25-25H87.5c-21.37,0-37.5,15-37.5,35V413.76c0,18.63,17.53,35,37.5,35H310c21.37,0,37.5-15,37.5-35V161.07l-59.82-59.81h59.76L425,176.55v194.7c0,5.62-1.89,7.5-7.51,7.5H375v25h42.49c19.45,0,32.51-13.06,32.51-32.5V166ZM250,98.93l54.82,54.82H250Zm60,324.81H87.5c-6.19,0-12.5-5-12.5-10V86.24c0-6,5-10,12.5-10H225V178.75h97.5v235C322.5,419.74,317.47,423.74,310,423.74Z"/><rect x="100" y="378.75" width="100" height="25"/><rect x="100" y="328.75" width="175" height="25"/><polygon points="211.17 237.76 193.84 219.74 138.1 273.33 121.75 255.36 103.25 272.16 136.9 309.17 211.17 237.76"/></svg>