<svg id="Icons" xmlns="http://www.w3.org/2000/svg" viewBox="0 0 500 500"><title>Icon_Bathroom toilet male_SVG_Black</title><path d="M247.61,126.6a37.5,37.5,0,1,1,37.5-37.5A37.54,37.54,0,0,1,247.61,126.6Zm0-50a12.5,12.5,0,1,0,12.5,12.5A12.52,12.52,0,0,0,247.61,76.6Z"/><polygon points="287.61 451.6 262.61 451.6 262.61 149.1 297.01 149.1 337.12 288.14 313.1 295.07 287.61 206.7 287.61 451.6"/><polygon points="237.61 451.6 212.61 451.6 212.61 202.21 187.16 294.91 163.06 288.29 200.58 151.6 237.61 151.6 237.61 451.6"/></svg>