<svg id="Layer_1" data-name="Layer 1" xmlns="http://www.w3.org/2000/svg" viewBox="0 0 500 500"><title>Icon_Climate_Change_A_Black</title><path d="M375.22,250.38A125.22,125.22,0,1,0,250,375.6,125.37,125.37,0,0,0,375.22,250.38ZM231.17,152.06c1.67.39,3.32.87,5,1.17,4.41.83,7.18,1.42,8.79,2.84,1.85,1.66,3,4.34,4.8,8.59l2.18,5c4.25,9,8.68,15.82,14,21.39l3,3c2,1.92,4,3.93,4.7,5.56l2.08,4.44,1.92,1.88a16,16,0,0,0,10.1,4.47c-1.74,2-3.83,4-6.1,6.13a85,85,0,0,0-11.11,12.09c-5,7-7.4,14.67-6.92,22.14a44.72,44.72,0,0,0,2.27,10.62,24.66,24.66,0,0,1,1.21,4.86c0,1-.65,2.29-3.31,3.76a42.8,42.8,0,0,0-4.77,2.63c-5.83,3.89-9.29,10-9.26,16.31a17.74,17.74,0,0,0,.14,2c-4.92,4-6.86,9.13-8.18,12.67a21.54,21.54,0,0,1-1,2.47c-.28.49-1.84,2.15-5.59,3.78a56.07,56.07,0,0,1-8.63,2.81c-2.86-9.67-6.42-19-9.89-28l-2.38-6.2a27.67,27.67,0,0,1-1-3,22.06,22.06,0,0,1,.89-3c.55-1.61,1.09-3.25,1.49-4.93,2.41-10.13-.08-21.22-7-31.25L206.86,234c-.93-1.27-2.33-3.22-2.29-5.17a34.32,34.32,0,0,0,.53-6c-.23-9.72-7.39-17.61-16.29-18-.58,0-1.15,0-1.68,0a19.38,19.38,0,0,0-11.62-5.4c-5.06-.39-9.23,1.34-12.36,2.64-.18.07-.32.08-.5.15A100,100,0,0,1,231.17,152.06ZM250,350.6a99.59,99.59,0,0,1-97.64-122.12A39.75,39.75,0,0,0,172.07,225a20.78,20.78,0,0,0,7.29,4.47,19.73,19.73,0,0,0,0,2c.35,7.61,4.33,13.11,8.55,19,2.77,4,4,8.27,3.27,11.32-.21.88-.53,1.74-.82,2.59a28.17,28.17,0,0,0,.41,23l2.43,6.32c4.06,10.55,7.89,20.51,10.2,28.66a16.61,16.61,0,0,0,8,13.09,21.85,21.85,0,0,0,11.33,2.78c8.11,0,16.75-3.05,22.28-5.44s13.21-7,17.46-14.53a46.46,46.46,0,0,0,2.58-5.88,16.29,16.29,0,0,0,.67-2,18,18,0,0,0,8.94-8.61,15.72,15.72,0,0,0,1.1-9.79c1-.54,2.06-1.08,3-1.69A28.62,28.62,0,0,0,292,265.37,42.21,42.21,0,0,0,289.7,254a25.38,25.38,0,0,1-1.2-4.78c-.1-1.61.76-3.89,2.32-6.06a60.77,60.77,0,0,1,8-8.47c5-4.71,10.6-10,14.51-17.7l1.44-2.51c2.65-4.45,6.28-10.58,5.9-17.95a16.31,16.31,0,0,0-5.57-12A15.31,15.31,0,0,0,302.64,181a19.89,19.89,0,0,0-8.82,3.62,53.09,53.09,0,0,0-7.48-8.5l-2.31-2.3c-3.38-3.58-6.39-8.27-9.46-14.79l-1.74-4c-.31-.73-.79-1.59-1.12-2.36,44.83,10,78.51,49.9,78.51,97.7A100.33,100.33,0,0,1,250,350.6Z"/><path d="M451.64,250.38v-12.5h-25v12.5c0,64.9-34.92,123.06-91.29,154.24L352.72,357l-23.48-8.59-30.38,83.2,82.3,30.06,8.57-23.49-38.45-14C413.34,388.1,451.64,323,451.64,250.38Z"/><path d="M162,97.72,145.47,143,169,151.55l30.37-83.2L117,38.29l-8.57,23.49L148.81,76.5C87.46,112.38,48.36,178.63,48.36,250.38v12.5h25v-12.5C73.36,187.28,107.88,129.06,162,97.72Z"/></svg>