<svg id="Icons" xmlns="http://www.w3.org/2000/svg" viewBox="0 0 500 500"><title>Icon_Audio_SVG_Black</title><path d="M250.11,351.6c-26.31,0-51.31-10.51-70.4-29.6s-29.6-44.09-29.6-70.4h25c0,40.65,34.35,75,75,75s75-34.35,75-75h25c0,26.31-10.51,51.31-29.6,70.4S276.42,351.6,250.11,351.6Z"/><rect x="237.61" y="339.1" width="25" height="50"/><rect x="210.11" y="376.6" width="77.5" height="25"/><path d="M250.11,301.6a50.93,50.93,0,0,1-50-50V149.1a50,50,0,0,1,100,0v100C300.11,278.05,277.68,301.6,250.11,301.6Zm0-177.5c-13.08,0-25,11.92-25,25V251.6c0,13.08,11.92,25,25,25,13.55,0,25-12.59,25-27.5v-100C275.11,136,263.19,124.1,250.11,124.1Z"/></svg>