<svg id="Layer_1" data-name="Layer 1" xmlns="http://www.w3.org/2000/svg" viewBox="0 0 500 500"><title>Icon_Router_Internet_Black</title><path d="M316.33,250.77c37.31-37.33,37.31-100.37,0-137.7l-17.67,17.68c27.71,27.73,27.71,74.61,0,102.34Z"/><path d="M348.85,280.38l17.29,18.07c31.05-29.74,48.39-70.17,48.85-113.84a164.47,164.47,0,0,0-48.66-119L348.66,83.26A139.74,139.74,0,0,1,390,184.34C389.6,221.23,375,255.33,348.85,280.38Z"/><path d="M203.83,235.58c-30.37-30.37-30.37-74.46,0-104.83l-17.67-17.68c-40,40-40,100.22,0,140.19Z"/><path d="M154,283.29c-52.91-55.23-52.91-145,0-200.22L136,65.78c-62,64.73-62,170.05,0,234.79Z"/><path d="M265,334.41V217a35,35,0,1,0-25,0v117.4H50v100H450v-100Zm-12.5-160a10,10,0,1,1-10,10A10,10,0,0,1,252.49,174.43ZM425,409.41H75v-50H425Z"/></svg>