<svg id="Layer_1" data-name="Layer 1" xmlns="http://www.w3.org/2000/svg" viewBox="0 0 500 500"><title>Icon_Cellphone_Tick_Success_Black</title><path d="M338.2,325h-200V87.5A12.54,12.54,0,0,1,150.7,75H323.2a12.54,12.54,0,0,1,12.5,12.5V125h25V87.5A37.54,37.54,0,0,0,323.2,50H150.7a37.54,37.54,0,0,0-37.5,37.5v325A37.54,37.54,0,0,0,150.7,450h175a37.54,37.54,0,0,0,37.5-37.5v-125h-25ZM325.7,425h-175a12.52,12.52,0,0,1-12.5-12.5V350h200v62.5A12.54,12.54,0,0,1,325.7,425Z"/><circle cx="238.2" cy="387.5" r="12.5"/><polygon points="254.53 213.65 236.86 231.32 282.96 277.42 386.8 179.08 369.61 160.91 283.43 242.55 254.53 213.65"/></svg>