<svg id="Icons" xmlns="http://www.w3.org/2000/svg" viewBox="0 0 500 500"><title>Icon_Documents dot line edit_SVG_Black</title><path d="M360.11,449.1H137.61a39.32,39.32,0,0,1-25.37-9.62,33.86,33.86,0,0,1-12.13-25.38V86.6c0-19.95,16.12-35,37.5-35H290.29L397.61,158.92V414.1C397.61,434.05,381.49,449.1,360.11,449.1ZM137.61,76.6c-7.48,0-12.5,4-12.5,10V414.1c0,4.95,6.31,10,12.5,10h222.5c7.48,0,12.5-4,12.5-10V169.28L279.93,76.6Z"/><polygon points="375.11 176.6 275.11 176.6 275.11 74.1 300.11 74.1 300.11 151.6 375.11 151.6 375.11 176.6"/><rect x="150.11" y="376.6" width="100" height="25"/><rect x="150.11" y="326.6" width="175" height="25"/><circle cx="162.61" cy="289.1" r="12.5"/><circle cx="212.61" cy="289.1" r="12.5"/><circle cx="262.61" cy="289.1" r="12.5"/></svg>