<svg id="Icons" xmlns="http://www.w3.org/2000/svg" viewBox="0 0 500 500"><title>Icon_Instagram_SVG_Black</title><path d="M334.27,425.8H166A90.94,90.94,0,0,1,75.11,335V166.64A90.94,90.94,0,0,1,166,75.8H334.27a90.94,90.94,0,0,1,90.84,90.84V335A90.94,90.94,0,0,1,334.27,425.8ZM166,100.8a65.92,65.92,0,0,0-65.84,65.84V335A65.92,65.92,0,0,0,166,400.8H334.27A65.92,65.92,0,0,0,400.11,335V166.64a65.92,65.92,0,0,0-65.84-65.84Z"/><circle cx="347.61" cy="158.3" r="20"/><path d="M250.11,333.66A82.86,82.86,0,1,1,333,250.8,83,83,0,0,1,250.11,333.66Zm0-140.72A57.86,57.86,0,1,0,308,250.8,57.92,57.92,0,0,0,250.11,192.94Z"/></svg>